<svg version="1.1" xmlns="http://www.w3.org/2000/svg" viewBox="0 0 860 372.25806451612925" width="860" height="372.25806451612925">
  <!-- svg-source:excalidraw -->
  
  <defs>
    <style>
      @font-face {
        font-family: "Virgil";
        src: url("https://excalidraw.com/Virgil.woff2");
      }
      @font-face {
        font-family: "Cascadia";
        src: url("https://excalidraw.com/Cascadia.woff2");
      }
    </style>
  </defs>
  <rect x="0" y="0" width="860" height="372.25806451612925" fill="transparent"></rect><g stroke-linecap="round" transform="translate(10 10) rotate(0 420 176.12903225806463)"><path d="M0 0 L840 0 L840 352.26 L0 352.26" stroke="none" stroke-width="0" fill="#f5f5f5"></path><path d="M0 0 C304.75 0, 609.5 0, 840 0 M0 0 C172.65 0, 345.29 0, 840 0 M840 0 C840 79.26, 840 158.52, 840 352.26 M840 0 C840 126.18, 840 252.36, 840 352.26 M840 352.26 C615.53 352.26, 391.06 352.26, 0 352.26 M840 352.26 C517.08 352.26, 194.16 352.26, 0 352.26 M0 352.26 C0 249.34, 0 146.42, 0 0 M0 352.26 C0 249.99, 0 147.71, 0 0" stroke="#000000" stroke-width="2" fill="none"></path></g><g stroke-linecap="round" transform="translate(210 75.13724704468109) rotate(0 299.287383957791 130.01202163895033)"><path d="M0 0 L598.57 0 L598.57 260.02 L0 260.02" stroke="none" stroke-width="0" fill="#d3e3fa"></path><path d="M0 0 C187.08 0, 374.17 0, 598.57 0 M0 0 C136.61 0, 273.22 0, 598.57 0 M598.57 0 C598.57 86.67, 598.57 173.35, 598.57 260.02 M598.57 0 C598.57 56.5, 598.57 113, 598.57 260.02 M598.57 260.02 C365.89 260.02, 133.21 260.02, 0 260.02 M598.57 260.02 C445.89 260.02, 293.2 260.02, 0 260.02 M0 260.02 C0 170.59, 0 81.15, 0 0 M0 260.02 C0 184.55, 0 109.08, 0 0" stroke="#000000" stroke-width="2" fill="none"></path></g><g transform="translate(271.93548387096735 265.95388931406285) rotate(0 49.87110131570171 9.40192893656672)"><text x="0" y="14.803857873133385" font-family="Helvetica, Segoe UI Emoji" font-size="16.351180759246414px" fill="#000000" text-anchor="start" style="white-space: pre;" direction="ltr">Google Cloud</text></g><g stroke-linecap="round" transform="translate(643.5845410628008 247.86437365034828) rotate(0 61.09209911173457 27.491444600280545)"><path d="M13.75 0 L108.44 0 L114.45 0.86 L118.75 3.44 L120.25 5.37 L121.97 10.52 L122.18 41.24 L121.33 47.25 L120.25 49.61 L116.81 53.05 L114.45 54.12 L108.44 54.98 L13.75 54.98 L7.73 54.12 L3.44 51.55 L1.93 49.61 L0.21 44.46 L0.21 10.52 L1.93 5.37 L3.44 3.44 L7.73 0.86 L13.75 0" stroke="none" stroke-width="0" fill="#FFF"></path><path d="M13.75 0 M13.75 0 C35.83 0, 57.92 0, 108.44 0 M13.75 0 C51.03 0, 88.31 0, 108.44 0 M108.44 0 C117.6 0, 122.18 4.58, 122.18 13.75 M108.44 0 C117.6 0, 122.18 4.58, 122.18 13.75 M122.18 13.75 C122.18 20.78, 122.18 27.81, 122.18 41.24 M122.18 13.75 C122.18 22.82, 122.18 31.89, 122.18 41.24 M122.18 41.24 C122.18 50.4, 117.6 54.98, 108.44 54.98 M122.18 41.24 C122.18 50.4, 117.6 54.98, 108.44 54.98 M108.44 54.98 C83.48 54.98, 58.53 54.98, 13.75 54.98 M108.44 54.98 C89.03 54.98, 69.63 54.98, 13.75 54.98 M13.75 54.98 C4.58 54.98, 0 50.4, 0 41.24 M13.75 54.98 C4.58 54.98, 0 50.4, 0 41.24 M0 41.24 C0 33.45, 0 25.67, 0 13.75 M0 41.24 C0 34.21, 0 27.19, 0 13.75 M0 13.75 C0 4.58, 4.58 0, 13.75 0 M0 13.75 C0 4.58, 4.58 0, 13.75 0" stroke="#4285f4" stroke-width="2" fill="none"></path></g><g transform="translate(693.2218715910813 264.66470090607663) rotate(0 23.472227553455923 15.916099505425564)"><text x="0" y="8.610733003617051" font-family="Helvetica, Segoe UI Emoji" font-size="9.163814866760184px" fill="#000000" text-anchor="start" style="white-space: pre;" direction="ltr">Google </text><text x="0" y="19.221466007234103" font-family="Helvetica, Segoe UI Emoji" font-size="9.163814866760184px" fill="#000000" text-anchor="start" style="white-space: pre;" direction="ltr">Kubernetes</text><text x="0" y="29.832199010851156" font-family="Helvetica, Segoe UI Emoji" font-size="9.163814866760184px" fill="#000000" text-anchor="start" style="white-space: pre;" direction="ltr">Engine</text></g><g stroke-linecap="round"><g transform="translate(668.5924112430312 264.0891490611923) rotate(0 -0.028436210259997097 11.527114332659949)" fill-rule="evenodd"><path d="M-0.02 0 L-10.18 5.77 L-10.18 17.28 L-0.04 23.05 L10.12 17.24 L10.12 5.66 L-0.02 0" stroke="none" stroke-width="0" fill="#aecbfa" fill-rule="evenodd"></path><path d="M-0.02 0 C-2.23 1.25, -4.43 2.51, -10.18 5.77 M-0.02 0 C-3.97 2.24, -7.92 4.48, -10.18 5.77 M-10.18 5.77 C-10.18 8.7, -10.18 11.64, -10.18 17.28 M-10.18 5.77 C-10.18 9.73, -10.18 13.69, -10.18 17.28 M-10.18 17.28 C-7.23 18.96, -4.29 20.63, -0.04 23.05 M-10.18 17.28 C-7.01 19.08, -3.84 20.89, -0.04 23.05 M-0.04 23.05 C3.1 21.26, 6.24 19.46, 10.12 17.24 M-0.04 23.05 C2.08 21.84, 4.2 20.63, 10.12 17.24 M10.12 17.24 C10.12 13.38, 10.12 9.53, 10.12 5.66 M10.12 17.24 C10.12 14.91, 10.12 12.57, 10.12 5.66 M10.12 5.66 C6.93 3.88, 3.75 2.1, -0.02 0 M10.12 5.66 C7.4 4.14, 4.68 2.63, -0.02 0 M-0.02 0 C-0.02 0, -0.02 0, -0.02 0 M-0.02 0 C-0.02 0, -0.02 0, -0.02 0" stroke="#00000000" stroke-width="1" fill="none"></path></g></g><g stroke-linecap="round"><g transform="translate(668.5941176509236 266.5971407082707) rotate(0 -0.030142527117050122 9.015908309202871)" fill-rule="evenodd"><path d="M-0.02 0 L-7.99 4.53 L-7.99 13.5 L-0.05 18.03 L7.93 13.47 L7.93 4.44 L-0.02 0" stroke="none" stroke-width="0" fill="#fff" fill-rule="evenodd"></path><path d="M-0.02 0 C-2.22 1.25, -4.43 2.51, -7.99 4.53 M-0.02 0 C-3.1 1.75, -6.19 3.51, -7.99 4.53 M-7.99 4.53 C-7.99 7.65, -7.99 10.76, -7.99 13.5 M-7.99 4.53 C-7.99 8.1, -7.99 11.66, -7.99 13.5 M-7.99 13.5 C-5.47 14.94, -2.94 16.38, -0.05 18.03 M-7.99 13.5 C-5.69 14.81, -3.39 16.13, -0.05 18.03 M-0.05 18.03 C1.72 17.02, 3.49 16.01, 7.93 13.47 M-0.05 18.03 C1.77 16.99, 3.59 15.95, 7.93 13.47 M7.93 13.47 C7.93 10.32, 7.93 7.17, 7.93 4.44 M7.93 13.47 C7.93 11.18, 7.93 8.9, 7.93 4.44 M7.93 4.44 C5.54 3.1, 3.15 1.77, -0.02 0 M7.93 4.44 C4.89 2.74, 1.84 1.04, -0.02 0 M-0.02 0 C-0.02 0, -0.02 0, -0.02 0 M-0.02 0 C-0.02 0, -0.02 0, -0.02 0" stroke="#00000000" stroke-width="1" fill="none"></path></g></g><g stroke-linecap="round"><g transform="translate(669.0720041723248 275.89535406758625) rotate(0 2.2539770317835064 1.3382433371441493)" fill-rule="evenodd"><path d="M0 -0.01 L0 5.35 L4.51 2.71 L4.51 -2.67 L0 -0.01" stroke="none" stroke-width="0" fill="#4285f4" fill-rule="evenodd"></path><path d="M0 -0.01 C0 2.06, 0 4.12, 0 5.35 M0 -0.01 C0 1.23, 0 2.48, 0 5.35 M0 5.35 C0.93 4.8, 1.87 4.25, 4.51 2.71 M0 5.35 C1.56 4.43, 3.13 3.52, 4.51 2.71 M4.51 2.71 C4.51 1.42, 4.51 0.14, 4.51 -2.67 M4.51 2.71 C4.51 0.77, 4.51 -1.17, 4.51 -2.67 M4.51 -2.67 C3.24 -1.92, 1.97 -1.17, 0 -0.01 M4.51 -2.67 C3.43 -2.04, 2.36 -1.4, 0 -0.01 M0 -0.01 C0 -0.01, 0 -0.01, 0 -0.01 M0 -0.01 C0 -0.01, 0 -0.01, 0 -0.01" stroke="#00000000" stroke-width="1" fill="none"></path></g></g><g stroke-linecap="round"><g transform="translate(663.9531297002627 272.35835983558945) rotate(0 4.610846151821761 0.003945864440368041)" fill-rule="evenodd"><path d="M0 -0.01 L4.57 2.64 L9.22 -0.01 L4.57 -2.64 L0 -0.01" stroke="none" stroke-width="0" fill="#aecbfa" fill-rule="evenodd"></path><path d="M0 -0.01 C1.55 0.89, 3.11 1.79, 4.57 2.64 M0 -0.01 C1.76 1.01, 3.51 2.03, 4.57 2.64 M4.57 2.64 C5.81 1.94, 7.05 1.23, 9.22 -0.01 M4.57 2.64 C5.76 1.96, 6.95 1.28, 9.22 -0.01 M9.22 -0.01 C8.19 -0.59, 7.17 -1.17, 4.57 -2.64 M9.22 -0.01 C7.47 -1, 5.71 -1.99, 4.57 -2.64 M4.57 -2.64 C3.21 -1.85, 1.85 -1.07, 0 -0.01 M4.57 -2.64 C3.39 -1.95, 2.2 -1.27, 0 -0.01 M0 -0.01 C0 -0.01, 0 -0.01, 0 -0.01 M0 -0.01 C0 -0.01, 0 -0.01, 0 -0.01" stroke="#00000000" stroke-width="1" fill="none"></path></g></g><g stroke-linecap="round"><g transform="translate(663.5223390337819 273.24653335450546) rotate(0 2.221753301112358 3.999925379186891)" fill-rule="evenodd"><path d="M0 0 L4.48 2.68 L4.48 8 L-0.03 5.27 L0 0" stroke="none" stroke-width="0" fill="#669df6" fill-rule="evenodd"></path><path d="M0 0 C0.96 0.57, 1.92 1.15, 4.48 2.68 M0 0 C0.94 0.56, 1.88 1.12, 4.48 2.68 M4.48 2.68 C4.48 4.6, 4.48 6.53, 4.48 8 M4.48 2.68 C4.48 3.83, 4.48 4.99, 4.48 8 M4.48 8 C3.05 7.14, 1.63 6.28, -0.03 5.27 M4.48 8 C3.47 7.39, 2.46 6.78, -0.03 5.27 M-0.03 5.27 C-0.02 3.34, -0.01 1.41, 0 0 M-0.03 5.27 C-0.03 4.09, -0.02 2.91, 0 0 M0 0 C0 0, 0 0, 0 0 M0 0 C0 0, 0 0, 0 0" stroke="#00000000" stroke-width="1" fill="none"></path></g></g><g stroke-linecap="round"><g transform="translate(669.074247845555 270.3737249393929) rotate(0 -0.519918718461895 -1.8923753228854139)" fill-rule="evenodd"><path d="M0 -0.01 L0 -3.5 L-0.5 -3.78 L-1.04 -3.46 L-1.04 -0.01 L0 -0.01" stroke="none" stroke-width="0" fill="#aecbfa" fill-rule="evenodd"></path><path d="M0 -0.01 C0 -1.35, 0 -2.68, 0 -3.5 M0 -0.01 C0 -0.85, 0 -1.69, 0 -3.5 M0 -3.5 C-0.15 -3.58, -0.29 -3.66, -0.5 -3.78 M0 -3.5 C-0.13 -3.57, -0.26 -3.64, -0.5 -3.78 M-0.5 -3.78 C-0.71 -3.65, -0.92 -3.53, -1.04 -3.46 M-0.5 -3.78 C-0.64 -3.69, -0.79 -3.61, -1.04 -3.46 M-1.04 -3.46 C-1.04 -2.32, -1.04 -1.18, -1.04 -0.01 M-1.04 -3.46 C-1.04 -2.72, -1.04 -1.97, -1.04 -0.01 M-1.04 -0.01 C-0.83 -0.01, -0.61 -0.01, 0 -0.01 M-1.04 -0.01 C-0.65 -0.01, -0.25 -0.01, 0 -0.01 M0 -0.01 C0 -0.01, 0 -0.01, 0 -0.01 M0 -0.01 C0 -0.01, 0 -0.01, 0 -0.01" stroke="#00000000" stroke-width="1" fill="none"></path></g></g><g stroke-linecap="round"><g transform="translate(676.5342151347841 279.6368782504993) rotate(0 -2.079675605278453 -0.6830566128426199)" fill-rule="evenodd"><path d="M-0.01 0 L-3.67 -2.13 L-4.15 -1.3 L-0.6 0.77 L-0.01 0.43 L-0.01 0" stroke="none" stroke-width="0" fill="#4285f4" fill-rule="evenodd"></path><path d="M-0.01 0 C-1.08 -0.63, -2.15 -1.25, -3.67 -2.13 M-0.01 0 C-1.1 -0.64, -2.19 -1.27, -3.67 -2.13 M-3.67 -2.13 C-3.8 -1.9, -3.94 -1.67, -4.15 -1.3 M-3.67 -2.13 C-3.84 -1.83, -4.02 -1.53, -4.15 -1.3 M-4.15 -1.3 C-3.2 -0.74, -2.25 -0.19, -0.6 0.77 M-4.15 -1.3 C-3.18 -0.73, -2.21 -0.17, -0.6 0.77 M-0.6 0.77 C-0.47 0.69, -0.34 0.62, -0.01 0.43 M-0.6 0.77 C-0.4 0.65, -0.21 0.54, -0.01 0.43 M-0.01 0.43 C-0.01 0.3, -0.01 0.18, -0.01 0 M-0.01 0.43 C-0.01 0.26, -0.01 0.1, -0.01 0 M-0.01 0 C-0.01 0, -0.01 0, -0.01 0 M-0.01 0 C-0.01 0, -0.01 0, -0.01 0" stroke="#00000000" stroke-width="1" fill="none"></path></g></g><g stroke-linecap="round"><g transform="translate(664.1343966792915 277.5229798553621) rotate(0 -1.5220783661720816 1.4501337757395731)" fill-rule="evenodd"><path d="M-0.01 0 L-3.53 2.12 L-3.53 2.57 L-2.96 2.9 L0.49 0.83 L-0.01 0" stroke="none" stroke-width="0" fill="#669df6" fill-rule="evenodd"></path><path d="M-0.01 0 C-1.21 0.72, -2.4 1.44, -3.53 2.12 M-0.01 0 C-0.72 0.43, -1.43 0.85, -3.53 2.12 M-3.53 2.12 C-3.53 2.24, -3.53 2.36, -3.53 2.57 M-3.53 2.12 C-3.53 2.21, -3.53 2.3, -3.53 2.57 M-3.53 2.57 C-3.4 2.65, -3.26 2.73, -2.96 2.9 M-3.53 2.57 C-3.34 2.69, -3.14 2.8, -2.96 2.9 M-2.96 2.9 C-2.26 2.48, -1.56 2.06, 0.49 0.83 M-2.96 2.9 C-1.75 2.17, -0.54 1.45, 0.49 0.83 M0.49 0.83 C0.31 0.54, 0.14 0.25, -0.01 0 M0.49 0.83 C0.29 0.5, 0.09 0.17, -0.01 0 M-0.01 0 C-0.01 0, -0.01 0, -0.01 0 M-0.01 0 C-0.01 0, -0.01 0, -0.01 0" stroke="#00000000" stroke-width="1" fill="none"></path></g></g><g stroke-linecap="round" transform="translate(451.82322996207677 247.30332376054844) rotate(0 62.33887664462691 28.052494490082154)"><path d="M14.03 0 L110.65 0 L116.79 0.88 L119.2 1.97 L122.71 5.48 L124.46 10.74 L124.68 42.08 L123.8 48.22 L122.71 50.63 L119.2 54.13 L113.94 55.89 L110.65 56.1 L14.03 56.1 L7.89 55.23 L3.51 52.6 L1.97 50.63 L0.22 45.37 L0.22 10.74 L1.97 5.48 L5.48 1.97 L10.74 0.22 L14.03 0" stroke="none" stroke-width="0" fill="#FFF"></path><path d="M14.03 0 M14.03 0 C44.21 0, 74.39 0, 110.65 0 M14.03 0 C47.23 0, 80.44 0, 110.65 0 M110.65 0 C120 0, 124.68 4.68, 124.68 14.03 M110.65 0 C120 0, 124.68 4.68, 124.68 14.03 M124.68 14.03 C124.68 19.88, 124.68 25.73, 124.68 42.08 M124.68 14.03 C124.68 23.88, 124.68 33.73, 124.68 42.08 M124.68 42.08 C124.68 51.43, 120 56.1, 110.65 56.1 M124.68 42.08 C124.68 51.43, 120 56.1, 110.65 56.1 M110.65 56.1 C91.17 56.1, 71.68 56.1, 14.03 56.1 M110.65 56.1 C72.35 56.1, 34.05 56.1, 14.03 56.1 M14.03 56.1 C4.68 56.1, 0 51.43, 0 42.08 M14.03 56.1 C4.68 56.1, 0 51.43, 0 42.08 M0 42.08 C0 34.56, 0 27.04, 0 14.03 M0 42.08 C0 33.68, 0 25.29, 0 14.03 M0 14.03 C0 4.68, 4.68 0, 14.03 0 M0 14.03 C0 4.68, 4.68 0, 14.03 0" stroke="#4285f4" stroke-width="2" fill="none"></path></g><g transform="translate(502.4735672358411 269.90116654422445) rotate(0 28.468087001046342 6.649480175426902)"><text x="0" y="11.29896035085375" font-family="Helvetica, Segoe UI Emoji" font-size="11.63659030699703px" fill="#000000" text-anchor="start" style="white-space: pre;" direction="ltr">Cloud SQL</text></g><g stroke-linecap="round"><g transform="translate(469.53266603866496 273.7350075173209) rotate(0 3.807866280147209 3.5896809773224163)" fill-rule="evenodd"><path d="M0 0 L0 3.13 L7.62 7.18 L7.62 4.05 L0 0 L0 0" stroke="none" stroke-width="0" fill="#aecbfa" fill-rule="evenodd"></path><path d="M0 0 C0 0.72, 0 1.45, 0 3.13 M0 0 C0 0.65, 0 1.3, 0 3.13 M0 3.13 C2.64 4.53, 5.28 5.94, 7.62 7.18 M0 3.13 C1.82 4.09, 3.63 5.06, 7.62 7.18 M7.62 7.18 C7.62 6.05, 7.62 4.92, 7.62 4.05 M7.62 7.18 C7.62 6.3, 7.62 5.42, 7.62 4.05 M7.62 4.05 C5.8 3.08, 3.98 2.12, 0 0 M7.62 4.05 C5.61 2.98, 3.6 1.92, 0 0 M0 0 C0 0, 0 0, 0 0 M0 0 C0 0, 0 0, 0 0 M0 0 C0 0, 0 0, 0 0 M0 0 C0 0, 0 0, 0 0" stroke="#00000000" stroke-width="1" fill="none"></path></g></g><g stroke-linecap="round"><g transform="translate(469.53266603866496 278.5662710517888) rotate(0 3.807866280147209 3.5896802341851526)" fill-rule="evenodd"><path d="M0 0 L0 3.13 L7.62 7.18 L7.62 4.05 L0 0 L0 0" stroke="none" stroke-width="0" fill="#aecbfa" fill-rule="evenodd"></path><path d="M0 0 C0 1.2, 0 2.4, 0 3.13 M0 0 C0 0.83, 0 1.66, 0 3.13 M0 3.13 C1.95 4.16, 3.9 5.2, 7.62 7.18 M0 3.13 C1.68 4.02, 3.37 4.92, 7.62 7.18 M7.62 7.18 C7.62 6, 7.62 4.82, 7.62 4.05 M7.62 7.18 C7.62 6.25, 7.62 5.32, 7.62 4.05 M7.62 4.05 C5.64 3, 3.67 1.95, 0 0 M7.62 4.05 C6.05 3.22, 4.48 2.39, 0 0 M0 0 C0 0, 0 0, 0 0 M0 0 C0 0, 0 0, 0 0 M0 0 C0 0, 0 0, 0 0 M0 0 C0 0, 0 0, 0 0" stroke="#00000000" stroke-width="1" fill="none"></path></g></g><g stroke-linecap="round"><g transform="translate(477.1483985989612 280.78602922948846) rotate(0 3.8078668375001143 -3.461340734844498)" fill-rule="evenodd"><path d="M0 0.13 L7.62 -3.92 L7.62 -7.05 L0 -3 L0 0.13 L0 0.13" stroke="none" stroke-width="0" fill="#669df6" fill-rule="evenodd"></path><path d="M0 0.13 C1.6 -0.72, 3.2 -1.58, 7.62 -3.92 M0 0.13 C2.75 -1.34, 5.51 -2.8, 7.62 -3.92 M7.62 -3.92 C7.62 -4.6, 7.62 -5.28, 7.62 -7.05 M7.62 -3.92 C7.62 -4.91, 7.62 -5.9, 7.62 -7.05 M7.62 -7.05 C5.91 -6.14, 4.2 -5.24, 0 -3 M7.62 -7.05 C4.82 -5.57, 2.03 -4.08, 0 -3 M0 -3 C0 -2.3, 0 -1.6, 0 0.13 M0 -3 C0 -1.99, 0 -0.98, 0 0.13 M0 0.13 C0 0.13, 0 0.13, 0 0.13 M0 0.13 C0 0.13, 0 0.13, 0 0.13 M0 0.13 C0 0.13, 0 0.13, 0 0.13 M0 0.13 C0 0.13, 0 0.13, 0 0.13" stroke="#00000000" stroke-width="1" fill="none"></path></g></g><g stroke-linecap="round"><g transform="translate(477.1483985989612 285.61729130424965) rotate(0 3.8078668375001143 -3.4613400182761893)" fill-rule="evenodd"><path d="M0 0.13 L7.62 -3.92 L7.62 -7.05 L0 -3 L0 0.13 L0 0.13" stroke="none" stroke-width="0" fill="#669df6" fill-rule="evenodd"></path><path d="M0 0.13 C1.84 -0.85, 3.68 -1.83, 7.62 -3.92 M0 0.13 C2.2 -1.04, 4.39 -2.21, 7.62 -3.92 M7.62 -3.92 C7.62 -4.73, 7.62 -5.54, 7.62 -7.05 M7.62 -3.92 C7.62 -5.15, 7.62 -6.39, 7.62 -7.05 M7.62 -7.05 C5.54 -5.95, 3.47 -4.85, 0 -3 M7.62 -7.05 C5.1 -5.71, 2.59 -4.38, 0 -3 M0 -3 C0 -2.33, 0 -1.65, 0 0.13 M0 -3 C0 -2.36, 0 -1.72, 0 0.13 M0 0.13 C0 0.13, 0 0.13, 0 0.13 M0 0.13 C0 0.13, 0 0.13, 0 0.13 M0 0.13 C0 0.13, 0 0.13, 0 0.13 M0 0.13 C0 0.13, 0 0.13, 0 0.13" stroke="#00000000" stroke-width="1" fill="none"></path></g></g><g stroke-linecap="round"><g transform="translate(484.6279913309818 272.017025973376) rotate(0 -3.6717258945204776 -3.4613401078472634)" fill-rule="evenodd"><path d="M0.14 0.13 L0.14 -3 L-7.48 -7.05 L-7.48 -3.92 L0.14 0.13 L0.14 0.13" stroke="none" stroke-width="0" fill="#4285f4" fill-rule="evenodd"></path><path d="M0.14 0.13 C0.14 -0.8, 0.14 -1.74, 0.14 -3 M0.14 0.13 C0.14 -0.74, 0.14 -1.6, 0.14 -3 M0.14 -3 C-2.62 -4.46, -5.37 -5.93, -7.48 -7.05 M0.14 -3 C-1.91 -4.09, -3.95 -5.17, -7.48 -7.05 M-7.48 -7.05 C-7.48 -6.2, -7.48 -5.35, -7.48 -3.92 M-7.48 -7.05 C-7.48 -6.37, -7.48 -5.68, -7.48 -3.92 M-7.48 -3.92 C-4.94 -2.57, -2.4 -1.22, 0.14 0.13 M-7.48 -3.92 C-5.3 -2.76, -3.12 -1.61, 0.14 0.13 M0.14 0.13 C0.14 0.13, 0.14 0.13, 0.14 0.13 M0.14 0.13 C0.14 0.13, 0.14 0.13, 0.14 0.13 M0.14 0.13 C0.14 0.13, 0.14 0.13, 0.14 0.13 M0.14 0.13 C0.14 0.13, 0.14 0.13, 0.14 0.13" stroke="#00000000" stroke-width="1" fill="none"></path></g></g><g stroke-linecap="round"><g transform="translate(477.01225767591177 264.9660055384518) rotate(0 -3.6717253570946013 3.5896803270773034)" fill-rule="evenodd"><path d="M0.14 0 L-7.48 4.05 L-7.48 7.18 L0.14 3.13 L0.14 0 L0.14 0" stroke="none" stroke-width="0" fill="#669df6" fill-rule="evenodd"></path><path d="M0.14 0 C-1.4 0.82, -2.93 1.63, -7.48 4.05 M0.14 0 C-1.87 1.07, -3.88 2.14, -7.48 4.05 M-7.48 4.05 C-7.48 4.68, -7.48 5.31, -7.48 7.18 M-7.48 4.05 C-7.48 4.79, -7.48 5.53, -7.48 7.18 M-7.48 7.18 C-4.86 5.79, -2.25 4.39, 0.14 3.13 M-7.48 7.18 C-5.93 6.36, -4.39 5.53, 0.14 3.13 M0.14 3.13 C0.14 2.03, 0.14 0.93, 0.14 0 M0.14 3.13 C0.14 2.03, 0.14 0.94, 0.14 0 M0.14 0 C0.14 0, 0.14 0, 0.14 0 M0.14 0 C0.14 0, 0.14 0, 0.14 0 M0.14 0 C0.14 0, 0.14 0, 0.14 0 M0.14 0 C0.14 0, 0.14 0, 0.14 0" stroke="#00000000" stroke-width="1" fill="none"></path></g></g><g stroke-linecap="round"><g transform="translate(469.53266603866496 268.98686314891347) rotate(0 3.807866280147209 3.59487513561794)" fill-rule="evenodd"><path d="M0 0 L0 3.14 L7.62 7.19 L7.62 4.05 L0 0 L0 0" stroke="none" stroke-width="0" fill="#aecbfa" fill-rule="evenodd"></path><path d="M0 0 C0 1.02, 0 2.04, 0 3.14 M0 0 C0 1, 0 1.99, 0 3.14 M0 3.14 C1.84 4.12, 3.68 5.09, 7.62 7.19 M0 3.14 C3.03 4.75, 6.06 6.36, 7.62 7.19 M7.62 7.19 C7.62 6.44, 7.62 5.69, 7.62 4.05 M7.62 7.19 C7.62 6.28, 7.62 5.38, 7.62 4.05 M7.62 4.05 C5.3 2.82, 2.99 1.59, 0 0 M7.62 4.05 C5.55 2.96, 3.49 1.86, 0 0 M0 0 C0 0, 0 0, 0 0 M0 0 C0 0, 0 0, 0 0 M0 0 C0 0, 0 0, 0 0 M0 0 C0 0, 0 0, 0 0" stroke="#00000000" stroke-width="1" fill="none"></path></g></g><g stroke-linecap="round"><g transform="translate(477.1483985989612 276.0480874732767) rotate(0 3.8078668375001143 -3.4663491887446867)" fill-rule="evenodd"><path d="M0 0.13 L7.62 -3.92 L7.62 -7.06 L0 -3.01 L0 0.13 L0 0.13" stroke="none" stroke-width="0" fill="#669df6" fill-rule="evenodd"></path><path d="M0 0.13 C1.6 -0.72, 3.2 -1.57, 7.62 -3.92 M0 0.13 C1.94 -0.9, 3.88 -1.93, 7.62 -3.92 M7.62 -3.92 C7.62 -4.66, 7.62 -5.39, 7.62 -7.06 M7.62 -3.92 C7.62 -5.06, 7.62 -6.2, 7.62 -7.06 M7.62 -7.06 C5.67 -6.02, 3.72 -4.99, 0 -3.01 M7.62 -7.06 C5.18 -5.77, 2.75 -4.47, 0 -3.01 M0 -3.01 C0 -2.18, 0 -1.36, 0 0.13 M0 -3.01 C0 -1.87, 0 -0.73, 0 0.13 M0 0.13 C0 0.13, 0 0.13, 0 0.13 M0 0.13 C0 0.13, 0 0.13, 0 0.13 M0 0.13 C0 0.13, 0 0.13, 0 0.13 M0 0.13 C0 0.13, 0 0.13, 0 0.13" stroke="#00000000" stroke-width="1" fill="none"></path></g></g><g transform="translate(354.14397693626097 22.467775328925313) rotate(0 75.85602306373698 13.23662147420913)"><text x="0" y="21.47324294841828" font-family="Helvetica, Segoe UI Emoji" font-size="22.6384968850662px" fill="#000000" text-anchor="start" style="white-space: pre;" direction="ltr">Petsera CI/CD </text></g><g stroke-linecap="round" transform="translate(256.66791335515245 111.82016518622402) rotate(0 58.82942877426285 26.47324294841826)"><path d="M13.24 0 L104.42 0 L110.21 0.83 L114.35 3.31 L115.8 5.17 L117.45 10.13 L117.66 39.71 L116.83 45.5 L115.8 47.78 L112.49 51.09 L104.42 52.95 L13.24 52.95 L7.45 52.12 L3.31 49.64 L1.86 47.78 L0.21 42.81 L0.21 10.13 L1.86 5.17 L5.17 1.86 L13.24 0" stroke="none" stroke-width="0" fill="#FFF"></path><path d="M13.24 0 M13.24 0 C40.19 0, 67.15 0, 104.42 0 M13.24 0 C48.72 0, 84.2 0, 104.42 0 M104.42 0 C113.25 0, 117.66 4.41, 117.66 13.24 M104.42 0 C113.25 0, 117.66 4.41, 117.66 13.24 M117.66 13.24 C117.66 20.51, 117.66 27.78, 117.66 39.71 M117.66 13.24 C117.66 21.31, 117.66 29.39, 117.66 39.71 M117.66 39.71 C117.66 48.53, 113.25 52.95, 104.42 52.95 M117.66 39.71 C117.66 48.53, 113.25 52.95, 104.42 52.95 M104.42 52.95 C78.2 52.95, 51.98 52.95, 13.24 52.95 M104.42 52.95 C78.78 52.95, 53.14 52.95, 13.24 52.95 M13.24 52.95 C4.41 52.95, 0 48.53, 0 39.71 M13.24 52.95 C4.41 52.95, 0 48.53, 0 39.71 M0 39.71 C0 31.32, 0 22.93, 0 13.24 M0 39.71 C0 33.59, 0 27.47, 0 13.24 M0 13.24 C0 4.41, 4.41 0, 13.24 0 M0 13.24 C0 4.41, 4.41 0, 13.24 0" stroke="#4285f4" stroke-width="2" fill="none"></path></g><g transform="translate(304.4668242342391 127.99825809914671) rotate(0 31.253134036327083 10.295150035496022)"><text x="0" y="8.295150035495997" font-family="Helvetica, Segoe UI Emoji" font-size="8.824414316139425px" fill="#000000" text-anchor="start" style="white-space: pre;" direction="ltr">Cloud Source</text><text x="0" y="18.590300070991994" font-family="Helvetica, Segoe UI Emoji" font-size="8.824414316139425px" fill="#000000" text-anchor="start" style="white-space: pre;" direction="ltr">Repositories</text></g><g stroke-linecap="round"><g transform="translate(297.32374465395606 128.54978399390507) rotate(0 -16.75637585926279 9.743624140737268)" fill-rule="evenodd"><path d="M-7.01 0 L-7.01 19.49 L-26.5 19.49 L-26.5 0 L-7.01 0 L-7.01 0" stroke="none" stroke-width="0" fill="#4285f4" fill-rule="evenodd"></path><path d="M-7.01 0 C-7.01 7.65, -7.01 15.3, -7.01 19.49 M-7.01 0 C-7.01 4.59, -7.01 9.18, -7.01 19.49 M-7.01 19.49 C-12.8 19.49, -18.59 19.49, -26.5 19.49 M-7.01 19.49 C-12.05 19.49, -17.09 19.49, -26.5 19.49 M-26.5 19.49 C-26.5 14.99, -26.5 10.5, -26.5 0 M-26.5 19.49 C-26.5 14, -26.5 8.5, -26.5 0 M-26.5 0 C-20.65 0, -14.8 0, -7.01 0 M-26.5 0 C-19.54 0, -12.58 0, -7.01 0 M-7.01 0 C-7.01 0, -7.01 0, -7.01 0 M-7.01 0 C-7.01 0, -7.01 0, -7.01 0 M-7.01 0 C-7.01 0, -7.01 0, -7.01 0 M-7.01 0 C-7.01 0, -7.01 0, -7.01 0" stroke="transparent" stroke-width="1" fill="none"></path></g></g><g stroke-linecap="round"><g transform="translate(283.26496264986145 133.0447201764482) rotate(0 -2.6975936798419298 4.871811719717925)" fill-rule="evenodd"><path d="M-2.7 0 L-2.7 0 L-3.02 0.01 L-3.34 0.05 L-3.65 0.11 L-3.95 0.2 L-4.24 0.3 L-4.51 0.43 L-4.78 0.58 L-5.03 0.74 L-5.27 0.93 L-5.5 1.13 L-5.71 1.35 L-5.9 1.58 L-6.08 1.83 L-6.24 2.09 L-6.37 2.36 L-6.49 2.65 L-6.65 2.65 L-6.65 2.65 L-6.83 2.65 L-7.01 2.67 L-7.19 2.69 L-7.36 2.72 L-7.53 2.76 L-7.7 2.81 L-8.03 2.93 L-8.34 3.08 L-8.63 3.25 L-8.9 3.46 L-9.15 3.69 L-9.38 3.94 L-9.59 4.21 L-9.77 4.5 L-9.91 4.82 L-10.03 5.14 L-10.08 5.31 L-10.12 5.48 L-10.15 5.66 L-10.18 5.83 L-10.19 6.01 L-10.19 6.2 L-10.19 6.38 L-10.18 6.56 L-10.15 6.74 L-10.12 6.91 L-10.08 7.08 L-10.03 7.25 L-9.91 7.58 L-9.77 7.89 L-9.59 8.18 L-9.38 8.45 L-9.15 8.7 L-8.9 8.93 L-8.63 9.14 L-8.34 9.32 L-8.03 9.46 L-7.7 9.58 L-7.53 9.63 L-7.36 9.67 L-7.19 9.7 L-7.01 9.73 L-6.83 9.74 L-6.65 9.74 L1.25 9.74 L1.25 9.74 L1.43 9.74 L1.61 9.73 L1.79 9.7 L1.97 9.67 L2.14 9.63 L2.3 9.58 L2.63 9.46 L2.94 9.32 L3.23 9.14 L3.51 8.93 L3.76 8.7 L3.99 8.45 L4.19 8.18 L4.37 7.89 L4.52 7.58 L4.64 7.25 L4.69 7.08 L4.73 6.91 L4.76 6.74 L4.78 6.56 L4.79 6.38 L4.8 6.2 L4.79 6.01 L4.78 5.83 L4.76 5.66 L4.73 5.48 L4.69 5.31 L4.64 5.14 L4.52 4.82 L4.37 4.5 L4.19 4.21 L3.99 3.94 L3.76 3.69 L3.51 3.46 L3.23 3.25 L2.94 3.08 L2.63 2.93 L2.3 2.81 L2.14 2.76 L1.97 2.72 L1.79 2.69 L1.61 2.67 L1.43 2.65 L1.25 2.65 L1.09 2.65 L1.09 2.65 L0.98 2.36 L0.84 2.09 L0.68 1.83 L0.51 1.58 L0.32 1.35 L0.11 1.13 L-0.12 0.93 L-0.36 0.74 L-0.61 0.58 L-0.88 0.43 L-1.16 0.3 L-1.45 0.2 L-1.75 0.11 L-2.06 0.05 L-2.37 0.01 L-2.7 0 L-2.7 0" stroke="none" stroke-width="0" fill="#4285f4" fill-rule="evenodd"></path><path d="M-2.7 0 C-2.7 0, -2.7 0, -2.7 0 M-2.7 0 C-2.7 0, -2.7 0, -2.7 0 M-2.7 0 C-2.78 0, -2.87 0.01, -3.02 0.01 M-2.7 0 C-2.81 0, -2.92 0.01, -3.02 0.01 M-3.02 0.01 C-3.14 0.03, -3.27 0.04, -3.34 0.05 M-3.02 0.01 C-3.15 0.03, -3.27 0.04, -3.34 0.05 M-3.34 0.05 C-3.43 0.07, -3.53 0.09, -3.65 0.11 M-3.34 0.05 C-3.44 0.07, -3.54 0.09, -3.65 0.11 M-3.65 0.11 C-3.73 0.14, -3.81 0.16, -3.95 0.2 M-3.65 0.11 C-3.74 0.14, -3.83 0.16, -3.95 0.2 M-3.95 0.2 C-4.01 0.22, -4.08 0.25, -4.24 0.3 M-3.95 0.2 C-4.05 0.24, -4.16 0.27, -4.24 0.3 M-4.24 0.3 C-4.29 0.33, -4.35 0.36, -4.51 0.43 M-4.24 0.3 C-4.32 0.34, -4.41 0.38, -4.51 0.43 M-4.51 0.43 C-4.57 0.46, -4.63 0.5, -4.78 0.58 M-4.51 0.43 C-4.57 0.46, -4.63 0.5, -4.78 0.58 M-4.78 0.58 C-4.86 0.63, -4.93 0.68, -5.03 0.74 M-4.78 0.58 C-4.87 0.64, -4.96 0.69, -5.03 0.74 M-5.03 0.74 C-5.11 0.8, -5.19 0.86, -5.27 0.93 M-5.03 0.74 C-5.09 0.78, -5.14 0.82, -5.27 0.93 M-5.27 0.93 C-5.34 0.98, -5.4 1.04, -5.5 1.13 M-5.27 0.93 C-5.35 1, -5.43 1.07, -5.5 1.13 M-5.5 1.13 C-5.56 1.2, -5.63 1.26, -5.71 1.35 M-5.5 1.13 C-5.57 1.2, -5.64 1.28, -5.71 1.35 M-5.71 1.35 C-5.78 1.43, -5.85 1.52, -5.9 1.58 M-5.71 1.35 C-5.78 1.44, -5.85 1.52, -5.9 1.58 M-5.9 1.58 C-5.94 1.64, -5.98 1.69, -6.08 1.83 M-5.9 1.58 C-5.96 1.66, -6.02 1.74, -6.08 1.83 M-6.08 1.83 C-6.14 1.93, -6.2 2.03, -6.24 2.09 M-6.08 1.83 C-6.13 1.91, -6.17 1.98, -6.24 2.09 M-6.24 2.09 C-6.27 2.16, -6.31 2.24, -6.37 2.36 M-6.24 2.09 C-6.27 2.15, -6.3 2.22, -6.37 2.36 M-6.37 2.36 C-6.41 2.45, -6.44 2.53, -6.49 2.65 M-6.37 2.36 C-6.41 2.46, -6.45 2.55, -6.49 2.65 M-6.49 2.65 C-6.54 2.65, -6.58 2.65, -6.65 2.65 M-6.49 2.65 C-6.53 2.65, -6.57 2.65, -6.65 2.65 M-6.65 2.65 C-6.65 2.65, -6.65 2.65, -6.65 2.65 M-6.65 2.65 C-6.65 2.65, -6.65 2.65, -6.65 2.65 M-6.65 2.65 C-6.7 2.65, -6.76 2.65, -6.83 2.65 M-6.65 2.65 C-6.69 2.65, -6.74 2.65, -6.83 2.65 M-6.83 2.65 C-6.87 2.65, -6.91 2.66, -7.01 2.67 M-6.83 2.65 C-6.89 2.66, -6.95 2.66, -7.01 2.67 M-7.01 2.67 C-7.08 2.67, -7.15 2.68, -7.19 2.69 M-7.01 2.67 C-7.06 2.67, -7.1 2.68, -7.19 2.69 M-7.19 2.69 C-7.25 2.7, -7.31 2.71, -7.36 2.72 M-7.19 2.69 C-7.22 2.69, -7.26 2.7, -7.36 2.72 M-7.36 2.72 C-7.42 2.73, -7.47 2.75, -7.53 2.76 M-7.36 2.72 C-7.4 2.73, -7.44 2.74, -7.53 2.76 M-7.53 2.76 C-7.59 2.78, -7.65 2.79, -7.7 2.81 M-7.53 2.76 C-7.57 2.77, -7.6 2.78, -7.7 2.81 M-7.7 2.81 C-7.77 2.83, -7.84 2.86, -8.03 2.93 M-7.7 2.81 C-7.82 2.85, -7.95 2.9, -8.03 2.93 M-8.03 2.93 C-8.15 2.98, -8.27 3.04, -8.34 3.08 M-8.03 2.93 C-8.09 2.96, -8.16 2.99, -8.34 3.08 M-8.34 3.08 C-8.41 3.12, -8.48 3.17, -8.63 3.25 M-8.34 3.08 C-8.42 3.13, -8.51 3.18, -8.63 3.25 M-8.63 3.25 C-8.72 3.32, -8.81 3.39, -8.9 3.46 M-8.63 3.25 C-8.7 3.31, -8.78 3.37, -8.9 3.46 M-8.9 3.46 C-8.99 3.54, -9.08 3.62, -9.15 3.69 M-8.9 3.46 C-8.98 3.53, -9.06 3.6, -9.15 3.69 M-9.15 3.69 C-9.21 3.75, -9.27 3.82, -9.38 3.94 M-9.15 3.69 C-9.21 3.74, -9.26 3.8, -9.38 3.94 M-9.38 3.94 C-9.45 4.03, -9.51 4.11, -9.59 4.21 M-9.38 3.94 C-9.46 4.04, -9.54 4.15, -9.59 4.21 M-9.59 4.21 C-9.65 4.31, -9.71 4.41, -9.77 4.5 M-9.59 4.21 C-9.63 4.28, -9.67 4.34, -9.77 4.5 M-9.77 4.5 C-9.8 4.59, -9.84 4.67, -9.91 4.82 M-9.77 4.5 C-9.81 4.6, -9.86 4.69, -9.91 4.82 M-9.91 4.82 C-9.96 4.93, -10 5.04, -10.03 5.14 M-9.91 4.82 C-9.95 4.9, -9.98 4.99, -10.03 5.14 M-10.03 5.14 C-10.04 5.18, -10.06 5.22, -10.08 5.31 M-10.03 5.14 C-10.05 5.19, -10.06 5.24, -10.08 5.31 M-10.08 5.31 C-10.1 5.37, -10.11 5.43, -10.12 5.48 M-10.08 5.31 C-10.09 5.35, -10.1 5.39, -10.12 5.48 M-10.12 5.48 C-10.13 5.53, -10.14 5.59, -10.15 5.66 M-10.12 5.48 C-10.13 5.54, -10.14 5.6, -10.15 5.66 M-10.15 5.66 C-10.16 5.71, -10.17 5.76, -10.18 5.83 M-10.15 5.66 C-10.16 5.71, -10.17 5.76, -10.18 5.83 M-10.18 5.83 C-10.18 5.9, -10.19 5.96, -10.19 6.01 M-10.18 5.83 C-10.18 5.9, -10.19 5.96, -10.19 6.01 M-10.19 6.01 C-10.19 6.07, -10.19 6.13, -10.19 6.2 M-10.19 6.01 C-10.19 6.06, -10.19 6.11, -10.19 6.2 M-10.19 6.2 C-10.19 6.25, -10.19 6.3, -10.19 6.38 M-10.19 6.2 C-10.19 6.26, -10.19 6.32, -10.19 6.38 M-10.19 6.38 C-10.19 6.42, -10.18 6.46, -10.18 6.56 M-10.19 6.38 C-10.19 6.42, -10.18 6.45, -10.18 6.56 M-10.18 6.56 C-10.17 6.62, -10.16 6.68, -10.15 6.74 M-10.18 6.56 C-10.17 6.6, -10.16 6.64, -10.15 6.74 M-10.15 6.74 C-10.14 6.8, -10.13 6.86, -10.12 6.91 M-10.15 6.74 C-10.14 6.79, -10.13 6.85, -10.12 6.91 M-10.12 6.91 C-10.11 6.96, -10.1 7.01, -10.08 7.08 M-10.12 6.91 C-10.11 6.96, -10.1 7.02, -10.08 7.08 M-10.08 7.08 C-10.06 7.15, -10.05 7.21, -10.03 7.25 M-10.08 7.08 C-10.07 7.12, -10.06 7.15, -10.03 7.25 M-10.03 7.25 C-9.99 7.36, -9.95 7.47, -9.91 7.58 M-10.03 7.25 C-9.99 7.36, -9.95 7.47, -9.91 7.58 M-9.91 7.58 C-9.86 7.68, -9.81 7.78, -9.77 7.89 M-9.91 7.58 C-9.86 7.69, -9.8 7.81, -9.77 7.89 M-9.77 7.89 C-9.72 7.96, -9.67 8.04, -9.59 8.18 M-9.77 7.89 C-9.73 7.95, -9.69 8.01, -9.59 8.18 M-9.59 8.18 C-9.54 8.24, -9.49 8.3, -9.38 8.45 M-9.59 8.18 C-9.54 8.24, -9.5 8.29, -9.38 8.45 M-9.38 8.45 C-9.31 8.53, -9.23 8.62, -9.15 8.7 M-9.38 8.45 C-9.3 8.54, -9.22 8.63, -9.15 8.7 M-9.15 8.7 C-9.06 8.79, -8.96 8.88, -8.9 8.93 M-9.15 8.7 C-9.07 8.78, -8.98 8.87, -8.9 8.93 M-8.9 8.93 C-8.83 8.99, -8.75 9.05, -8.63 9.14 M-8.9 8.93 C-8.82 9, -8.73 9.06, -8.63 9.14 M-8.63 9.14 C-8.54 9.19, -8.44 9.25, -8.34 9.32 M-8.63 9.14 C-8.54 9.19, -8.46 9.24, -8.34 9.32 M-8.34 9.32 C-8.21 9.37, -8.09 9.43, -8.03 9.46 M-8.34 9.32 C-8.23 9.37, -8.13 9.42, -8.03 9.46 M-8.03 9.46 C-7.94 9.5, -7.85 9.53, -7.7 9.58 M-8.03 9.46 C-7.95 9.49, -7.87 9.52, -7.7 9.58 M-7.7 9.58 C-7.66 9.59, -7.62 9.61, -7.53 9.63 M-7.7 9.58 C-7.66 9.59, -7.62 9.61, -7.53 9.63 M-7.53 9.63 C-7.48 9.64, -7.43 9.65, -7.36 9.67 M-7.53 9.63 C-7.49 9.64, -7.45 9.65, -7.36 9.67 M-7.36 9.67 C-7.31 9.68, -7.26 9.69, -7.19 9.7 M-7.36 9.67 C-7.32 9.68, -7.27 9.69, -7.19 9.7 M-7.19 9.7 C-7.13 9.71, -7.08 9.72, -7.01 9.73 M-7.19 9.7 C-7.15 9.71, -7.11 9.71, -7.01 9.73 M-7.01 9.73 C-6.95 9.73, -6.9 9.73, -6.83 9.74 M-7.01 9.73 C-6.96 9.73, -6.91 9.73, -6.83 9.74 M-6.83 9.74 C-6.78 9.74, -6.74 9.74, -6.65 9.74 M-6.83 9.74 C-6.77 9.74, -6.7 9.74, -6.65 9.74 M-6.65 9.74 C-4.93 9.74, -3.21 9.74, 1.25 9.74 M-6.65 9.74 C-3.61 9.74, -0.57 9.74, 1.25 9.74 M1.25 9.74 C1.25 9.74, 1.25 9.74, 1.25 9.74 M1.25 9.74 C1.25 9.74, 1.25 9.74, 1.25 9.74 M1.25 9.74 C1.32 9.74, 1.39 9.74, 1.43 9.74 M1.25 9.74 C1.3 9.74, 1.36 9.74, 1.43 9.74 M1.43 9.74 C1.5 9.73, 1.57 9.73, 1.61 9.73 M1.43 9.74 C1.48 9.74, 1.52 9.73, 1.61 9.73 M1.61 9.73 C1.67 9.72, 1.72 9.71, 1.79 9.7 M1.61 9.73 C1.68 9.72, 1.74 9.71, 1.79 9.7 M1.79 9.7 C1.85 9.69, 1.92 9.68, 1.97 9.67 M1.79 9.7 C1.85 9.69, 1.92 9.68, 1.97 9.67 M1.97 9.67 C2.03 9.66, 2.1 9.64, 2.14 9.63 M1.97 9.67 C2.01 9.66, 2.06 9.65, 2.14 9.63 M2.14 9.63 C2.19 9.62, 2.25 9.6, 2.3 9.58 M2.14 9.63 C2.19 9.62, 2.24 9.6, 2.3 9.58 M2.3 9.58 C2.41 9.54, 2.52 9.51, 2.63 9.46 M2.3 9.58 C2.4 9.55, 2.49 9.52, 2.63 9.46 M2.63 9.46 C2.73 9.41, 2.84 9.37, 2.94 9.32 M2.63 9.46 C2.71 9.43, 2.79 9.39, 2.94 9.32 M2.94 9.32 C3.04 9.26, 3.13 9.2, 3.23 9.14 M2.94 9.32 C3.04 9.26, 3.14 9.2, 3.23 9.14 M3.23 9.14 C3.3 9.09, 3.37 9.04, 3.51 8.93 M3.23 9.14 C3.29 9.09, 3.35 9.05, 3.51 8.93 M3.51 8.93 C3.59 8.86, 3.67 8.78, 3.76 8.7 M3.51 8.93 C3.57 8.87, 3.64 8.81, 3.76 8.7 M3.76 8.7 C3.82 8.64, 3.87 8.58, 3.99 8.45 M3.76 8.7 C3.82 8.64, 3.88 8.57, 3.99 8.45 M3.99 8.45 C4.05 8.37, 4.12 8.28, 4.19 8.18 M3.99 8.45 C4.04 8.38, 4.1 8.3, 4.19 8.18 M4.19 8.18 C4.25 8.08, 4.31 7.98, 4.37 7.89 M4.19 8.18 C4.26 8.07, 4.32 7.97, 4.37 7.89 M4.37 7.89 C4.41 7.81, 4.44 7.74, 4.52 7.58 M4.37 7.89 C4.41 7.81, 4.45 7.73, 4.52 7.58 M4.52 7.58 C4.56 7.45, 4.61 7.33, 4.64 7.25 M4.52 7.58 C4.56 7.46, 4.6 7.35, 4.64 7.25 M4.64 7.25 C4.65 7.2, 4.67 7.15, 4.69 7.08 M4.64 7.25 C4.65 7.21, 4.66 7.16, 4.69 7.08 M4.69 7.08 C4.7 7.04, 4.71 6.99, 4.73 6.91 M4.69 7.08 C4.7 7.03, 4.71 6.98, 4.73 6.91 M4.73 6.91 C4.73 6.87, 4.74 6.82, 4.76 6.74 M4.73 6.91 C4.74 6.84, 4.75 6.77, 4.76 6.74 M4.76 6.74 C4.76 6.7, 4.77 6.66, 4.78 6.56 M4.76 6.74 C4.77 6.67, 4.78 6.6, 4.78 6.56 M4.78 6.56 C4.78 6.5, 4.79 6.44, 4.79 6.38 M4.78 6.56 C4.79 6.49, 4.79 6.43, 4.79 6.38 M4.79 6.38 C4.79 6.34, 4.8 6.3, 4.8 6.2 M4.79 6.38 C4.8 6.33, 4.8 6.28, 4.8 6.2 M4.8 6.2 C4.8 6.15, 4.8 6.1, 4.79 6.01 M4.8 6.2 C4.8 6.14, 4.8 6.08, 4.79 6.01 M4.79 6.01 C4.79 5.95, 4.78 5.88, 4.78 5.83 M4.79 6.01 C4.79 5.97, 4.79 5.93, 4.78 5.83 M4.78 5.83 C4.77 5.78, 4.77 5.73, 4.76 5.66 M4.78 5.83 C4.77 5.77, 4.76 5.7, 4.76 5.66 M4.76 5.66 C4.75 5.59, 4.73 5.52, 4.73 5.48 M4.76 5.66 C4.75 5.61, 4.74 5.57, 4.73 5.48 M4.73 5.48 C4.71 5.41, 4.7 5.35, 4.69 5.31 M4.73 5.48 C4.71 5.42, 4.7 5.35, 4.69 5.31 M4.69 5.31 C4.67 5.26, 4.66 5.2, 4.64 5.14 M4.69 5.31 C4.67 5.24, 4.65 5.18, 4.64 5.14 M4.64 5.14 C4.59 5.01, 4.54 4.88, 4.52 4.82 M4.64 5.14 C4.61 5.06, 4.58 4.98, 4.52 4.82 M4.52 4.82 C4.47 4.71, 4.42 4.61, 4.37 4.5 M4.52 4.82 C4.47 4.7, 4.41 4.59, 4.37 4.5 M4.37 4.5 C4.32 4.42, 4.27 4.34, 4.19 4.21 M4.37 4.5 C4.32 4.43, 4.28 4.35, 4.19 4.21 M4.19 4.21 C4.11 4.11, 4.04 4, 3.99 3.94 M4.19 4.21 C4.12 4.11, 4.04 4.01, 3.99 3.94 M3.99 3.94 C3.92 3.86, 3.85 3.78, 3.76 3.69 M3.99 3.94 C3.94 3.88, 3.89 3.83, 3.76 3.69 M3.76 3.69 C3.66 3.6, 3.56 3.51, 3.51 3.46 M3.76 3.69 C3.7 3.63, 3.64 3.58, 3.51 3.46 M3.51 3.46 C3.44 3.41, 3.37 3.36, 3.23 3.25 M3.51 3.46 C3.45 3.42, 3.4 3.38, 3.23 3.25 M3.23 3.25 C3.17 3.22, 3.11 3.18, 2.94 3.08 M3.23 3.25 C3.13 3.19, 3.03 3.13, 2.94 3.08 M2.94 3.08 C2.83 3.02, 2.72 2.97, 2.63 2.93 M2.94 3.08 C2.86 3.04, 2.78 3, 2.63 2.93 M2.63 2.93 C2.55 2.9, 2.47 2.87, 2.3 2.81 M2.63 2.93 C2.55 2.9, 2.47 2.87, 2.3 2.81 M2.3 2.81 C2.26 2.8, 2.22 2.78, 2.14 2.76 M2.3 2.81 C2.25 2.79, 2.2 2.78, 2.14 2.76 M2.14 2.76 C2.09 2.75, 2.04 2.74, 1.97 2.72 M2.14 2.76 C2.1 2.75, 2.05 2.74, 1.97 2.72 M1.97 2.72 C1.9 2.71, 1.83 2.7, 1.79 2.69 M1.97 2.72 C1.92 2.71, 1.87 2.7, 1.79 2.69 M1.79 2.69 C1.75 2.68, 1.71 2.68, 1.61 2.67 M1.79 2.69 C1.75 2.68, 1.7 2.68, 1.61 2.67 M1.61 2.67 C1.55 2.66, 1.49 2.66, 1.43 2.65 M1.61 2.67 C1.56 2.66, 1.5 2.66, 1.43 2.65 M1.43 2.65 C1.37 2.65, 1.3 2.65, 1.25 2.65 M1.43 2.65 C1.38 2.65, 1.32 2.65, 1.25 2.65 M1.25 2.65 C1.21 2.65, 1.18 2.65, 1.09 2.65 M1.25 2.65 C1.2 2.65, 1.15 2.65, 1.09 2.65 M1.09 2.65 C1.09 2.65, 1.09 2.65, 1.09 2.65 M1.09 2.65 C1.09 2.65, 1.09 2.65, 1.09 2.65 M1.09 2.65 C1.06 2.58, 1.03 2.5, 0.98 2.36 M1.09 2.65 C1.06 2.56, 1.02 2.47, 0.98 2.36 M0.98 2.36 C0.94 2.28, 0.89 2.2, 0.84 2.09 M0.98 2.36 C0.94 2.28, 0.89 2.19, 0.84 2.09 M0.84 2.09 C0.79 2.01, 0.75 1.94, 0.68 1.83 M0.84 2.09 C0.79 2.01, 0.75 1.94, 0.68 1.83 M0.68 1.83 C0.64 1.77, 0.6 1.71, 0.51 1.58 M0.68 1.83 C0.64 1.77, 0.6 1.72, 0.51 1.58 M0.51 1.58 C0.43 1.49, 0.36 1.4, 0.32 1.35 M0.51 1.58 C0.45 1.52, 0.4 1.45, 0.32 1.35 M0.32 1.35 C0.27 1.3, 0.22 1.25, 0.11 1.13 M0.32 1.35 C0.24 1.27, 0.17 1.2, 0.11 1.13 M0.11 1.13 C0.06 1.09, 0.01 1.05, -0.12 0.93 M0.11 1.13 C0.04 1.07, -0.03 1.01, -0.12 0.93 M-0.12 0.93 C-0.2 0.87, -0.28 0.81, -0.36 0.74 M-0.12 0.93 C-0.21 0.86, -0.31 0.78, -0.36 0.74 M-0.36 0.74 C-0.41 0.71, -0.47 0.67, -0.61 0.58 M-0.36 0.74 C-0.42 0.7, -0.48 0.66, -0.61 0.58 M-0.61 0.58 C-0.7 0.53, -0.79 0.48, -0.88 0.43 M-0.61 0.58 C-0.68 0.54, -0.74 0.51, -0.88 0.43 M-0.88 0.43 C-0.96 0.39, -1.04 0.36, -1.16 0.3 M-0.88 0.43 C-0.98 0.39, -1.08 0.34, -1.16 0.3 M-1.16 0.3 C-1.22 0.28, -1.29 0.26, -1.45 0.2 M-1.16 0.3 C-1.26 0.27, -1.36 0.23, -1.45 0.2 M-1.45 0.2 C-1.53 0.17, -1.62 0.15, -1.75 0.11 M-1.45 0.2 C-1.56 0.17, -1.66 0.14, -1.75 0.11 M-1.75 0.11 C-1.84 0.09, -1.92 0.08, -2.06 0.05 M-1.75 0.11 C-1.85 0.09, -1.95 0.07, -2.06 0.05 M-2.06 0.05 C-2.16 0.04, -2.25 0.03, -2.37 0.01 M-2.06 0.05 C-2.17 0.04, -2.29 0.02, -2.37 0.01 M-2.37 0.01 C-2.44 0.01, -2.51 0.01, -2.7 0 M-2.37 0.01 C-2.5 0.01, -2.62 0, -2.7 0 M-2.7 0 C-2.7 0, -2.7 0, -2.7 0 M-2.7 0 C-2.7 0, -2.7 0, -2.7 0 M-2.7 0 C-2.7 0, -2.7 0, -2.7 0 M-2.7 0 C-2.7 0, -2.7 0, -2.7 0" stroke="transparent" stroke-width="1" fill="none"></path></g></g><g stroke-linecap="round"><g transform="translate(277.8962130313312 136.64471960424362) rotate(0 2.6711559386883437 1.2718122919225152)" fill-rule="evenodd"><path d="M-1.28 -0.95 L-1.12 -0.95 L-1.12 -0.95 L-1 -1.24 L-0.87 -1.51 L-0.71 -1.77 L-0.53 -2.02 L-0.34 -2.25 L-0.13 -2.47 L0.09 -2.67 L0.33 -2.86 L0.59 -3.02 L0.85 -3.17 L1.13 -3.3 L1.42 -3.4 L1.72 -3.49 L2.03 -3.55 L2.35 -3.59 L2.67 -3.6 L2.99 -3.59 L3.31 -3.55 L3.62 -3.49 L3.92 -3.4 L4.21 -3.3 L4.49 -3.17 L4.75 -3.02 L5.01 -2.86 L5.25 -2.67 L5.47 -2.47 L5.68 -2.25 L5.88 -2.02 L6.05 -1.77 L6.21 -1.51 L6.35 -1.24 L6.46 -0.95 L6.62 -0.95 L6.62 -0.95 L6.8 -0.95 L6.98 -0.93 L7.16 -0.91 L7.33 -0.88 L7.51 -0.84 L7.67 -0.79 L8 -0.67 L8.31 -0.52 L8.6 -0.35 L8.88 -0.14 L9.13 0.09 L9.36 0.34 L9.56 0.61 L9.74 0.9 L9.89 1.22 L10.01 1.54 L10.06 1.71 L10.1 1.88 L10.13 2.06 L10.15 2.23 L10.16 2.41 L10.17 2.6 L10.16 2.78 L10.15 2.96 L10.13 3.14 L10.1 3.31 L10.06 3.48 L10.01 3.65 L9.89 3.98 L9.74 4.29 L9.56 4.58 L9.36 4.85 L9.13 5.1 L8.88 5.33 L8.6 5.54 L8.31 5.72 L8 5.86 L7.67 5.98 L7.51 6.03 L7.33 6.07 L7.16 6.1 L6.98 6.13 L6.8 6.14 L6.62 6.14 L-1.28 6.14 L-1.28 6.14 L-1.46 6.14 L-1.64 6.13 L-1.82 6.1 L-1.99 6.07 L-2.16 6.03 L-2.33 5.98 L-2.66 5.86 L-2.97 5.72 L-3.26 5.54 L-3.53 5.33 L-3.79 5.1 L-4.01 4.85 L-4.22 4.58 L-4.4 4.29 L-4.55 3.98 L-4.67 3.65 L-4.71 3.48 L-4.75 3.31 L-4.78 3.14 L-4.81 2.96 L-4.82 2.78 L-4.83 2.6 L-4.82 2.41 L-4.81 2.23 L-4.78 2.06 L-4.75 1.88 L-4.71 1.71 L-4.67 1.54 L-4.55 1.22 L-4.4 0.9 L-4.22 0.61 L-4.01 0.34 L-3.79 0.09 L-3.53 -0.14 L-3.26 -0.35 L-2.97 -0.52 L-2.66 -0.67 L-2.33 -0.79 L-2.16 -0.84 L-1.99 -0.88 L-1.82 -0.91 L-1.64 -0.93 L-1.46 -0.95 L-1.28 -0.95 L-1.28 -0.95" stroke="none" stroke-width="0" fill="#fff" fill-rule="evenodd"></path><path d="M-1.28 -0.95 C-1.24 -0.95, -1.2 -0.95, -1.12 -0.95 M-1.28 -0.95 C-1.23 -0.95, -1.19 -0.95, -1.12 -0.95 M-1.12 -0.95 C-1.12 -0.95, -1.12 -0.95, -1.12 -0.95 M-1.12 -0.95 C-1.12 -0.95, -1.12 -0.95, -1.12 -0.95 M-1.12 -0.95 C-1.09 -1.03, -1.06 -1.11, -1 -1.24 M-1.12 -0.95 C-1.08 -1.05, -1.04 -1.15, -1 -1.24 M-1 -1.24 C-0.96 -1.32, -0.92 -1.4, -0.87 -1.51 M-1 -1.24 C-0.97 -1.3, -0.94 -1.37, -0.87 -1.51 M-0.87 -1.51 C-0.82 -1.58, -0.78 -1.66, -0.71 -1.77 M-0.87 -1.51 C-0.82 -1.59, -0.77 -1.68, -0.71 -1.77 M-0.71 -1.77 C-0.65 -1.86, -0.59 -1.94, -0.53 -2.02 M-0.71 -1.77 C-0.65 -1.85, -0.59 -1.93, -0.53 -2.02 M-0.53 -2.02 C-0.47 -2.1, -0.4 -2.17, -0.34 -2.25 M-0.53 -2.02 C-0.49 -2.07, -0.45 -2.12, -0.34 -2.25 M-0.34 -2.25 C-0.28 -2.32, -0.21 -2.39, -0.13 -2.47 M-0.34 -2.25 C-0.27 -2.32, -0.2 -2.4, -0.13 -2.47 M-0.13 -2.47 C-0.07 -2.52, -0.01 -2.58, 0.09 -2.67 M-0.13 -2.47 C-0.07 -2.52, -0.01 -2.58, 0.09 -2.67 M0.09 -2.67 C0.15 -2.71, 0.2 -2.76, 0.33 -2.86 M0.09 -2.67 C0.17 -2.73, 0.25 -2.79, 0.33 -2.86 M0.33 -2.86 C0.43 -2.92, 0.52 -2.98, 0.59 -3.02 M0.33 -2.86 C0.43 -2.92, 0.53 -2.98, 0.59 -3.02 M0.59 -3.02 C0.66 -3.06, 0.74 -3.1, 0.85 -3.17 M0.59 -3.02 C0.65 -3.06, 0.72 -3.1, 0.85 -3.17 M0.85 -3.17 C0.94 -3.21, 1.03 -3.25, 1.13 -3.3 M0.85 -3.17 C0.93 -3.2, 1 -3.24, 1.13 -3.3 M1.13 -3.3 C1.21 -3.32, 1.28 -3.35, 1.42 -3.4 M1.13 -3.3 C1.24 -3.34, 1.35 -3.38, 1.42 -3.4 M1.42 -3.4 C1.5 -3.42, 1.57 -3.44, 1.72 -3.49 M1.42 -3.4 C1.53 -3.43, 1.63 -3.46, 1.72 -3.49 M1.72 -3.49 C1.81 -3.5, 1.89 -3.52, 2.03 -3.55 M1.72 -3.49 C1.8 -3.5, 1.88 -3.52, 2.03 -3.55 M2.03 -3.55 C2.12 -3.56, 2.21 -3.57, 2.35 -3.59 M2.03 -3.55 C2.11 -3.56, 2.19 -3.57, 2.35 -3.59 M2.35 -3.59 C2.43 -3.59, 2.52 -3.59, 2.67 -3.6 M2.35 -3.59 C2.47 -3.59, 2.58 -3.6, 2.67 -3.6 M2.67 -3.6 C2.8 -3.6, 2.92 -3.59, 2.99 -3.59 M2.67 -3.6 C2.78 -3.6, 2.89 -3.59, 2.99 -3.59 M2.99 -3.59 C3.09 -3.58, 3.18 -3.57, 3.31 -3.55 M2.99 -3.59 C3.08 -3.58, 3.17 -3.57, 3.31 -3.55 M3.31 -3.55 C3.41 -3.53, 3.52 -3.51, 3.62 -3.49 M3.31 -3.55 C3.41 -3.53, 3.51 -3.51, 3.62 -3.49 M3.62 -3.49 C3.68 -3.47, 3.75 -3.45, 3.92 -3.4 M3.62 -3.49 C3.7 -3.46, 3.78 -3.44, 3.92 -3.4 M3.92 -3.4 C4.02 -3.37, 4.12 -3.33, 4.21 -3.3 M3.92 -3.4 C3.99 -3.38, 4.07 -3.35, 4.21 -3.3 M4.21 -3.3 C4.28 -3.27, 4.34 -3.24, 4.49 -3.17 M4.21 -3.3 C4.3 -3.25, 4.39 -3.21, 4.49 -3.17 M4.49 -3.17 C4.59 -3.11, 4.7 -3.05, 4.75 -3.02 M4.49 -3.17 C4.59 -3.11, 4.7 -3.05, 4.75 -3.02 M4.75 -3.02 C4.85 -2.96, 4.95 -2.89, 5.01 -2.86 M4.75 -3.02 C4.85 -2.96, 4.94 -2.9, 5.01 -2.86 M5.01 -2.86 C5.09 -2.79, 5.18 -2.72, 5.25 -2.67 M5.01 -2.86 C5.07 -2.8, 5.14 -2.75, 5.25 -2.67 M5.25 -2.67 C5.33 -2.59, 5.42 -2.52, 5.47 -2.47 M5.25 -2.67 C5.32 -2.61, 5.39 -2.54, 5.47 -2.47 M5.47 -2.47 C5.53 -2.41, 5.59 -2.35, 5.68 -2.25 M5.47 -2.47 C5.53 -2.41, 5.59 -2.35, 5.68 -2.25 M5.68 -2.25 C5.76 -2.16, 5.83 -2.07, 5.88 -2.02 M5.68 -2.25 C5.75 -2.17, 5.81 -2.09, 5.88 -2.02 M5.88 -2.02 C5.92 -1.96, 5.96 -1.9, 6.05 -1.77 M5.88 -2.02 C5.92 -1.96, 5.96 -1.9, 6.05 -1.77 M6.05 -1.77 C6.1 -1.7, 6.14 -1.63, 6.21 -1.51 M6.05 -1.77 C6.11 -1.67, 6.18 -1.56, 6.21 -1.51 M6.21 -1.51 C6.25 -1.42, 6.3 -1.33, 6.35 -1.24 M6.21 -1.51 C6.24 -1.44, 6.28 -1.38, 6.35 -1.24 M6.35 -1.24 C6.39 -1.14, 6.43 -1.04, 6.46 -0.95 M6.35 -1.24 C6.37 -1.17, 6.4 -1.11, 6.46 -0.95 M6.46 -0.95 C6.51 -0.95, 6.55 -0.95, 6.62 -0.95 M6.46 -0.95 C6.5 -0.95, 6.54 -0.95, 6.62 -0.95 M6.62 -0.95 C6.62 -0.95, 6.62 -0.95, 6.62 -0.95 M6.62 -0.95 C6.62 -0.95, 6.62 -0.95, 6.62 -0.95 M6.62 -0.95 C6.66 -0.95, 6.7 -0.95, 6.8 -0.95 M6.62 -0.95 C6.67 -0.95, 6.72 -0.95, 6.8 -0.95 M6.8 -0.95 C6.86 -0.94, 6.92 -0.94, 6.98 -0.93 M6.8 -0.95 C6.85 -0.94, 6.9 -0.94, 6.98 -0.93 M6.98 -0.93 C7.04 -0.93, 7.1 -0.92, 7.16 -0.91 M6.98 -0.93 C7.04 -0.93, 7.1 -0.92, 7.16 -0.91 M7.16 -0.91 C7.2 -0.9, 7.24 -0.9, 7.33 -0.88 M7.16 -0.91 C7.2 -0.9, 7.25 -0.9, 7.33 -0.88 M7.33 -0.88 C7.4 -0.87, 7.47 -0.85, 7.51 -0.84 M7.33 -0.88 C7.4 -0.87, 7.46 -0.85, 7.51 -0.84 M7.51 -0.84 C7.56 -0.83, 7.61 -0.81, 7.67 -0.79 M7.51 -0.84 C7.55 -0.83, 7.6 -0.82, 7.67 -0.79 M7.67 -0.79 C7.8 -0.75, 7.92 -0.7, 8 -0.67 M7.67 -0.79 C7.79 -0.75, 7.9 -0.71, 8 -0.67 M8 -0.67 C8.08 -0.63, 8.17 -0.59, 8.31 -0.52 M8 -0.67 C8.1 -0.62, 8.21 -0.57, 8.31 -0.52 M8.31 -0.52 C8.4 -0.47, 8.5 -0.41, 8.6 -0.35 M8.31 -0.52 C8.39 -0.48, 8.47 -0.43, 8.6 -0.35 M8.6 -0.35 C8.66 -0.3, 8.72 -0.26, 8.88 -0.14 M8.6 -0.35 C8.66 -0.3, 8.72 -0.26, 8.88 -0.14 M8.88 -0.14 C8.95 -0.08, 9.02 -0.01, 9.13 0.09 M8.88 -0.14 C8.93 -0.09, 8.99 -0.03, 9.13 0.09 M9.13 0.09 C9.22 0.19, 9.31 0.29, 9.36 0.34 M9.13 0.09 C9.2 0.17, 9.27 0.24, 9.36 0.34 M9.36 0.34 C9.42 0.42, 9.48 0.5, 9.56 0.61 M9.36 0.34 C9.43 0.43, 9.5 0.53, 9.56 0.61 M9.56 0.61 C9.61 0.69, 9.66 0.77, 9.74 0.9 M9.56 0.61 C9.6 0.67, 9.63 0.73, 9.74 0.9 M9.74 0.9 C9.78 0.99, 9.82 1.07, 9.89 1.22 M9.74 0.9 C9.77 0.97, 9.8 1.03, 9.89 1.22 M9.89 1.22 C9.91 1.28, 9.94 1.35, 10.01 1.54 M9.89 1.22 C9.93 1.32, 9.96 1.42, 10.01 1.54 M10.01 1.54 C10.02 1.59, 10.03 1.63, 10.06 1.71 M10.01 1.54 C10.02 1.58, 10.03 1.62, 10.06 1.71 M10.06 1.71 C10.06 1.75, 10.07 1.78, 10.1 1.88 M10.06 1.71 C10.06 1.75, 10.07 1.79, 10.1 1.88 M10.1 1.88 C10.1 1.93, 10.11 1.97, 10.13 2.06 M10.1 1.88 C10.11 1.95, 10.12 2.01, 10.13 2.06 M10.13 2.06 C10.13 2.09, 10.14 2.13, 10.15 2.23 M10.13 2.06 C10.13 2.12, 10.14 2.19, 10.15 2.23 M10.15 2.23 C10.15 2.3, 10.16 2.36, 10.16 2.41 M10.15 2.23 C10.15 2.29, 10.16 2.35, 10.16 2.41 M10.16 2.41 C10.16 2.48, 10.17 2.54, 10.17 2.6 M10.16 2.41 C10.16 2.48, 10.17 2.54, 10.17 2.6 M10.17 2.6 C10.17 2.66, 10.16 2.72, 10.16 2.78 M10.17 2.6 C10.17 2.65, 10.16 2.7, 10.16 2.78 M10.16 2.78 C10.16 2.83, 10.16 2.88, 10.15 2.96 M10.16 2.78 C10.16 2.85, 10.15 2.91, 10.15 2.96 M10.15 2.96 C10.14 3.03, 10.13 3.09, 10.13 3.14 M10.15 2.96 C10.14 3.02, 10.13 3.08, 10.13 3.14 M10.13 3.14 C10.12 3.18, 10.11 3.23, 10.1 3.31 M10.13 3.14 C10.12 3.18, 10.11 3.23, 10.1 3.31 M10.1 3.31 C10.08 3.36, 10.07 3.41, 10.06 3.48 M10.1 3.31 C10.09 3.35, 10.08 3.38, 10.06 3.48 M10.06 3.48 C10.04 3.54, 10.02 3.6, 10.01 3.65 M10.06 3.48 C10.04 3.53, 10.03 3.57, 10.01 3.65 M10.01 3.65 C9.97 3.75, 9.94 3.84, 9.89 3.98 M10.01 3.65 C9.98 3.73, 9.95 3.81, 9.89 3.98 M9.89 3.98 C9.84 4.08, 9.79 4.19, 9.74 4.29 M9.89 3.98 C9.86 4.04, 9.83 4.1, 9.74 4.29 M9.74 4.29 C9.7 4.36, 9.65 4.43, 9.56 4.58 M9.74 4.29 C9.69 4.36, 9.64 4.44, 9.56 4.58 M9.56 4.58 C9.49 4.68, 9.41 4.78, 9.36 4.85 M9.56 4.58 C9.5 4.66, 9.43 4.75, 9.36 4.85 M9.36 4.85 C9.27 4.95, 9.19 5.04, 9.13 5.1 M9.36 4.85 C9.28 4.94, 9.2 5.02, 9.13 5.1 M9.13 5.1 C9.03 5.19, 8.93 5.28, 8.88 5.33 M9.13 5.1 C9.07 5.16, 9.01 5.21, 8.88 5.33 M8.88 5.33 C8.82 5.37, 8.76 5.42, 8.6 5.54 M8.88 5.33 C8.81 5.38, 8.75 5.43, 8.6 5.54 M8.6 5.54 C8.52 5.59, 8.43 5.64, 8.31 5.72 M8.6 5.54 C8.54 5.57, 8.48 5.61, 8.31 5.72 M8.31 5.72 C8.24 5.75, 8.17 5.78, 8 5.86 M8.31 5.72 C8.22 5.76, 8.13 5.8, 8 5.86 M8 5.86 C7.87 5.91, 7.74 5.96, 7.67 5.98 M8 5.86 C7.91 5.9, 7.81 5.93, 7.67 5.98 M7.67 5.98 C7.61 6, 7.55 6.02, 7.51 6.03 M7.67 5.98 C7.61 6, 7.54 6.02, 7.51 6.03 M7.51 6.03 C7.45 6.04, 7.4 6.06, 7.33 6.07 M7.51 6.03 C7.45 6.05, 7.39 6.06, 7.33 6.07 M7.33 6.07 C7.27 6.08, 7.21 6.09, 7.16 6.1 M7.33 6.07 C7.27 6.08, 7.2 6.1, 7.16 6.1 M7.16 6.1 C7.11 6.11, 7.06 6.12, 6.98 6.13 M7.16 6.1 C7.12 6.11, 7.08 6.11, 6.98 6.13 M6.98 6.13 C6.91 6.13, 6.84 6.14, 6.8 6.14 M6.98 6.13 C6.93 6.13, 6.88 6.13, 6.8 6.14 M6.8 6.14 C6.75 6.14, 6.7 6.14, 6.62 6.14 M6.8 6.14 C6.73 6.14, 6.66 6.14, 6.62 6.14 M6.62 6.14 C4.7 6.14, 2.78 6.14, -1.28 6.14 M6.62 6.14 C4.89 6.14, 3.16 6.14, -1.28 6.14 M-1.28 6.14 C-1.28 6.14, -1.28 6.14, -1.28 6.14 M-1.28 6.14 C-1.28 6.14, -1.28 6.14, -1.28 6.14 M-1.28 6.14 C-1.34 6.14, -1.4 6.14, -1.46 6.14 M-1.28 6.14 C-1.33 6.14, -1.39 6.14, -1.46 6.14 M-1.46 6.14 C-1.53 6.13, -1.6 6.13, -1.64 6.13 M-1.46 6.14 C-1.51 6.14, -1.56 6.13, -1.64 6.13 M-1.64 6.13 C-1.68 6.12, -1.73 6.11, -1.82 6.1 M-1.64 6.13 C-1.68 6.12, -1.73 6.11, -1.82 6.1 M-1.82 6.1 C-1.88 6.09, -1.94 6.08, -1.99 6.07 M-1.82 6.1 C-1.88 6.09, -1.94 6.08, -1.99 6.07 M-1.99 6.07 C-2.04 6.06, -2.09 6.05, -2.16 6.03 M-1.99 6.07 C-2.03 6.06, -2.06 6.06, -2.16 6.03 M-2.16 6.03 C-2.23 6.01, -2.29 6, -2.33 5.98 M-2.16 6.03 C-2.2 6.02, -2.24 6.01, -2.33 5.98 M-2.33 5.98 C-2.42 5.95, -2.52 5.92, -2.66 5.86 M-2.33 5.98 C-2.46 5.94, -2.59 5.89, -2.66 5.86 M-2.66 5.86 C-2.77 5.81, -2.88 5.76, -2.97 5.72 M-2.66 5.86 C-2.77 5.81, -2.89 5.75, -2.97 5.72 M-2.97 5.72 C-3.07 5.65, -3.17 5.59, -3.26 5.54 M-2.97 5.72 C-3.06 5.66, -3.15 5.6, -3.26 5.54 M-3.26 5.54 C-3.34 5.48, -3.41 5.42, -3.53 5.33 M-3.26 5.54 C-3.35 5.47, -3.43 5.41, -3.53 5.33 M-3.53 5.33 C-3.63 5.25, -3.72 5.17, -3.79 5.1 M-3.53 5.33 C-3.6 5.27, -3.67 5.21, -3.79 5.1 M-3.79 5.1 C-3.86 5.02, -3.94 4.93, -4.01 4.85 M-3.79 5.1 C-3.86 5.02, -3.93 4.94, -4.01 4.85 M-4.01 4.85 C-4.07 4.77, -4.13 4.69, -4.22 4.58 M-4.01 4.85 C-4.07 4.77, -4.13 4.69, -4.22 4.58 M-4.22 4.58 C-4.27 4.5, -4.31 4.43, -4.4 4.29 M-4.22 4.58 C-4.28 4.48, -4.33 4.39, -4.4 4.29 M-4.4 4.29 C-4.43 4.21, -4.47 4.13, -4.55 3.98 M-4.4 4.29 C-4.45 4.17, -4.51 4.06, -4.55 3.98 M-4.55 3.98 C-4.57 3.91, -4.59 3.84, -4.67 3.65 M-4.55 3.98 C-4.59 3.85, -4.64 3.72, -4.67 3.65 M-4.67 3.65 C-4.68 3.61, -4.69 3.57, -4.71 3.48 M-4.67 3.65 C-4.68 3.61, -4.69 3.57, -4.71 3.48 M-4.71 3.48 C-4.72 3.44, -4.73 3.4, -4.75 3.31 M-4.71 3.48 C-4.72 3.43, -4.74 3.39, -4.75 3.31 M-4.75 3.31 C-4.76 3.27, -4.77 3.23, -4.78 3.14 M-4.75 3.31 C-4.76 3.27, -4.77 3.23, -4.78 3.14 M-4.78 3.14 C-4.79 3.1, -4.79 3.06, -4.81 2.96 M-4.78 3.14 C-4.79 3.09, -4.8 3.04, -4.81 2.96 M-4.81 2.96 C-4.81 2.92, -4.81 2.88, -4.82 2.78 M-4.81 2.96 C-4.81 2.89, -4.82 2.82, -4.82 2.78 M-4.82 2.78 C-4.82 2.71, -4.82 2.64, -4.83 2.6 M-4.82 2.78 C-4.82 2.72, -4.82 2.67, -4.83 2.6 M-4.83 2.6 C-4.82 2.55, -4.82 2.5, -4.82 2.41 M-4.83 2.6 C-4.82 2.54, -4.82 2.48, -4.82 2.41 M-4.82 2.41 C-4.82 2.35, -4.81 2.28, -4.81 2.23 M-4.82 2.41 C-4.82 2.36, -4.81 2.31, -4.81 2.23 M-4.81 2.23 C-4.8 2.2, -4.8 2.16, -4.78 2.06 M-4.81 2.23 C-4.8 2.17, -4.79 2.1, -4.78 2.06 M-4.78 2.06 C-4.77 2, -4.77 1.95, -4.75 1.88 M-4.78 2.06 C-4.77 1.99, -4.76 1.92, -4.75 1.88 M-4.75 1.88 C-4.74 1.83, -4.73 1.77, -4.71 1.71 M-4.75 1.88 C-4.74 1.83, -4.73 1.78, -4.71 1.71 M-4.71 1.71 C-4.7 1.65, -4.68 1.59, -4.67 1.54 M-4.71 1.71 C-4.7 1.66, -4.69 1.61, -4.67 1.54 M-4.67 1.54 C-4.63 1.45, -4.6 1.35, -4.55 1.22 M-4.67 1.54 C-4.62 1.43, -4.58 1.31, -4.55 1.22 M-4.55 1.22 C-4.51 1.15, -4.48 1.08, -4.4 0.9 M-4.55 1.22 C-4.49 1.1, -4.43 0.98, -4.4 0.9 M-4.4 0.9 C-4.36 0.84, -4.31 0.77, -4.22 0.61 M-4.4 0.9 C-4.33 0.79, -4.26 0.68, -4.22 0.61 M-4.22 0.61 C-4.18 0.55, -4.13 0.5, -4.01 0.34 M-4.22 0.61 C-4.14 0.51, -4.07 0.41, -4.01 0.34 M-4.01 0.34 C-3.95 0.27, -3.88 0.2, -3.79 0.09 M-4.01 0.34 C-3.93 0.25, -3.85 0.16, -3.79 0.09 M-3.79 0.09 C-3.7 0.01, -3.61 -0.08, -3.53 -0.14 M-3.79 0.09 C-3.73 0.04, -3.67 -0.02, -3.53 -0.14 M-3.53 -0.14 C-3.43 -0.22, -3.32 -0.3, -3.26 -0.35 M-3.53 -0.14 C-3.47 -0.19, -3.41 -0.23, -3.26 -0.35 M-3.26 -0.35 C-3.17 -0.4, -3.08 -0.45, -2.97 -0.52 M-3.26 -0.35 C-3.17 -0.4, -3.09 -0.45, -2.97 -0.52 M-2.97 -0.52 C-2.87 -0.57, -2.77 -0.62, -2.66 -0.67 M-2.97 -0.52 C-2.89 -0.56, -2.81 -0.6, -2.66 -0.67 M-2.66 -0.67 C-2.58 -0.7, -2.51 -0.73, -2.33 -0.79 M-2.66 -0.67 C-2.54 -0.71, -2.43 -0.76, -2.33 -0.79 M-2.33 -0.79 C-2.29 -0.81, -2.24 -0.82, -2.16 -0.84 M-2.33 -0.79 C-2.27 -0.81, -2.22 -0.83, -2.16 -0.84 M-2.16 -0.84 C-2.11 -0.85, -2.06 -0.87, -1.99 -0.88 M-2.16 -0.84 C-2.11 -0.85, -2.05 -0.87, -1.99 -0.88 M-1.99 -0.88 C-1.94 -0.89, -1.9 -0.9, -1.82 -0.91 M-1.99 -0.88 C-1.95 -0.89, -1.91 -0.9, -1.82 -0.91 M-1.82 -0.91 C-1.77 -0.92, -1.72 -0.92, -1.64 -0.93 M-1.82 -0.91 C-1.78 -0.92, -1.74 -0.92, -1.64 -0.93 M-1.64 -0.93 C-1.58 -0.94, -1.52 -0.94, -1.46 -0.95 M-1.64 -0.93 C-1.58 -0.94, -1.51 -0.94, -1.46 -0.95 M-1.46 -0.95 C-1.42 -0.95, -1.37 -0.95, -1.28 -0.95 M-1.46 -0.95 C-1.39 -0.95, -1.32 -0.95, -1.28 -0.95 M-1.28 -0.95 C-1.28 -0.95, -1.28 -0.95, -1.28 -0.95 M-1.28 -0.95 C-1.28 -0.95, -1.28 -0.95, -1.28 -0.95 M-1.28 -0.95 C-1.28 -0.95, -1.28 -0.95, -1.28 -0.95 M-1.28 -0.95 C-1.28 -0.95, -1.28 -0.95, -1.28 -0.95" stroke="#00000000" stroke-width="1" fill="none"></path></g></g><g stroke-linecap="round"><g transform="translate(160.31971622995843 140.6692119889883) rotate(0 47.51607708690449 0)"><path d="M0 0 C28.98 0, 57.95 0, 95.03 0 M0 0 C24.63 0, 49.27 0, 95.03 0" stroke="#4c6ef5" stroke-width="2" fill="none"></path></g><g transform="translate(160.31971622995843 140.6692119889883) rotate(0 47.51607708690449 0)"><path d="M66.84 10.26 C75.44 7.13, 84.03 4, 95.03 0 M66.84 10.26 C74.15 7.6, 81.46 4.94, 95.03 0" stroke="#4c6ef5" stroke-width="2" fill="none"></path></g><g transform="translate(160.31971622995843 140.6692119889883) rotate(0 47.51607708690449 0)"><path d="M66.84 -10.26 C75.44 -7.13, 84.03 -4, 95.03 0 M66.84 -10.26 C74.15 -7.6, 81.46 -4.94, 95.03 0" stroke="#4c6ef5" stroke-width="2" fill="none"></path></g></g><g stroke-linecap="round" transform="translate(43.41123404845166 111.3110643602937) rotate(0 59.96076394299803 26.982343774349147)"><path d="M13.49 0 L106.43 0 L112.33 0.84 L114.65 1.9 L118.02 5.27 L119.71 10.33 L119.92 40.47 L119.08 46.38 L118.02 48.69 L114.65 52.07 L112.33 53.12 L106.43 53.96 L13.49 53.96 L7.59 53.12 L5.27 52.07 L1.9 48.69 L0.21 43.64 L0.21 10.33 L1.9 5.27 L5.27 1.9 L10.33 0.21 L13.49 0" stroke="none" stroke-width="0" fill="#DEDEDE"></path><path d="M13.49 0 M13.49 0 C50.16 0, 86.82 0, 106.43 0 M13.49 0 C41.11 0, 68.72 0, 106.43 0 M106.43 0 C115.42 0, 119.92 4.5, 119.92 13.49 M106.43 0 C115.42 0, 119.92 4.5, 119.92 13.49 M119.92 13.49 C119.92 23.52, 119.92 33.55, 119.92 40.47 M119.92 13.49 C119.92 19.71, 119.92 25.93, 119.92 40.47 M119.92 40.47 C119.92 49.47, 115.42 53.96, 106.43 53.96 M119.92 40.47 C119.92 49.47, 115.42 53.96, 106.43 53.96 M106.43 53.96 C76.73 53.96, 47.03 53.96, 13.49 53.96 M106.43 53.96 C78.54 53.96, 50.64 53.96, 13.49 53.96 M13.49 53.96 C4.5 53.96, 0 49.47, 0 40.47 M13.49 53.96 C4.5 53.96, 0 49.47, 0 40.47 M0 40.47 C0 34.87, 0 29.27, 0 13.49 M0 40.47 C0 31.14, 0 21.81, 0 13.49 M0 13.49 C0 4.5, 4.5 0, 13.49 0 M0 13.49 C0 4.5, 4.5 0, 13.49 0" stroke="#000" stroke-width="2" fill="none"></path></g><g transform="translate(92.12935475213453 132.0667134174853) rotate(0 30.7473219754213 6.902460035298645)"><text x="0" y="10.804920070597296" font-family="Helvetica, Segoe UI Emoji" font-size="12.067972511183001px" fill="#000000" text-anchor="start" style="white-space: pre;" direction="ltr">Developers</text></g><g stroke-linecap="round"><g transform="translate(55.77814161169135 126.3012553460436) rotate(0 11.992152788599697 11.99215278859964)" fill-rule="evenodd"><path d="M0 0 L23.98 0 L23.98 23.98 L0 23.98 L0 0" stroke="none" stroke-width="0" fill="#00000000" fill-rule="evenodd"></path><path d="M0 0 C7.81 0, 15.62 0, 23.98 0 M0 0 C7.12 0, 14.25 0, 23.98 0 M23.98 0 C23.98 6.15, 23.98 12.29, 23.98 23.98 M23.98 0 C23.98 7.15, 23.98 14.3, 23.98 23.98 M23.98 23.98 C17.16 23.98, 10.34 23.98, 0 23.98 M23.98 23.98 C18.48 23.98, 12.97 23.98, 0 23.98 M0 23.98 C0 14.74, 0 5.49, 0 0 M0 23.98 C0 16.04, 0 8.09, 0 0 M0 0 C0 0, 0 0, 0 0 M0 0 C0 0, 0 0, 0 0" stroke="#00000000" stroke-width="1" fill="none"></path></g></g><g stroke-linecap="round"><g transform="translate(73.10231954654455 139.9633443134685) rotate(0 -0.8399642186959682 -4.168301104854891)" fill-rule="evenodd"><path d="M-0.83 -1.67 L-0.83 -1.67 L0.14 -1.87 L0.93 -2.4 L1.46 -3.2 L1.65 -4.17 L1.46 -5.14 L0.93 -5.93 L0.14 -6.47 L-0.83 -6.67 L-1.81 -6.47 L-2.6 -5.93 L-3.14 -5.14 L-3.33 -4.17 L-3.14 -3.2 L-2.6 -2.4 L-1.81 -1.87 L-0.83 -1.67 L-0.83 -1.67" stroke="none" stroke-width="0" fill="#000" fill-rule="evenodd"></path><path d="M-0.83 -1.67 C-0.83 -1.67, -0.83 -1.67, -0.83 -1.67 M-0.83 -1.67 C-0.83 -1.67, -0.83 -1.67, -0.83 -1.67 M-0.83 -1.67 C-0.6 -1.72, -0.37 -1.76, 0.14 -1.87 M-0.83 -1.67 C-0.47 -1.74, -0.1 -1.82, 0.14 -1.87 M0.14 -1.87 C0.4 -2.04, 0.66 -2.22, 0.93 -2.4 M0.14 -1.87 C0.36 -2.02, 0.57 -2.16, 0.93 -2.4 M0.93 -2.4 C1.07 -2.61, 1.21 -2.82, 1.46 -3.2 M0.93 -2.4 C1.07 -2.61, 1.21 -2.82, 1.46 -3.2 M1.46 -3.2 C1.5 -3.4, 1.54 -3.6, 1.65 -4.17 M1.46 -3.2 C1.53 -3.55, 1.6 -3.9, 1.65 -4.17 M1.65 -4.17 C1.6 -4.42, 1.55 -4.67, 1.46 -5.14 M1.65 -4.17 C1.59 -4.48, 1.53 -4.79, 1.46 -5.14 M1.46 -5.14 C1.32 -5.34, 1.19 -5.54, 0.93 -5.93 M1.46 -5.14 C1.3 -5.37, 1.15 -5.61, 0.93 -5.93 M0.93 -5.93 C0.63 -6.13, 0.34 -6.33, 0.14 -6.47 M0.93 -5.93 C0.72 -6.08, 0.51 -6.22, 0.14 -6.47 M0.14 -6.47 C-0.22 -6.54, -0.57 -6.61, -0.83 -6.67 M0.14 -6.47 C-0.18 -6.53, -0.5 -6.6, -0.83 -6.67 M-0.83 -6.67 C-1.12 -6.61, -1.4 -6.55, -1.81 -6.47 M-0.83 -6.67 C-1.11 -6.61, -1.39 -6.55, -1.81 -6.47 M-1.81 -6.47 C-1.98 -6.36, -2.14 -6.24, -2.6 -5.93 M-1.81 -6.47 C-2.08 -6.29, -2.35 -6.11, -2.6 -5.93 M-2.6 -5.93 C-2.77 -5.69, -2.93 -5.45, -3.14 -5.14 M-2.6 -5.93 C-2.77 -5.69, -2.93 -5.45, -3.14 -5.14 M-3.14 -5.14 C-3.21 -4.8, -3.27 -4.46, -3.33 -4.17 M-3.14 -5.14 C-3.19 -4.85, -3.25 -4.57, -3.33 -4.17 M-3.33 -4.17 C-3.29 -3.93, -3.24 -3.7, -3.14 -3.2 M-3.33 -4.17 C-3.27 -3.86, -3.21 -3.55, -3.14 -3.2 M-3.14 -3.2 C-2.98 -2.97, -2.83 -2.74, -2.6 -2.4 M-3.14 -3.2 C-2.94 -2.9, -2.74 -2.6, -2.6 -2.4 M-2.6 -2.4 C-2.34 -2.23, -2.08 -2.05, -1.81 -1.87 M-2.6 -2.4 C-2.39 -2.26, -2.19 -2.12, -1.81 -1.87 M-1.81 -1.87 C-1.6 -1.83, -1.4 -1.78, -0.83 -1.67 M-1.81 -1.87 C-1.56 -1.82, -1.31 -1.77, -0.83 -1.67 M-0.83 -1.67 C-0.83 -1.67, -0.83 -1.67, -0.83 -1.67 M-0.83 -1.67 C-0.83 -1.67, -0.83 -1.67, -0.83 -1.67 M-0.83 -1.67 C-0.83 -1.67, -0.83 -1.67, -0.83 -1.67 M-0.83 -1.67 C-0.83 -1.67, -0.83 -1.67, -0.83 -1.67" stroke="#00000000" stroke-width="1" fill="none"></path></g></g><g stroke-linecap="round"><g transform="translate(65.77421800599359 139.2979859128884) rotate(0 -1.0069585284134064 -5.001961802850076)" fill-rule="evenodd"><path d="M-1 -2 L-1 -2 L0.16 -2.24 L1.11 -2.88 L1.75 -3.83 L1.99 -5 L1.75 -6.17 L1.11 -7.12 L0.16 -7.76 L-1 -8 L-2.17 -7.76 L-3.12 -7.12 L-3.76 -6.17 L-4 -5 L-3.76 -3.83 L-3.12 -2.88 L-2.17 -2.24 L-1 -2 L-1 -2" stroke="none" stroke-width="0" fill="#000" fill-rule="evenodd"></path><path d="M-1 -2 C-1 -2, -1 -2, -1 -2 M-1 -2 C-1 -2, -1 -2, -1 -2 M-1 -2 C-0.74 -2.06, -0.48 -2.11, 0.16 -2.24 M-1 -2 C-0.57 -2.09, -0.14 -2.18, 0.16 -2.24 M0.16 -2.24 C0.46 -2.44, 0.75 -2.64, 1.11 -2.88 M0.16 -2.24 C0.52 -2.48, 0.87 -2.72, 1.11 -2.88 M1.11 -2.88 C1.32 -3.19, 1.52 -3.49, 1.75 -3.83 M1.11 -2.88 C1.34 -3.22, 1.56 -3.55, 1.75 -3.83 M1.75 -3.83 C1.81 -4.13, 1.87 -4.44, 1.99 -5 M1.75 -3.83 C1.8 -4.1, 1.86 -4.36, 1.99 -5 M1.99 -5 C1.92 -5.35, 1.85 -5.69, 1.75 -6.17 M1.99 -5 C1.92 -5.32, 1.86 -5.65, 1.75 -6.17 M1.75 -6.17 C1.51 -6.53, 1.27 -6.88, 1.11 -7.12 M1.75 -6.17 C1.61 -6.38, 1.47 -6.59, 1.11 -7.12 M1.11 -7.12 C0.83 -7.31, 0.55 -7.51, 0.16 -7.76 M1.11 -7.12 C0.8 -7.34, 0.48 -7.55, 0.16 -7.76 M0.16 -7.76 C-0.22 -7.84, -0.6 -7.92, -1 -8 M0.16 -7.76 C-0.23 -7.85, -0.63 -7.93, -1 -8 M-1 -8 C-1.33 -7.93, -1.66 -7.87, -2.17 -7.76 M-1 -8 C-1.39 -7.92, -1.79 -7.84, -2.17 -7.76 M-2.17 -7.76 C-2.49 -7.55, -2.81 -7.33, -3.12 -7.12 M-2.17 -7.76 C-2.41 -7.6, -2.65 -7.44, -3.12 -7.12 M-3.12 -7.12 C-3.32 -6.83, -3.52 -6.53, -3.76 -6.17 M-3.12 -7.12 C-3.26 -6.92, -3.39 -6.72, -3.76 -6.17 M-3.76 -6.17 C-3.83 -5.85, -3.89 -5.53, -4 -5 M-3.76 -6.17 C-3.85 -5.73, -3.94 -5.29, -4 -5 M-4 -5 C-3.94 -4.72, -3.89 -4.44, -3.76 -3.83 M-4 -5 C-3.93 -4.64, -3.85 -4.28, -3.76 -3.83 M-3.76 -3.83 C-3.53 -3.48, -3.29 -3.13, -3.12 -2.88 M-3.76 -3.83 C-3.63 -3.63, -3.49 -3.43, -3.12 -2.88 M-3.12 -2.88 C-2.89 -2.72, -2.65 -2.56, -2.17 -2.24 M-3.12 -2.88 C-2.84 -2.69, -2.55 -2.49, -2.17 -2.24 M-2.17 -2.24 C-1.81 -2.17, -1.45 -2.09, -1 -2 M-2.17 -2.24 C-1.9 -2.18, -1.63 -2.13, -1 -2 M-1 -2 C-1 -2, -1 -2, -1 -2 M-1 -2 C-1 -2, -1 -2, -1 -2 M-1 -2 C-1 -2, -1 -2, -1 -2 M-1 -2 C-1 -2, -1 -2, -1 -2" stroke="#00000000" stroke-width="1" fill="none"></path></g></g><g stroke-linecap="round"><g transform="translate(74.10428158827972 140.2921012191266) rotate(0 -1.836929534869114 2.4983649260288985)" fill-rule="evenodd"><path d="M-1.84 0 L-1.84 0 L-3.47 0.17 L-5.27 0.69 L-6.73 1.55 L-7.17 2.11 L-7.33 2.75 L-7.33 5 L3.66 5 L3.66 2.75 L3.66 2.75 L3.5 2.11 L3.06 1.55 L1.6 0.69 L-0.21 0.17 L-1.84 0 L-1.84 0" stroke="none" stroke-width="0" fill="#000" fill-rule="evenodd"></path><path d="M-1.84 0 C-1.84 0, -1.84 0, -1.84 0 M-1.84 0 C-1.84 0, -1.84 0, -1.84 0 M-1.84 0 C-2.48 0.07, -3.12 0.14, -3.47 0.17 M-1.84 0 C-2.32 0.05, -2.81 0.1, -3.47 0.17 M-3.47 0.17 C-4.15 0.37, -4.84 0.56, -5.27 0.69 M-3.47 0.17 C-4.15 0.37, -4.83 0.56, -5.27 0.69 M-5.27 0.69 C-5.75 0.97, -6.23 1.25, -6.73 1.55 M-5.27 0.69 C-5.73 0.96, -6.2 1.23, -6.73 1.55 M-6.73 1.55 C-6.84 1.68, -6.94 1.81, -7.17 2.11 M-6.73 1.55 C-6.83 1.67, -6.92 1.79, -7.17 2.11 M-7.17 2.11 C-7.23 2.35, -7.3 2.6, -7.33 2.75 M-7.17 2.11 C-7.23 2.35, -7.3 2.6, -7.33 2.75 M-7.33 2.75 C-7.33 3.34, -7.33 3.94, -7.33 5 M-7.33 2.75 C-7.33 3.53, -7.33 4.32, -7.33 5 M-7.33 5 C-4.5 5, -1.66 5, 3.66 5 M-7.33 5 C-3.58 5, 0.17 5, 3.66 5 M3.66 5 C3.66 4.15, 3.66 3.3, 3.66 2.75 M3.66 5 C3.66 4.34, 3.66 3.68, 3.66 2.75 M3.66 2.75 C3.66 2.75, 3.66 2.75, 3.66 2.75 M3.66 2.75 C3.66 2.75, 3.66 2.75, 3.66 2.75 M3.66 2.75 C3.62 2.61, 3.59 2.46, 3.5 2.11 M3.66 2.75 C3.63 2.62, 3.59 2.49, 3.5 2.11 M3.5 2.11 C3.36 1.93, 3.23 1.76, 3.06 1.55 M3.5 2.11 C3.36 1.93, 3.22 1.75, 3.06 1.55 M3.06 1.55 C2.68 1.33, 2.31 1.11, 1.6 0.69 M3.06 1.55 C2.76 1.37, 2.47 1.2, 1.6 0.69 M1.6 0.69 C1.17 0.57, 0.75 0.44, -0.21 0.17 M1.6 0.69 C0.96 0.51, 0.33 0.33, -0.21 0.17 M-0.21 0.17 C-0.65 0.13, -1.08 0.08, -1.84 0 M-0.21 0.17 C-0.62 0.13, -1.04 0.08, -1.84 0 M-1.84 0 C-1.84 0, -1.84 0, -1.84 0 M-1.84 0 C-1.84 0, -1.84 0, -1.84 0 M-1.84 0 C-1.84 0, -1.84 0, -1.84 0 M-1.84 0 C-1.84 0, -1.84 0, -1.84 0" stroke="#00000000" stroke-width="1" fill="none"></path></g></g><g stroke-linecap="round"><g transform="translate(67.11016705655629 139.29275467688376) rotate(0 -4.651397022943911 2.998038197149924)" fill-rule="evenodd"><path d="M-2.34 0 L-2.34 0 L-3.31 0.05 L-4.41 0.22 L-6.71 0.88 L-7.73 1.37 L-8.57 1.97 L-9.13 2.68 L-9.33 3.5 L-9.33 6 L-2.34 6 L-2.34 3.75 L-2.34 3.75 L-2.25 3.01 L-1.92 2.12 L-1.2 1.18 L0.03 0.28 L-1.23 0.07 L-2.34 0 L-2.34 0" stroke="none" stroke-width="0" fill="#000" fill-rule="evenodd"></path><path d="M-2.34 0 C-2.34 0, -2.34 0, -2.34 0 M-2.34 0 C-2.34 0, -2.34 0, -2.34 0 M-2.34 0 C-2.65 0.02, -2.96 0.04, -3.31 0.05 M-2.34 0 C-2.66 0.02, -2.98 0.04, -3.31 0.05 M-3.31 0.05 C-3.74 0.12, -4.18 0.18, -4.41 0.22 M-3.31 0.05 C-3.55 0.09, -3.8 0.13, -4.41 0.22 M-4.41 0.22 C-4.92 0.36, -5.43 0.51, -6.71 0.88 M-4.41 0.22 C-4.93 0.37, -5.44 0.51, -6.71 0.88 M-6.71 0.88 C-6.94 0.99, -7.17 1.1, -7.73 1.37 M-6.71 0.88 C-6.96 0.99, -7.2 1.11, -7.73 1.37 M-7.73 1.37 C-8.06 1.6, -8.38 1.83, -8.57 1.97 M-7.73 1.37 C-8 1.56, -8.27 1.76, -8.57 1.97 M-8.57 1.97 C-8.77 2.22, -8.96 2.47, -9.13 2.68 M-8.57 1.97 C-8.79 2.25, -9.01 2.53, -9.13 2.68 M-9.13 2.68 C-9.17 2.85, -9.22 3.03, -9.33 3.5 M-9.13 2.68 C-9.19 2.93, -9.26 3.19, -9.33 3.5 M-9.33 3.5 C-9.33 4.04, -9.33 4.58, -9.33 6 M-9.33 3.5 C-9.33 4.08, -9.33 4.65, -9.33 6 M-9.33 6 C-6.89 6, -4.44 6, -2.34 6 M-9.33 6 C-7.64 6, -5.95 6, -2.34 6 M-2.34 6 C-2.34 5.43, -2.34 4.87, -2.34 3.75 M-2.34 6 C-2.34 5.25, -2.34 4.5, -2.34 3.75 M-2.34 3.75 C-2.34 3.75, -2.34 3.75, -2.34 3.75 M-2.34 3.75 C-2.34 3.75, -2.34 3.75, -2.34 3.75 M-2.34 3.75 C-2.32 3.6, -2.3 3.45, -2.25 3.01 M-2.34 3.75 C-2.31 3.46, -2.27 3.17, -2.25 3.01 M-2.25 3.01 C-2.18 2.81, -2.11 2.62, -1.92 2.12 M-2.25 3.01 C-2.12 2.66, -1.99 2.32, -1.92 2.12 M-1.92 2.12 C-1.76 1.91, -1.6 1.71, -1.2 1.18 M-1.92 2.12 C-1.68 1.81, -1.45 1.51, -1.2 1.18 M-1.2 1.18 C-0.93 0.98, -0.66 0.78, 0.03 0.28 M-1.2 1.18 C-0.88 0.94, -0.56 0.71, 0.03 0.28 M0.03 0.28 C-0.42 0.21, -0.87 0.13, -1.23 0.07 M0.03 0.28 C-0.44 0.2, -0.9 0.13, -1.23 0.07 M-1.23 0.07 C-1.54 0.05, -1.85 0.03, -2.34 0 M-1.23 0.07 C-1.66 0.04, -2.09 0.02, -2.34 0 M-2.34 0 C-2.34 0, -2.34 0, -2.34 0 M-2.34 0 C-2.34 0, -2.34 0, -2.34 0 M-2.34 0 C-2.34 0, -2.34 0, -2.34 0 M-2.34 0 C-2.34 0, -2.34 0, -2.34 0" stroke="#00000000" stroke-width="1" fill="none"></path></g></g><g stroke-linecap="round"><g transform="translate(374.1420631210226 140.6692119889883) rotate(0 39.219291020132914 0)"><path d="M0 0 C21.05 0, 42.1 0, 78.44 0 M0 0 C26.32 0, 52.65 0, 78.44 0" stroke="#4c6ef5" stroke-width="2" fill="none"></path></g><g transform="translate(374.1420631210226 140.6692119889883) rotate(0 39.219291020132914 0)"><path d="M50.25 10.26 C57.81 7.51, 65.38 4.75, 78.44 0 M50.25 10.26 C59.71 6.82, 69.17 3.37, 78.44 0" stroke="#4c6ef5" stroke-width="2" fill="none"></path></g><g transform="translate(374.1420631210226 140.6692119889883) rotate(0 39.219291020132914 0)"><path d="M50.25 -10.26 C57.81 -7.51, 65.38 -4.75, 78.44 0 M50.25 -10.26 C59.71 -6.82, 69.17 -3.37, 78.44 0" stroke="#4c6ef5" stroke-width="2" fill="none"></path></g></g><g stroke-linecap="round"><g transform="translate(576.0853907403666 140.6692119889883) rotate(0 33.086336887879725 0)"><path d="M0 0 C24.03 0, 48.06 0, 66.17 0 M0 0 C15.95 0, 31.9 0, 66.17 0" stroke="#4c6ef5" stroke-width="2" fill="none"></path></g><g transform="translate(576.0853907403666 140.6692119889883) rotate(0 33.086336887879725 0)"><path d="M37.98 10.26 C48.22 6.53, 58.46 2.81, 66.17 0 M37.98 10.26 C44.78 7.79, 51.57 5.31, 66.17 0" stroke="#4c6ef5" stroke-width="2" fill="none"></path></g><g transform="translate(576.0853907403666 140.6692119889883) rotate(0 33.086336887879725 0)"><path d="M37.98 -10.26 C48.22 -6.53, 58.46 -2.81, 66.17 0 M37.98 -10.26 C44.78 -7.79, 51.57 -5.31, 66.17 0" stroke="#4c6ef5" stroke-width="2" fill="none"></path></g></g><g stroke-linecap="round"><g transform="translate(706.7546027293592 164.427250532441) rotate(0 0 41.57656745104157)"><path d="M0 0 C0 25.11, 0 50.23, 0 83.15 M0 0 C0 18.61, 0 37.22, 0 83.15" stroke="#4c6ef5" stroke-width="2" fill="none"></path></g><g transform="translate(706.7546027293592 164.427250532441) rotate(0 0 41.57656745104157)"><path d="M-10.26 54.96 C-7.16 63.48, -4.06 71.99, 0 83.15 M-10.26 54.96 C-7.96 61.27, -5.67 67.58, 0 83.15" stroke="#4c6ef5" stroke-width="2" fill="none"></path></g><g transform="translate(706.7546027293592 164.427250532441) rotate(0 0 41.57656745104157)"><path d="M10.26 54.96 C7.16 63.48, 4.06 71.99, 0 83.15 M10.26 54.96 C7.96 61.27, 5.67 67.58, 0 83.15" stroke="#4c6ef5" stroke-width="2" fill="none"></path></g></g><g stroke-linecap="round" transform="translate(643.584541062804 110.80196353436247) rotate(0 61.09209911173434 27.491444600280488)"><path d="M13.75 0 L108.44 0 L114.45 0.86 L116.81 1.93 L120.25 5.37 L121.97 10.52 L122.18 41.24 L121.33 47.25 L120.25 49.61 L116.81 53.05 L114.45 54.12 L108.44 54.98 L13.75 54.98 L7.73 54.12 L3.44 51.55 L0.86 47.25 L0.21 44.46 L0.21 10.52 L1.93 5.37 L3.44 3.44 L7.73 0.86 L13.75 0" stroke="none" stroke-width="0" fill="#FFF"></path><path d="M13.75 0 M13.75 0 C40.03 0, 66.32 0, 108.44 0 M13.75 0 C45.85 0, 77.96 0, 108.44 0 M108.44 0 C117.6 0, 122.18 4.58, 122.18 13.75 M108.44 0 C117.6 0, 122.18 4.58, 122.18 13.75 M122.18 13.75 C122.18 21.02, 122.18 28.29, 122.18 41.24 M122.18 13.75 C122.18 20.61, 122.18 27.47, 122.18 41.24 M122.18 41.24 C122.18 50.4, 117.6 54.98, 108.44 54.98 M122.18 41.24 C122.18 50.4, 117.6 54.98, 108.44 54.98 M108.44 54.98 C74 54.98, 39.57 54.98, 13.75 54.98 M108.44 54.98 C73.86 54.98, 39.27 54.98, 13.75 54.98 M13.75 54.98 C4.58 54.98, 0 50.4, 0 41.24 M13.75 54.98 C4.58 54.98, 0 50.4, 0 41.24 M0 41.24 C0 32.47, 0 23.7, 0 13.75 M0 41.24 C0 33.61, 0 25.99, 0 13.75 M0 13.75 C0 4.58, 4.58 0, 13.75 0 M0 13.75 C0 4.58, 4.58 0, 13.75 0" stroke="#4285f4" stroke-width="2" fill="none"></path></g><g transform="translate(693.2218715910885 127.602290790089) rotate(0 32.455177653108876 10.691117344553504)"><text x="0" y="8.691117344553527" font-family="Helvetica, Segoe UI Emoji" font-size="9.163814866760159px" fill="#000000" text-anchor="start" style="white-space: pre;" direction="ltr">Artifact</text><text x="0" y="19.382234689107054" font-family="Helvetica, Segoe UI Emoji" font-size="9.163814866760159px" fill="#000000" text-anchor="start" style="white-space: pre;" direction="ltr">Registry</text></g><g stroke-linecap="round"><g transform="translate(663.9413813588935 127.25064377654348) rotate(0 -4.180642893070171 10.510920184831207)" fill-rule="evenodd"><path d="M-1.6 0 L-1.6 2.53 L-4.69 4.32 L-4.69 16.7 L-1.6 18.49 L-1.6 21.02 L-6.76 18.04 L-6.76 2.98 L-1.6 0 L-1.6 0" stroke="none" stroke-width="0" fill="#4285f4" fill-rule="evenodd"></path><path d="M-1.6 0 C-1.6 0.74, -1.6 1.47, -1.6 2.53 M-1.6 0 C-1.6 0.99, -1.6 1.99, -1.6 2.53 M-1.6 2.53 C-2.52 3.07, -3.44 3.6, -4.69 4.32 M-1.6 2.53 C-2.77 3.21, -3.95 3.89, -4.69 4.32 M-4.69 4.32 C-4.69 9.01, -4.69 13.7, -4.69 16.7 M-4.69 4.32 C-4.69 8.39, -4.69 12.46, -4.69 16.7 M-4.69 16.7 C-3.71 17.27, -2.73 17.83, -1.6 18.49 M-4.69 16.7 C-3.95 17.13, -3.21 17.55, -1.6 18.49 M-1.6 18.49 C-1.6 19.03, -1.6 19.57, -1.6 21.02 M-1.6 18.49 C-1.6 19.46, -1.6 20.44, -1.6 21.02 M-1.6 21.02 C-3.58 19.88, -5.56 18.73, -6.76 18.04 M-1.6 21.02 C-2.96 20.23, -4.33 19.45, -6.76 18.04 M-6.76 18.04 C-6.76 12.78, -6.76 7.51, -6.76 2.98 M-6.76 18.04 C-6.76 14.16, -6.76 10.27, -6.76 2.98 M-6.76 2.98 C-5 1.96, -3.24 0.95, -1.6 0 M-6.76 2.98 C-4.82 1.86, -2.87 0.73, -1.6 0 M-1.6 0 C-1.6 0, -1.6 0, -1.6 0 M-1.6 0 C-1.6 0, -1.6 0, -1.6 0 M-1.6 0 C-1.6 0, -1.6 0, -1.6 0 M-1.6 0 C-1.6 0, -1.6 0, -1.6 0" stroke="transparent" stroke-width="1" fill="none"></path></g></g><g stroke-linecap="round"><g transform="translate(674.7013612499441 127.25064377654428) rotate(0 2.5752451639189076 10.503922194457004)" fill-rule="evenodd"><path d="M0 0 L5.15 2.97 L5.15 18.03 L0 21.01 L0 18.47 L3.09 16.7 L3.09 4.32 L0 2.53 L0 0 L0 0" stroke="none" stroke-width="0" fill="#4285f4" fill-rule="evenodd"></path><path d="M0 0 C1.56 0.9, 3.13 1.8, 5.15 2.97 M0 0 C1.65 0.95, 3.3 1.9, 5.15 2.97 M5.15 2.97 C5.15 7.93, 5.15 12.9, 5.15 18.03 M5.15 2.97 C5.15 8.92, 5.15 14.87, 5.15 18.03 M5.15 18.03 C4 18.69, 2.85 19.36, 0 21.01 M5.15 18.03 C4.01 18.69, 2.87 19.35, 0 21.01 M0 21.01 C0 20.44, 0 19.88, 0 18.47 M0 21.01 C0 20.44, 0 19.87, 0 18.47 M0 18.47 C0.75 18.04, 1.5 17.61, 3.09 16.7 M0 18.47 C1.2 17.78, 2.4 17.09, 3.09 16.7 M3.09 16.7 C3.09 12.7, 3.09 8.7, 3.09 4.32 M3.09 16.7 C3.09 12.32, 3.09 7.95, 3.09 4.32 M3.09 4.32 C1.88 3.62, 0.66 2.92, 0 2.53 M3.09 4.32 C2.43 3.94, 1.77 3.56, 0 2.53 M0 2.53 C0 1.74, 0 0.95, 0 0 M0 2.53 C0 1.99, 0 1.44, 0 0 M0 0 C0 0, 0 0, 0 0 M0 0 C0 0, 0 0, 0 0 M0 0 C0 0, 0 0, 0 0 M0 0 C0 0, 0 0, 0 0" stroke="transparent" stroke-width="1" fill="none"></path></g></g><g stroke-linecap="round"><g transform="translate(669.4404580838295 130.73562259117978) rotate(0 -0.939980491782535 1.7005016471415502)" fill-rule="evenodd"><path d="M-0.94 0 L-3.98 1.69 L-0.94 3.4 L2.1 1.69 L-0.94 0" stroke="none" stroke-width="0" fill="#4285f4" fill-rule="evenodd"></path><path d="M-0.94 0 C-2.06 0.62, -3.17 1.24, -3.98 1.69 M-0.94 0 C-2.13 0.66, -3.32 1.33, -3.98 1.69 M-3.98 1.69 C-3.26 2.1, -2.55 2.5, -0.94 3.4 M-3.98 1.69 C-3.07 2.2, -2.17 2.71, -0.94 3.4 M-0.94 3.4 C-0.15 2.96, 0.63 2.52, 2.1 1.69 M-0.94 3.4 C-0.24 3.01, 0.46 2.61, 2.1 1.69 M2.1 1.69 C1.24 1.22, 0.39 0.74, -0.94 0 M2.1 1.69 C1.19 1.19, 0.27 0.68, -0.94 0 M-0.94 0 C-0.94 0, -0.94 0, -0.94 0 M-0.94 0 C-0.94 0, -0.94 0, -0.94 0" stroke="transparent" stroke-width="1" fill="none"></path></g></g><g stroke-linecap="round"><g transform="translate(668.9063581206428 139.69253414830928) rotate(0 1.4835659482980645 -4.135324592053109)" fill-rule="evenodd"><path d="M0 -1.58 L2.97 -3.3 L2.97 -6.69 L0 -4.97 L0 -1.58" stroke="none" stroke-width="0" fill="#4285f4" fill-rule="evenodd"></path><path d="M0 -1.58 C1.09 -2.22, 2.19 -2.85, 2.97 -3.3 M0 -1.58 C0.96 -2.14, 1.91 -2.69, 2.97 -3.3 M2.97 -3.3 C2.97 -4.63, 2.97 -5.96, 2.97 -6.69 M2.97 -3.3 C2.97 -4.21, 2.97 -5.11, 2.97 -6.69 M2.97 -6.69 C1.92 -6.08, 0.88 -5.48, 0 -4.97 M2.97 -6.69 C1.81 -6.02, 0.66 -5.35, 0 -4.97 M0 -4.97 C0 -3.62, 0 -2.27, 0 -1.58 M0 -4.97 C0 -3.93, 0 -2.9, 0 -1.58 M0 -1.58 C0 -1.58, 0 -1.58, 0 -1.58 M0 -1.58 C0 -1.58, 0 -1.58, 0 -1.58" stroke="transparent" stroke-width="1" fill="none"></path></g></g><g stroke-linecap="round"><g transform="translate(669.0645705817569 135.25725334844356) rotate(0 -2.3905579173826936 0.29995620781261323)" fill-rule="evenodd"><path d="M-0.91 -0.53 L-3.87 -2.25 L-3.87 1.13 L-0.91 2.85 L-0.91 -0.53" stroke="none" stroke-width="0" fill="#4285f4" fill-rule="evenodd"></path><path d="M-0.91 -0.53 C-2.04 -1.19, -3.17 -1.85, -3.87 -2.25 M-0.91 -0.53 C-1.62 -0.94, -2.33 -1.36, -3.87 -2.25 M-3.87 -2.25 C-3.87 -1.28, -3.87 -0.31, -3.87 1.13 M-3.87 -2.25 C-3.87 -1.19, -3.87 -0.13, -3.87 1.13 M-3.87 1.13 C-2.84 1.73, -1.81 2.33, -0.91 2.85 M-3.87 1.13 C-3.07 1.6, -2.28 2.06, -0.91 2.85 M-0.91 2.85 C-0.91 1.7, -0.91 0.54, -0.91 -0.53 M-0.91 2.85 C-0.91 1.85, -0.91 0.84, -0.91 -0.53 M-0.91 -0.53 C-0.91 -0.53, -0.91 -0.53, -0.91 -0.53 M-0.91 -0.53 C-0.91 -0.53, -0.91 -0.53, -0.91 -0.53" stroke="transparent" stroke-width="1" fill="none"></path></g></g><g stroke-linecap="round"><g transform="translate(665.8822037115037 136.99234925094515) rotate(0 -0.9079924582711101 1.6935038388360795)" fill-rule="evenodd"><path d="M-0.9 0 L-3.81 1.69 L-0.9 3.39 L2 1.69 L-0.9 0" stroke="none" stroke-width="0" fill="#4285f4" fill-rule="evenodd"></path><path d="M-0.9 0 C-1.64 0.43, -2.38 0.86, -3.81 1.69 M-0.9 0 C-1.79 0.52, -2.69 1.04, -3.81 1.69 M-3.81 1.69 C-2.68 2.35, -1.54 3.01, -0.9 3.39 M-3.81 1.69 C-3.22 2.04, -2.62 2.39, -0.9 3.39 M-0.9 3.39 C0.08 2.81, 1.06 2.24, 2 1.69 M-0.9 3.39 C-0.27 3.02, 0.36 2.65, 2 1.69 M2 1.69 C1.27 1.27, 0.55 0.85, -0.9 0 M2 1.69 C1.34 1.31, 0.68 0.93, -0.9 0 M-0.9 0 C-0.9 0, -0.9 0, -0.9 0 M-0.9 0 C-0.9 0, -0.9 0, -0.9 0" stroke="transparent" stroke-width="1" fill="none"></path></g></g><g stroke-linecap="round"><g transform="translate(665.2471308750733 145.9492590394641) rotate(0 1.4765672296493904 -4.135322823441982)" fill-rule="evenodd"><path d="M0 -1.58 L2.95 -3.3 L2.95 -6.69 L0 -4.97 L0 -1.58" stroke="none" stroke-width="0" fill="#4285f4" fill-rule="evenodd"></path><path d="M0 -1.58 C0.91 -2.11, 1.81 -2.64, 2.95 -3.3 M0 -1.58 C1.17 -2.26, 2.33 -2.94, 2.95 -3.3 M2.95 -3.3 C2.95 -4.64, 2.95 -5.98, 2.95 -6.69 M2.95 -3.3 C2.95 -4.09, 2.95 -4.88, 2.95 -6.69 M2.95 -6.69 C1.86 -6.05, 0.76 -5.41, 0 -4.97 M2.95 -6.69 C2.01 -6.14, 1.07 -5.59, 0 -4.97 M0 -4.97 C0 -3.89, 0 -2.8, 0 -1.58 M0 -4.97 C0 -4.26, 0 -3.55, 0 -1.58 M0 -1.58 C0 -1.58, 0 -1.58, 0 -1.58 M0 -1.58 C0 -1.58, 0 -1.58, 0 -1.58" stroke="transparent" stroke-width="1" fill="none"></path></g></g><g stroke-linecap="round"><g transform="translate(665.6152805244797 141.5139791932727) rotate(0 -2.3905570330771297 0.2999570227494246)" fill-rule="evenodd"><path d="M-0.91 -0.53 L-3.87 -2.25 L-3.87 1.13 L-0.91 2.85 L-0.91 -0.53" stroke="none" stroke-width="0" fill="#4285f4" fill-rule="evenodd"></path><path d="M-0.91 -0.53 C-2.07 -1.21, -3.23 -1.88, -3.87 -2.25 M-0.91 -0.53 C-2.07 -1.21, -3.23 -1.88, -3.87 -2.25 M-3.87 -2.25 C-3.87 -0.98, -3.87 0.29, -3.87 1.13 M-3.87 -2.25 C-3.87 -1.32, -3.87 -0.39, -3.87 1.13 M-3.87 1.13 C-2.99 1.64, -2.12 2.15, -0.91 2.85 M-3.87 1.13 C-2.86 1.72, -1.86 2.3, -0.91 2.85 M-0.91 2.85 C-0.91 1.92, -0.91 0.99, -0.91 -0.53 M-0.91 2.85 C-0.91 1.83, -0.91 0.82, -0.91 -0.53 M-0.91 -0.53 C-0.91 -0.53, -0.91 -0.53, -0.91 -0.53 M-0.91 -0.53 C-0.91 -0.53, -0.91 -0.53, -0.91 -0.53" stroke="transparent" stroke-width="1" fill="none"></path></g></g><g stroke-linecap="round"><g transform="translate(672.9733723798431 136.99234925094515) rotate(0 -0.8896644504898177 1.6935038388360795)" fill-rule="evenodd"><path d="M-0.9 0 L-3.79 1.69 L-0.9 3.39 L2.01 1.69 L-0.9 0" stroke="none" stroke-width="0" fill="#4285f4" fill-rule="evenodd"></path><path d="M-0.9 0 C-1.64 0.43, -2.38 0.87, -3.79 1.69 M-0.9 0 C-1.76 0.5, -2.62 1.01, -3.79 1.69 M-3.79 1.69 C-2.97 2.18, -2.15 2.66, -0.9 3.39 M-3.79 1.69 C-3.13 2.08, -2.46 2.47, -0.9 3.39 M-0.9 3.39 C0.23 2.73, 1.35 2.08, 2.01 1.69 M-0.9 3.39 C0.07 2.83, 1.03 2.26, 2.01 1.69 M2.01 1.69 C1.38 1.33, 0.75 0.96, -0.9 0 M2.01 1.69 C1.14 1.19, 0.27 0.68, -0.9 0 M-0.9 0 C-0.9 0, -0.9 0, -0.9 0 M-0.9 0 C-0.9 0, -0.9 0, -0.9 0" stroke="transparent" stroke-width="1" fill="none"></path></g></g><g stroke-linecap="round"><g transform="translate(672.3566273691172 145.9492590394641) rotate(0 1.4765679579240896 -4.135322823441982)" fill-rule="evenodd"><path d="M0 -1.58 L2.95 -3.3 L2.95 -6.69 L0 -4.97 L0 -1.58" stroke="none" stroke-width="0" fill="#4285f4" fill-rule="evenodd"></path><path d="M0 -1.58 C0.71 -1.99, 1.41 -2.4, 2.95 -3.3 M0 -1.58 C1.12 -2.24, 2.25 -2.89, 2.95 -3.3 M2.95 -3.3 C2.95 -4.42, 2.95 -5.54, 2.95 -6.69 M2.95 -3.3 C2.95 -4.24, 2.95 -5.18, 2.95 -6.69 M2.95 -6.69 C2.17 -6.24, 1.4 -5.78, 0 -4.97 M2.95 -6.69 C2.17 -6.23, 1.39 -5.78, 0 -4.97 M0 -4.97 C0 -4.26, 0 -3.54, 0 -1.58 M0 -4.97 C0 -3.74, 0 -2.5, 0 -1.58 M0 -1.58 C0 -1.58, 0 -1.58, 0 -1.58 M0 -1.58 C0 -1.58, 0 -1.58, 0 -1.58" stroke="transparent" stroke-width="1" fill="none"></path></g></g><g stroke-linecap="round"><g transform="translate(672.7247790385823 141.5139791932727) rotate(0 -2.3905585069196604 0.2999570227494246)" fill-rule="evenodd"><path d="M-0.91 -0.53 L-3.87 -2.25 L-3.87 1.13 L-0.91 2.85 L-0.91 -0.53" stroke="none" stroke-width="0" fill="#4285f4" fill-rule="evenodd"></path><path d="M-0.91 -0.53 C-1.57 -0.92, -2.23 -1.3, -3.87 -2.25 M-0.91 -0.53 C-2.01 -1.17, -3.11 -1.81, -3.87 -2.25 M-3.87 -2.25 C-3.87 -1.2, -3.87 -0.15, -3.87 1.13 M-3.87 -2.25 C-3.87 -0.99, -3.87 0.27, -3.87 1.13 M-3.87 1.13 C-2.92 1.68, -1.97 2.24, -0.91 2.85 M-3.87 1.13 C-2.83 1.74, -1.79 2.34, -0.91 2.85 M-0.91 2.85 C-0.91 1.98, -0.91 1.11, -0.91 -0.53 M-0.91 2.85 C-0.91 2.1, -0.91 1.34, -0.91 -0.53 M-0.91 -0.53 C-0.91 -0.53, -0.91 -0.53, -0.91 -0.53 M-0.91 -0.53 C-0.91 -0.53, -0.91 -0.53, -0.91 -0.53" stroke="transparent" stroke-width="1" fill="none"></path></g></g><g stroke-linecap="round"><g transform="translate(516.6902943817377 164.427250532441) rotate(0 0 41.57656745104157)"><path d="M0 0 C0 22.27, 0 44.54, 0 83.15 M0 0 C0 33.19, 0 66.37, 0 83.15" stroke="#4c6ef5" stroke-width="2" fill="none"></path></g><g transform="translate(516.6902943817377 164.427250532441) rotate(0 0 41.57656745104157)"><path d="M-10.26 54.96 C-7.51 62.51, -4.76 70.06, 0 83.15 M-10.26 54.96 C-6.17 66.21, -2.07 77.46, 0 83.15" stroke="#4c6ef5" stroke-width="2" fill="none"></path></g><g transform="translate(516.6902943817377 164.427250532441) rotate(0 0 41.57656745104157)"><path d="M10.26 54.96 C7.51 62.51, 4.76 70.06, 0 83.15 M10.26 54.96 C6.17 66.21, 2.07 77.46, 0 83.15" stroke="#4c6ef5" stroke-width="2" fill="none"></path></g></g><g stroke-linecap="round" transform="translate(451.8232299620795 110.80196353436168) rotate(0 61.09209911173457 27.491444600280545)"><path d="M13.75 0 L108.44 0 L114.45 0.86 L118.75 3.44 L120.25 5.37 L121.97 10.52 L122.18 41.24 L121.33 47.25 L120.25 49.61 L116.81 53.05 L114.45 54.12 L108.44 54.98 L13.75 54.98 L7.73 54.12 L3.44 51.55 L0.86 47.25 L0.21 44.46 L0.21 10.52 L1.93 5.37 L5.37 1.93 L7.73 0.86 L13.75 0" stroke="none" stroke-width="0" fill="#FFF"></path><path d="M13.75 0 M13.75 0 C41.88 0, 70.02 0, 108.44 0 M13.75 0 C40.03 0, 66.32 0, 108.44 0 M108.44 0 C117.6 0, 122.18 4.58, 122.18 13.75 M108.44 0 C117.6 0, 122.18 4.58, 122.18 13.75 M122.18 13.75 C122.18 20.08, 122.18 26.42, 122.18 41.24 M122.18 13.75 C122.18 21.02, 122.18 28.29, 122.18 41.24 M122.18 41.24 C122.18 50.4, 117.6 54.98, 108.44 54.98 M122.18 41.24 C122.18 50.4, 117.6 54.98, 108.44 54.98 M108.44 54.98 C80.02 54.98, 51.6 54.98, 13.75 54.98 M108.44 54.98 C74 54.98, 39.57 54.98, 13.75 54.98 M13.75 54.98 C4.58 54.98, 0 50.4, 0 41.24 M13.75 54.98 C4.58 54.98, 0 50.4, 0 41.24 M0 41.24 C0 31.73, 0 22.22, 0 13.75 M0 41.24 C0 32.47, 0 23.7, 0 13.75 M0 13.75 C0 4.58, 4.58 0, 13.75 0 M0 13.75 C0 4.58, 4.58 0, 13.75 0" stroke="#4285f4" stroke-width="2" fill="none"></path></g><g transform="translate(501.4605604903618 132.9478494623654) rotate(0 32.455177653108876 5.345558672276752)"><text x="0" y="8.691117344553533" font-family="Helvetica, Segoe UI Emoji" font-size="9.163814866760173px" fill="#000000" text-anchor="start" style="white-space: pre;" direction="ltr">Cloud Build</text></g><g stroke-linecap="round"><g transform="translate(477.1664815369322 144.74717618236514) rotate(0 0.8194400445386236 -5.588296376605513)" fill-rule="evenodd"><path d="M-0.37 -2.14 L3.21 -4.2 L3.21 -8.34 L2.01 -9.04 L-1.57 -2.83 L-0.37 -2.14 L-0.37 -2.14" stroke="none" stroke-width="0" fill="#4285f4" fill-rule="evenodd"></path><path d="M-0.37 -2.14 C0.67 -2.74, 1.71 -3.34, 3.21 -4.2 M-0.37 -2.14 C1 -2.93, 2.36 -3.71, 3.21 -4.2 M3.21 -4.2 C3.21 -5.19, 3.21 -6.18, 3.21 -8.34 M3.21 -4.2 C3.21 -5.39, 3.21 -6.58, 3.21 -8.34 M3.21 -8.34 C2.83 -8.56, 2.46 -8.78, 2.01 -9.04 M3.21 -8.34 C2.79 -8.58, 2.38 -8.83, 2.01 -9.04 M2.01 -9.04 C1.04 -7.37, 0.08 -5.69, -1.57 -2.83 M2.01 -9.04 C0.79 -6.92, -0.44 -4.79, -1.57 -2.83 M-1.57 -2.83 C-1.22 -2.62, -0.86 -2.42, -0.37 -2.14 M-1.57 -2.83 C-1.28 -2.66, -0.99 -2.49, -0.37 -2.14 M-0.37 -2.14 C-0.37 -2.14, -0.37 -2.14, -0.37 -2.14 M-0.37 -2.14 C-0.37 -2.14, -0.37 -2.14, -0.37 -2.14 M-0.37 -2.14 C-0.37 -2.14, -0.37 -2.14, -0.37 -2.14 M-0.37 -2.14 C-0.37 -2.14, -0.37 -2.14, -0.37 -2.14" stroke="#00000000" stroke-width="1" fill="none"></path></g></g><g stroke-linecap="round"><g transform="translate(473.21055601872695 137.05260315819737) rotate(0 2.3978647881772304 0.7317046360303152)" fill-rule="evenodd"><path d="M0 -0.64 L0 3.49 L1.2 4.18 L4.8 -2.02 L3.58 -2.72 L0 -0.64 L0 -0.64" stroke="none" stroke-width="0" fill="#669df6" fill-rule="evenodd"></path><path d="M0 -0.64 C0 0.55, 0 1.75, 0 3.49 M0 -0.64 C0 0.41, 0 1.46, 0 3.49 M0 3.49 C0.37 3.7, 0.74 3.92, 1.2 4.18 M0 3.49 C0.47 3.76, 0.94 4.03, 1.2 4.18 M1.2 4.18 C1.94 2.91, 2.67 1.65, 4.8 -2.02 M1.2 4.18 C2.42 2.08, 3.64 -0.02, 4.8 -2.02 M4.8 -2.02 C4.53 -2.17, 4.27 -2.32, 3.58 -2.72 M4.8 -2.02 C4.49 -2.19, 4.19 -2.37, 3.58 -2.72 M3.58 -2.72 C2.77 -2.25, 1.96 -1.78, 0 -0.64 M3.58 -2.72 C2.28 -1.96, 0.97 -1.2, 0 -0.64 M0 -0.64 C0 -0.64, 0 -0.64, 0 -0.64 M0 -0.64 C0 -0.64, 0 -0.64, 0 -0.64 M0 -0.64 C0 -0.64, 0 -0.64, 0 -0.64 M0 -0.64 C0 -0.64, 0 -0.64, 0 -0.64" stroke="#00000000" stroke-width="1" fill="none"></path></g></g><g stroke-linecap="round"><g transform="translate(478.60366644404985 146.8269057327152) rotate(0 -6.569133304089519 -5.601076360047557)" fill-rule="evenodd"><path d="M-2.51 -2.98 L-6.81 -5.47 L-6.81 -10.42 L-10.63 -12.63 L-10.63 -3.26 L-2.51 1.42 L-2.51 -2.98 L-2.51 -2.98" stroke="none" stroke-width="0" fill="#aecbfa" fill-rule="evenodd"></path><path d="M-2.51 -2.98 C-3.58 -3.6, -4.65 -4.22, -6.81 -5.47 M-2.51 -2.98 C-3.83 -3.75, -5.15 -4.51, -6.81 -5.47 M-6.81 -5.47 C-6.81 -7.42, -6.81 -9.38, -6.81 -10.42 M-6.81 -5.47 C-6.81 -7.42, -6.81 -9.37, -6.81 -10.42 M-6.81 -10.42 C-7.69 -10.93, -8.58 -11.44, -10.63 -12.63 M-6.81 -10.42 C-8.23 -11.24, -9.65 -12.06, -10.63 -12.63 M-10.63 -12.63 C-10.63 -9.64, -10.63 -6.66, -10.63 -3.26 M-10.63 -12.63 C-10.63 -9.63, -10.63 -6.64, -10.63 -3.26 M-10.63 -3.26 C-8.93 -2.28, -7.23 -1.3, -2.51 1.42 M-10.63 -3.26 C-8.94 -2.29, -7.26 -1.31, -2.51 1.42 M-2.51 1.42 C-2.51 0.49, -2.51 -0.44, -2.51 -2.98 M-2.51 1.42 C-2.51 0.15, -2.51 -1.13, -2.51 -2.98 M-2.51 -2.98 C-2.51 -2.98, -2.51 -2.98, -2.51 -2.98 M-2.51 -2.98 C-2.51 -2.98, -2.51 -2.98, -2.51 -2.98 M-2.51 -2.98 C-2.51 -2.98, -2.51 -2.98, -2.51 -2.98 M-2.51 -2.98 C-2.51 -2.98, -2.51 -2.98, -2.51 -2.98" stroke="#00000000" stroke-width="1" fill="none"></path></g></g><g stroke-linecap="round"><g transform="translate(473.6827099332004 137.3244859363724) rotate(0 3.1119157592845568 -5.588296376605513)" fill-rule="evenodd"><path d="M-1.18 -2.14 L3.11 -4.62 L7.41 -2.14 L11.24 -4.35 L3.11 -9.04 L-5.01 -4.35 L-1.18 -2.14 L-1.18 -2.14" stroke="none" stroke-width="0" fill="#aecbfa" fill-rule="evenodd"></path><path d="M-1.18 -2.14 C-0.28 -2.66, 0.62 -3.18, 3.11 -4.62 M-1.18 -2.14 C0.5 -3.11, 2.18 -4.08, 3.11 -4.62 M3.11 -4.62 C4.8 -3.65, 6.48 -2.67, 7.41 -2.14 M3.11 -4.62 C4.72 -3.69, 6.33 -2.76, 7.41 -2.14 M7.41 -2.14 C8.46 -2.75, 9.52 -3.35, 11.24 -4.35 M7.41 -2.14 C8.54 -2.79, 9.67 -3.44, 11.24 -4.35 M11.24 -4.35 C8.47 -5.94, 5.71 -7.54, 3.11 -9.04 M11.24 -4.35 C9.01 -5.64, 6.77 -6.92, 3.11 -9.04 M3.11 -9.04 C0.67 -7.63, -1.78 -6.21, -5.01 -4.35 M3.11 -9.04 C0.78 -7.69, -1.56 -6.34, -5.01 -4.35 M-5.01 -4.35 C-4.23 -3.9, -3.45 -3.44, -1.18 -2.14 M-5.01 -4.35 C-3.8 -3.65, -2.59 -2.95, -1.18 -2.14 M-1.18 -2.14 C-1.18 -2.14, -1.18 -2.14, -1.18 -2.14 M-1.18 -2.14 C-1.18 -2.14, -1.18 -2.14, -1.18 -2.14 M-1.18 -2.14 C-1.18 -2.14, -1.18 -2.14, -1.18 -2.14 M-1.18 -2.14 C-1.18 -2.14, -1.18 -2.14, -1.18 -2.14" stroke="#00000000" stroke-width="1" fill="none"></path></g></g><g stroke-linecap="round"><g transform="translate(483.1238503700283 143.57357168730505) rotate(0 -1.5640407574740038 -2.347742314637401)" fill-rule="evenodd"><path d="M-1.33 -2.22 L-5.63 0.27 L-5.63 4.68 L2.5 -0.01 L2.5 -9.37 L-1.33 -7.16 L-1.33 -2.22 L-1.33 -2.22" stroke="none" stroke-width="0" fill="#aecbfa" fill-rule="evenodd"></path><path d="M-1.33 -2.22 C-2.61 -1.48, -3.88 -0.74, -5.63 0.27 M-1.33 -2.22 C-2.43 -1.58, -3.53 -0.94, -5.63 0.27 M-5.63 0.27 C-5.63 1.58, -5.63 2.9, -5.63 4.68 M-5.63 0.27 C-5.63 1.52, -5.63 2.78, -5.63 4.68 M-5.63 4.68 C-3.76 3.6, -1.89 2.53, 2.5 -0.01 M-5.63 4.68 C-2.49 2.87, 0.64 1.07, 2.5 -0.01 M2.5 -0.01 C2.5 -3.11, 2.5 -6.21, 2.5 -9.37 M2.5 -0.01 C2.5 -2.04, 2.5 -4.07, 2.5 -9.37 M2.5 -9.37 C1.35 -8.71, 0.2 -8.05, -1.33 -7.16 M2.5 -9.37 C1.29 -8.68, 0.09 -7.98, -1.33 -7.16 M-1.33 -7.16 C-1.33 -5.47, -1.33 -3.78, -1.33 -2.22 M-1.33 -7.16 C-1.33 -5.23, -1.33 -3.31, -1.33 -2.22 M-1.33 -2.22 C-1.33 -2.22, -1.33 -2.22, -1.33 -2.22 M-1.33 -2.22 C-1.33 -2.22, -1.33 -2.22, -1.33 -2.22 M-1.33 -2.22 C-1.33 -2.22, -1.33 -2.22, -1.33 -2.22 M-1.33 -2.22 C-1.33 -2.22, -1.33 -2.22, -1.33 -2.22" stroke="#00000000" stroke-width="1" fill="none"></path></g></g></svg>