<svg version="1.1" xmlns="http://www.w3.org/2000/svg" viewBox="0 0 864.8979591836733 320" width="864.8979591836733" height="320">
  <!-- svg-source:excalidraw -->
  
  <defs>
    <style>
      @font-face {
        font-family: "Virgil";
        src: url("https://excalidraw.com/Virgil.woff2");
      }
      @font-face {
        font-family: "Cascadia";
        src: url("https://excalidraw.com/Cascadia.woff2");
      }
    </style>
  </defs>
  <rect x="0" y="0" width="864.8979591836733" height="320" fill="transparent"></rect><g stroke-linecap="round" transform="translate(10 10) rotate(0 422.44897959183663 150)"><path d="M0 0 L844.9 0 L844.9 300 L0 300" stroke="none" stroke-width="0" fill="#f5f5f5"></path><path d="M0 0 C175.25 0, 350.51 0, 844.9 0 M0 0 C280.14 0, 560.27 0, 844.9 0 M844.9 0 C844.9 105.23, 844.9 210.45, 844.9 300 M844.9 0 C844.9 116.41, 844.9 232.81, 844.9 300 M844.9 300 C581.18 300, 317.47 300, 0 300 M844.9 300 C533.49 300, 222.08 300, 0 300 M0 300 C0 184.51, 0 69.03, 0 0 M0 300 C0 235.25, 0 170.5, 0 0" stroke="#000000" stroke-width="2" fill="none"></path></g><g stroke-linecap="round" transform="translate(248.775510204081 65.10204081632628) rotate(0 281.6326530612246 104.08163265306112)"><path d="M0 0 L563.27 0 L563.27 208.16 L0 208.16" stroke="none" stroke-width="0" fill="#d3e3fa"></path><path d="M0 0 C161.39 0, 322.78 0, 563.27 0 M0 0 C216.35 0, 432.69 0, 563.27 0 M563.27 0 C563.27 48.79, 563.27 97.57, 563.27 208.16 M563.27 0 C563.27 80.53, 563.27 161.06, 563.27 208.16 M563.27 208.16 C347.33 208.16, 131.39 208.16, 0 208.16 M563.27 208.16 C381.7 208.16, 200.12 208.16, 0 208.16 M0 208.16 C0 140.55, 0 72.95, 0 0 M0 208.16 C0 155.63, 0 103.1, 0 0" stroke="#000000" stroke-width="2" fill="none"></path></g><g stroke-linecap="round" transform="translate(658.9795918367336 83.46938775510154) rotate(0 61.224489795918316 27.551020408163254)"><path d="M13.78 0 L108.67 0 L114.7 0.86 L119.01 3.44 L120.51 5.38 L122.23 10.55 L122.45 41.33 L121.59 47.35 L119.01 51.66 L117.07 53.16 L114.7 54.24 L108.67 55.1 L13.78 55.1 L7.75 54.24 L3.44 51.66 L0.86 47.35 L0.22 44.56 L0.22 10.55 L1.94 5.38 L3.44 3.44 L7.75 0.86 L13.78 0" stroke="none" stroke-width="0" fill="#FFF"></path><path d="M13.78 0 M13.78 0 C50.91 0, 88.05 0, 108.67 0 M13.78 0 C39.52 0, 65.27 0, 108.67 0 M108.67 0 C117.86 0, 122.45 4.59, 122.45 13.78 M108.67 0 C117.86 0, 122.45 4.59, 122.45 13.78 M122.45 13.78 C122.45 21.63, 122.45 29.48, 122.45 41.33 M122.45 13.78 C122.45 23.93, 122.45 34.08, 122.45 41.33 M122.45 41.33 C122.45 50.51, 117.86 55.1, 108.67 55.1 M122.45 41.33 C122.45 50.51, 117.86 55.1, 108.67 55.1 M108.67 55.1 C89.16 55.1, 69.65 55.1, 13.78 55.1 M108.67 55.1 C81.47 55.1, 54.26 55.1, 13.78 55.1 M13.78 55.1 C4.59 55.1, 0 50.51, 0 41.33 M13.78 55.1 C4.59 55.1, 0 50.51, 0 41.33 M0 41.33 C0 34.09, 0 26.86, 0 13.78 M0 41.33 C0 32.75, 0 24.17, 0 13.78 M0 13.78 C0 4.59, 4.59 0, 13.78 0 M0 13.78 C0 4.59, 4.59 0, 13.78 0" stroke="#4285f4" stroke-width="2" fill="none"></path></g><g transform="translate(707.9591836734662 107.95918367346951) rotate(0 29.387755102040728 10.714285714285722)"><text x="0" y="8.714285714285712" font-family="Helvetica, Segoe UI Emoji" font-size="9.18367346938775px" fill="#000000" text-anchor="start" style="white-space: pre;" direction="ltr">Cloud Storage</text><text x="0" y="19.428571428571423" font-family="Helvetica, Segoe UI Emoji" font-size="9.18367346938775px" fill="#000000" text-anchor="start" style="white-space: pre;" direction="ltr"></text></g><g stroke-linecap="round" transform="translate(673.6479592444957 102.85714297878508) rotate(0 10.204082119221539 3.5714288147128457)"><path d="M0 0 L20.41 0 L20.41 7.14 L0 7.14" stroke="none" stroke-width="0" fill="#aecbfa"></path><path d="M0 0 C6.77 0, 13.53 0, 20.41 0 M0 0 C7.16 0, 14.32 0, 20.41 0 M20.41 0 C20.41 2.77, 20.41 5.54, 20.41 7.14 M20.41 0 C20.41 2.23, 20.41 4.46, 20.41 7.14 M20.41 7.14 C12.89 7.14, 5.36 7.14, 0 7.14 M20.41 7.14 C12.55 7.14, 4.7 7.14, 0 7.14 M0 7.14 C0 5.6, 0 4.06, 0 0 M0 7.14 C0 4.32, 0 1.5, 0 0" stroke="transparent" stroke-width="1" fill="none"></path></g><g stroke-linecap="round" transform="translate(692.015307095588 102.85714297878508) rotate(0 1.0204081936758485 3.5714288147128457)"><path d="M0 0 L2.04 0 L2.04 7.14 L0 7.14" stroke="none" stroke-width="0" fill="#669df6"></path><path d="M0 0 C0.78 0, 1.57 0, 2.04 0 M0 0 C0.48 0, 0.96 0, 2.04 0 M2.04 0 C2.04 2.76, 2.04 5.53, 2.04 7.14 M2.04 0 C2.04 2.74, 2.04 5.48, 2.04 7.14 M2.04 7.14 C1.38 7.14, 0.73 7.14, 0 7.14 M2.04 7.14 C1.38 7.14, 0.72 7.14, 0 7.14 M0 7.14 C0 5.34, 0 3.54, 0 0 M0 7.14 C0 5.61, 0 4.08, 0 0" stroke="transparent" stroke-width="1" fill="none"></path></g><g stroke-linecap="round"><g transform="translate(694.0561229355499 102.85714297878508) rotate(0 -1.020407919981153 3.571428632249649)" fill-rule="evenodd"><path d="M0 0 L-2.04 0 L-2.04 7.14 L0 0 L0 0" stroke="none" stroke-width="0" fill="#4285f4" fill-rule="evenodd"></path><path d="M0 0 C-0.64 0, -1.28 0, -2.04 0 M0 0 C-0.43 0, -0.85 0, -2.04 0 M-2.04 0 C-2.04 1.62, -2.04 3.24, -2.04 7.14 M-2.04 0 C-2.04 1.77, -2.04 3.54, -2.04 7.14 M-2.04 7.14 C-1.42 4.97, -0.8 2.8, 0 0 M-2.04 7.14 C-1.58 5.52, -1.11 3.89, 0 0 M0 0 C0 0, 0 0, 0 0 M0 0 C0 0, 0 0, 0 0 M0 0 C0 0, 0 0, 0 0 M0 0 C0 0, 0 0, 0 0" stroke="#00000000" stroke-width="1" fill="none"></path></g></g><g stroke-linecap="round" transform="translate(673.6479592444989 102.85714297878508) rotate(0 1.0204081936758485 3.5714288147128457)"><path d="M0 0 L2.04 0 L2.04 7.14 L0 7.14" stroke="none" stroke-width="0" fill="#669df6"></path><path d="M0 0 C0.78 0, 1.56 0, 2.04 0 M0 0 C0.76 0, 1.52 0, 2.04 0 M2.04 0 C2.04 1.71, 2.04 3.42, 2.04 7.14 M2.04 0 C2.04 2.27, 2.04 4.55, 2.04 7.14 M2.04 7.14 C1.45 7.14, 0.85 7.14, 0 7.14 M2.04 7.14 C1.46 7.14, 0.87 7.14, 0 7.14 M0 7.14 C0 4.76, 0 2.37, 0 0 M0 7.14 C0 4.7, 0 2.27, 0 0" stroke="transparent" stroke-width="1" fill="none"></path></g><g stroke-linecap="round" transform="translate(677.7295918367345 105.9183678335072) rotate(0 3.0612244897959044 0.5102040968379242)"><path d="M0 0 L6.12 0 L6.12 1.02 L0 1.02" stroke="none" stroke-width="0" fill="#fff"></path><path d="M0 0 C1.83 0, 3.66 0, 6.12 0 M0 0 C1.86 0, 3.71 0, 6.12 0 M6.12 0 C6.12 0.33, 6.12 0.66, 6.12 1.02 M6.12 0 C6.12 0.26, 6.12 0.53, 6.12 1.02 M6.12 1.02 C3.99 1.02, 1.86 1.02, 0 1.02 M6.12 1.02 C3.69 1.02, 1.25 1.02, 0 1.02 M0 1.02 C0 0.62, 0 0.21, 0 0 M0 1.02 C0 0.64, 0 0.26, 0 0" stroke="transparent" stroke-width="1" fill="none"></path></g><g stroke-linecap="round" transform="translate(686.9132653061206 104.8979591836736) rotate(0 1.530612244898066 1.5306122448979522)"><path d="M0.77 0 L2.87 0.19 L2.87 2.87 L0.19 2.87 L0 0.77 L0.77 0" stroke="none" stroke-width="0" fill="#fff"></path><path d="M0.77 0 M0.77 0 C1.24 0, 1.71 0, 2.3 0 M0.77 0 C1.11 0, 1.46 0, 2.3 0 M2.3 0 C2.81 0, 3.06 0.26, 3.06 0.77 M2.3 0 C2.81 0, 3.06 0.26, 3.06 0.77 M3.06 0.77 C3.06 1.35, 3.06 1.94, 3.06 2.3 M3.06 0.77 C3.06 1.23, 3.06 1.7, 3.06 2.3 M3.06 2.3 C3.06 2.81, 2.81 3.06, 2.3 3.06 M3.06 2.3 C3.06 2.81, 2.81 3.06, 2.3 3.06 M2.3 3.06 C1.84 3.06, 1.38 3.06, 0.77 3.06 M2.3 3.06 C1.97 3.06, 1.65 3.06, 0.77 3.06 M0.77 3.06 C0.26 3.06, 0 2.81, 0 2.3 M0.77 3.06 C0.26 3.06, 0 2.81, 0 2.3 M0 2.3 C0 1.8, 0 1.3, 0 0.77 M0 2.3 C0 1.92, 0 1.55, 0 0.77 M0 0.77 C0 0.26, 0.26 0, 0.77 0 M0 0.77 C0 0.26, 0.26 0, 0.77 0" stroke="transparent" stroke-width="1" fill="none"></path></g><g stroke-linecap="round" transform="translate(673.6479592444957 112.04081681309924) rotate(0 10.204082119221539 3.5714288147128457)"><path d="M0 0 L20.41 0 L20.41 7.14 L0 7.14" stroke="none" stroke-width="0" fill="#aecbfa"></path><path d="M0 0 C7.24 0, 14.49 0, 20.41 0 M0 0 C6.31 0, 12.62 0, 20.41 0 M20.41 0 C20.41 1.5, 20.41 3, 20.41 7.14 M20.41 0 C20.41 2.74, 20.41 5.48, 20.41 7.14 M20.41 7.14 C12.38 7.14, 4.35 7.14, 0 7.14 M20.41 7.14 C14.29 7.14, 8.17 7.14, 0 7.14 M0 7.14 C0 4.91, 0 2.68, 0 0 M0 7.14 C0 4.81, 0 2.47, 0 0" stroke="transparent" stroke-width="1" fill="none"></path></g><g stroke-linecap="round" transform="translate(692.015307095588 112.04081681309924) rotate(0 1.0204081936758485 3.5714288147128457)"><path d="M0 0 L2.04 0 L2.04 7.14 L0 7.14" stroke="none" stroke-width="0" fill="#669df6"></path><path d="M0 0 C0.44 0, 0.88 0, 2.04 0 M0 0 C0.44 0, 0.87 0, 2.04 0 M2.04 0 C2.04 2.75, 2.04 5.49, 2.04 7.14 M2.04 0 C2.04 2.29, 2.04 4.57, 2.04 7.14 M2.04 7.14 C1.59 7.14, 1.15 7.14, 0 7.14 M2.04 7.14 C1.48 7.14, 0.91 7.14, 0 7.14 M0 7.14 C0 4.34, 0 1.54, 0 0 M0 7.14 C0 5.25, 0 3.36, 0 0" stroke="transparent" stroke-width="1" fill="none"></path></g><g stroke-linecap="round"><g transform="translate(694.0561229355499 112.04081681309924) rotate(0 -1.020407919981153 3.5714288147128457)" fill-rule="evenodd"><path d="M0 0 L-2.04 0 L-2.04 7.14 L0 0 L0 0" stroke="none" stroke-width="0" fill="#4285f4" fill-rule="evenodd"></path><path d="M0 0 C-0.76 0, -1.52 0, -2.04 0 M0 0 C-0.74 0, -1.48 0, -2.04 0 M-2.04 0 C-2.04 2.33, -2.04 4.66, -2.04 7.14 M-2.04 0 C-2.04 2.4, -2.04 4.8, -2.04 7.14 M-2.04 7.14 C-1.39 4.86, -0.74 2.57, 0 0 M-2.04 7.14 C-1.56 5.45, -1.08 3.76, 0 0 M0 0 C0 0, 0 0, 0 0 M0 0 C0 0, 0 0, 0 0 M0 0 C0 0, 0 0, 0 0 M0 0 C0 0, 0 0, 0 0" stroke="#00000000" stroke-width="1" fill="none"></path></g></g><g stroke-linecap="round" transform="translate(673.6479592444989 112.04081681309924) rotate(0 1.0204081936758485 3.5714288147128457)"><path d="M0 0 L2.04 0 L2.04 7.14 L0 7.14" stroke="none" stroke-width="0" fill="#669df6"></path><path d="M0 0 C0.53 0, 1.06 0, 2.04 0 M0 0 C0.68 0, 1.37 0, 2.04 0 M2.04 0 C2.04 1.71, 2.04 3.42, 2.04 7.14 M2.04 0 C2.04 2.8, 2.04 5.59, 2.04 7.14 M2.04 7.14 C1.41 7.14, 0.79 7.14, 0 7.14 M2.04 7.14 C1.46 7.14, 0.88 7.14, 0 7.14 M0 7.14 C0 5.15, 0 3.15, 0 0 M0 7.14 C0 5.67, 0 4.21, 0 0" stroke="transparent" stroke-width="1" fill="none"></path></g><g stroke-linecap="round" transform="translate(677.7295918367345 115.10204130289526) rotate(0 3.0612244897959044 0.5102040968379242)"><path d="M0 0 L6.12 0 L6.12 1.02 L0 1.02" stroke="none" stroke-width="0" fill="#fff"></path><path d="M0 0 C1.89 0, 3.79 0, 6.12 0 M0 0 C1.91 0, 3.83 0, 6.12 0 M6.12 0 C6.12 0.26, 6.12 0.53, 6.12 1.02 M6.12 0 C6.12 0.38, 6.12 0.75, 6.12 1.02 M6.12 1.02 C4.68 1.02, 3.23 1.02, 0 1.02 M6.12 1.02 C4.5 1.02, 2.88 1.02, 0 1.02 M0 1.02 C0 0.69, 0 0.37, 0 0 M0 1.02 C0 0.7, 0 0.38, 0 0" stroke="transparent" stroke-width="1" fill="none"></path></g><g stroke-linecap="round" transform="translate(686.9132653061206 114.0816326530612) rotate(0 1.530612244898066 1.5306122448979522)"><path d="M0.77 0 L2.87 0.19 L2.87 2.87 L0.19 2.87 L0 0.77 L0.77 0" stroke="none" stroke-width="0" fill="#fff"></path><path d="M0.77 0 M0.77 0 C1.36 0, 1.95 0, 2.3 0 M0.77 0 C1.26 0, 1.76 0, 2.3 0 M2.3 0 C2.81 0, 3.06 0.26, 3.06 0.77 M2.3 0 C2.81 0, 3.06 0.26, 3.06 0.77 M3.06 0.77 C3.06 1.26, 3.06 1.75, 3.06 2.3 M3.06 0.77 C3.06 1.25, 3.06 1.74, 3.06 2.3 M3.06 2.3 C3.06 2.81, 2.81 3.06, 2.3 3.06 M3.06 2.3 C3.06 2.81, 2.81 3.06, 2.3 3.06 M2.3 3.06 C1.91 3.06, 1.52 3.06, 0.77 3.06 M2.3 3.06 C1.72 3.06, 1.14 3.06, 0.77 3.06 M0.77 3.06 C0.26 3.06, 0 2.81, 0 2.3 M0.77 3.06 C0.26 3.06, 0 2.81, 0 2.3 M0 2.3 C0 1.82, 0 1.35, 0 0.77 M0 2.3 C0 1.7, 0 1.11, 0 0.77 M0 0.77 C0 0.26, 0.26 0, 0.77 0 M0 0.77 C0 0.26, 0.26 0, 0.77 0" stroke="transparent" stroke-width="1" fill="none"></path></g><g transform="translate(707.9591836734712 95.71428571428532) rotate(0 13.316326530612287 4.897959183673464)"><text x="0" y="7.795918367346935" font-family="Helvetica, Segoe UI Emoji" font-size="8.571428571428571px" fill="#495057" text-anchor="start" style="white-space: pre;" direction="ltr">Photos</text></g><g transform="translate(297.75510204081775 236.53061224489772) rotate(0 48.9795918367347 9.233857477417189)"><text x="0" y="14.467714954834385" font-family="Helvetica, Segoe UI Emoji" font-size="16.058882569421197px" fill="#000000" text-anchor="start" style="white-space: pre;" direction="ltr">Google Cloud</text></g><g stroke-linecap="round" transform="translate(291.63265306122275 163.06122448979647) rotate(0 61.224489795918316 27.551020408163254)"><path d="M13.78 0 L108.67 0 L114.7 0.86 L119.01 3.44 L120.51 5.38 L122.23 10.55 L122.45 41.33 L121.59 47.35 L119.01 51.66 L117.07 53.16 L114.7 54.24 L108.67 55.1 L13.78 55.1 L7.75 54.24 L3.44 51.66 L0.86 47.35 L0.22 44.56 L0.22 10.55 L1.94 5.38 L3.44 3.44 L7.75 0.86 L13.78 0" stroke="none" stroke-width="0" fill="#FFF"></path><path d="M13.78 0 M13.78 0 C40.31 0, 66.85 0, 108.67 0 M13.78 0 C34.9 0, 56.02 0, 108.67 0 M108.67 0 C117.86 0, 122.45 4.59, 122.45 13.78 M108.67 0 C117.86 0, 122.45 4.59, 122.45 13.78 M122.45 13.78 C122.45 21.13, 122.45 28.48, 122.45 41.33 M122.45 13.78 C122.45 22.73, 122.45 31.69, 122.45 41.33 M122.45 41.33 C122.45 50.51, 117.86 55.1, 108.67 55.1 M122.45 41.33 C122.45 50.51, 117.86 55.1, 108.67 55.1 M108.67 55.1 C71.29 55.1, 33.92 55.1, 13.78 55.1 M108.67 55.1 C75.87 55.1, 43.06 55.1, 13.78 55.1 M13.78 55.1 C4.59 55.1, 0 50.51, 0 41.33 M13.78 55.1 C4.59 55.1, 0 50.51, 0 41.33 M0 41.33 C0 32.57, 0 23.81, 0 13.78 M0 41.33 C0 32.04, 0 22.76, 0 13.78 M0 13.78 C0 4.59, 4.59 0, 13.78 0 M0 13.78 C0 4.59, 4.59 0, 13.78 0" stroke="#4285f4" stroke-width="2" fill="none"></path></g><g transform="translate(341.37755102041046 179.89795918367395) rotate(0 32.525510204081684 10.714285714285722)"><text x="0" y="8.714285714285712" font-family="Helvetica, Segoe UI Emoji" font-size="9.18367346938775px" fill="#000000" text-anchor="start" style="white-space: pre;" direction="ltr">Cloud Load</text><text x="0" y="19.428571428571423" font-family="Helvetica, Segoe UI Emoji" font-size="9.18367346938775px" fill="#000000" text-anchor="start" style="white-space: pre;" direction="ltr">Balancing</text></g><g stroke-linecap="round"><g transform="translate(317.4030618278348 189.41743865304994) rotate(0 -1.0463830159635563 -2.092763842368612)" fill-rule="evenodd"><path d="M0 0 L-2.09 0 L-2.09 -4.19 L0 -4.19 L0 0" stroke="none" stroke-width="0" fill="#4285f4" fill-rule="evenodd"></path><path d="M0 0 C-0.65 0, -1.31 0, -2.09 0 M0 0 C-0.77 0, -1.54 0, -2.09 0 M-2.09 0 C-2.09 -1.61, -2.09 -3.22, -2.09 -4.19 M-2.09 0 C-2.09 -0.9, -2.09 -1.81, -2.09 -4.19 M-2.09 -4.19 C-1.27 -4.19, -0.44 -4.19, 0 -4.19 M-2.09 -4.19 C-1.35 -4.19, -0.61 -4.19, 0 -4.19 M0 -4.19 C0 -3.26, 0 -2.34, 0 0 M0 -4.19 C0 -3.03, 0 -1.87, 0 0 M0 0 C0 0, 0 0, 0 0 M0 0 C0 0, 0 0, 0 0" stroke="#00000000" stroke-width="1" fill="none"></path></g></g><g stroke-linecap="round"><g transform="translate(307.98562161776545 189.41743865305136) rotate(0 8.37105646425357 2.615955532813558)" fill-rule="evenodd"><path d="M0 0 L0 5.23 L2.09 5.23 L2.09 2.09 L7.32 2.09 L7.32 5.23 L9.42 5.23 L9.42 2.09 L14.65 2.09 L14.65 5.23 L16.74 5.23 L16.74 0 L0 0" stroke="none" stroke-width="0" fill="#669df6" fill-rule="evenodd"></path><path d="M0 0 C0 2.01, 0 4.01, 0 5.23 M0 0 C0 1.69, 0 3.37, 0 5.23 M0 5.23 C0.68 5.23, 1.36 5.23, 2.09 5.23 M0 5.23 C0.53 5.23, 1.06 5.23, 2.09 5.23 M2.09 5.23 C2.09 4.56, 2.09 3.89, 2.09 2.09 M2.09 5.23 C2.09 4.26, 2.09 3.29, 2.09 2.09 M2.09 2.09 C3.94 2.09, 5.78 2.09, 7.32 2.09 M2.09 2.09 C3.2 2.09, 4.31 2.09, 7.32 2.09 M7.32 2.09 C7.32 3.25, 7.32 4.4, 7.32 5.23 M7.32 2.09 C7.32 3.32, 7.32 4.55, 7.32 5.23 M7.32 5.23 C8.15 5.23, 8.98 5.23, 9.42 5.23 M7.32 5.23 C7.95 5.23, 8.58 5.23, 9.42 5.23 M9.42 5.23 C9.42 4.42, 9.42 3.6, 9.42 2.09 M9.42 5.23 C9.42 4.16, 9.42 3.09, 9.42 2.09 M9.42 2.09 C10.77 2.09, 12.11 2.09, 14.65 2.09 M9.42 2.09 C11.38 2.09, 13.33 2.09, 14.65 2.09 M14.65 2.09 C14.65 3.15, 14.65 4.2, 14.65 5.23 M14.65 2.09 C14.65 2.87, 14.65 3.65, 14.65 5.23 M14.65 5.23 C15.22 5.23, 15.8 5.23, 16.74 5.23 M14.65 5.23 C15.3 5.23, 15.95 5.23, 16.74 5.23 M16.74 5.23 C16.74 3.83, 16.74 2.42, 16.74 0 M16.74 5.23 C16.74 3.52, 16.74 1.8, 16.74 0 M16.74 0 C11.58 0, 6.42 0, 0 0 M16.74 0 C13.26 0, 9.77 0, 0 0 M0 0 C0 0, 0 0, 0 0 M0 0 C0 0, 0 0, 0 0" stroke="#00000000" stroke-width="1" fill="none"></path></g></g><g stroke-linecap="round"><g transform="translate(310.07838582505747 179.9999999026861) rotate(0 6.278293169274548 2.615955532813558)" fill-rule="evenodd"><path d="M0 0 L12.56 0 L12.56 5.23 L0 5.23 L0 0" stroke="none" stroke-width="0" fill="#aecbfa" fill-rule="evenodd"></path><path d="M0 0 C3.11 0, 6.22 0, 12.56 0 M0 0 C3.82 0, 7.63 0, 12.56 0 M12.56 0 C12.56 1.19, 12.56 2.38, 12.56 5.23 M12.56 0 C12.56 1.11, 12.56 2.21, 12.56 5.23 M12.56 5.23 C9.38 5.23, 6.21 5.23, 0 5.23 M12.56 5.23 C9.51 5.23, 6.47 5.23, 0 5.23 M0 5.23 C0 3.99, 0 2.76, 0 0 M0 5.23 C0 3.67, 0 2.11, 0 0 M0 0 C0 0, 0 0, 0 0 M0 0 C0 0, 0 0, 0 0" stroke="#00000000" stroke-width="1" fill="none"></path></g></g><g stroke-linecap="round"><g transform="translate(316.356678446949 179.9999999026861) rotate(0 3.1391468583321966 2.615955532813558)" fill-rule="evenodd"><path d="M0 0 L6.28 0 L6.28 5.23 L0 5.23 L0 0" stroke="none" stroke-width="0" fill="#669df6" fill-rule="evenodd"></path><path d="M0 0 C2 0, 4 0, 6.28 0 M0 0 C1.83 0, 3.66 0, 6.28 0 M6.28 0 C6.28 1.5, 6.28 2.99, 6.28 5.23 M6.28 0 C6.28 1.75, 6.28 3.5, 6.28 5.23 M6.28 5.23 C4.13 5.23, 1.99 5.23, 0 5.23 M6.28 5.23 C3.82 5.23, 1.36 5.23, 0 5.23 M0 5.23 C0 3.97, 0 2.71, 0 0 M0 5.23 C0 4.02, 0 2.81, 0 0 M0 0 C0 0, 0 0, 0 0 M0 0 C0 0, 0 0, 0 0" stroke="#00000000" stroke-width="1" fill="none"></path></g></g><g stroke-linecap="round"><g transform="translate(320.5422068615353 194.64934971867797) rotate(0 3.139146493405633 3.1391464934057183)" fill-rule="evenodd"><path d="M0 0 L6.28 0 L6.28 6.28 L0 6.28 L0 0" stroke="none" stroke-width="0" fill="#aecbfa" fill-rule="evenodd"></path><path d="M0 0 C1.63 0, 3.26 0, 6.28 0 M0 0 C2.18 0, 4.37 0, 6.28 0 M6.28 0 C6.28 2.5, 6.28 4.99, 6.28 6.28 M6.28 0 C6.28 2.48, 6.28 4.96, 6.28 6.28 M6.28 6.28 C3.95 6.28, 1.63 6.28, 0 6.28 M6.28 6.28 C4.67 6.28, 3.06 6.28, 0 6.28 M0 6.28 C0 3.8, 0 1.32, 0 0 M0 6.28 C0 4.54, 0 2.81, 0 0 M0 0 C0 0, 0 0, 0 0 M0 0 C0 0, 0 0, 0 0" stroke="#00000000" stroke-width="1" fill="none"></path></g></g><g stroke-linecap="round"><g transform="translate(305.8928570455473 194.64934971867797) rotate(0 3.139146493405633 3.1391464934057183)" fill-rule="evenodd"><path d="M0 0 L6.28 0 L6.28 6.28 L0 6.28 L0 0" stroke="none" stroke-width="0" fill="#aecbfa" fill-rule="evenodd"></path><path d="M0 0 C2.25 0, 4.49 0, 6.28 0 M0 0 C1.7 0, 3.41 0, 6.28 0 M6.28 0 C6.28 2.39, 6.28 4.78, 6.28 6.28 M6.28 0 C6.28 2.31, 6.28 4.63, 6.28 6.28 M6.28 6.28 C4.88 6.28, 3.48 6.28, 0 6.28 M6.28 6.28 C4.48 6.28, 2.68 6.28, 0 6.28 M0 6.28 C0 4.24, 0 2.2, 0 0 M0 6.28 C0 4.32, 0 2.37, 0 0 M0 0 C0 0, 0 0, 0 0 M0 0 C0 0, 0 0, 0 0" stroke="#00000000" stroke-width="1" fill="none"></path></g></g><g stroke-linecap="round"><g transform="translate(309.03200390387656 194.64934971867797) rotate(0 1.5695730642396484 3.1391464934057183)" fill-rule="evenodd"><path d="M0 0 L3.14 0 L3.14 6.28 L0 6.28 L0 0" stroke="none" stroke-width="0" fill="#669df6" fill-rule="evenodd"></path><path d="M0 0 C1.2 0, 2.41 0, 3.14 0 M0 0 C1.23 0, 2.47 0, 3.14 0 M3.14 0 C3.14 1.88, 3.14 3.77, 3.14 6.28 M3.14 0 C3.14 1.96, 3.14 3.93, 3.14 6.28 M3.14 6.28 C2.11 6.28, 1.09 6.28, 0 6.28 M3.14 6.28 C2.23 6.28, 1.31 6.28, 0 6.28 M0 6.28 C0 4.68, 0 3.08, 0 0 M0 6.28 C0 4.11, 0 1.94, 0 0 M0 0 C0 0, 0 0, 0 0 M0 0 C0 0, 0 0, 0 0" stroke="#00000000" stroke-width="1" fill="none"></path></g></g><g stroke-linecap="round"><g transform="translate(313.2175319535404 194.64934971867797) rotate(0 3.1391468583321966 3.1391464934057183)" fill-rule="evenodd"><path d="M0 0 L6.28 0 L6.28 6.28 L0 6.28 L0 0" stroke="none" stroke-width="0" fill="#aecbfa" fill-rule="evenodd"></path><path d="M0 0 C2.01 0, 4.02 0, 6.28 0 M0 0 C1.37 0, 2.75 0, 6.28 0 M6.28 0 C6.28 1.73, 6.28 3.46, 6.28 6.28 M6.28 0 C6.28 2.46, 6.28 4.93, 6.28 6.28 M6.28 6.28 C4.62 6.28, 2.95 6.28, 0 6.28 M6.28 6.28 C4.28 6.28, 2.28 6.28, 0 6.28 M0 6.28 C0 4.72, 0 3.17, 0 0 M0 6.28 C0 4.59, 0 2.91, 0 0 M0 0 C0 0, 0 0, 0 0 M0 0 C0 0, 0 0, 0 0" stroke="#00000000" stroke-width="1" fill="none"></path></g></g><g stroke-linecap="round"><g transform="translate(316.3566784469449 194.64934971867797) rotate(0 1.5695736116292665 3.1391464934057183)" fill-rule="evenodd"><path d="M0 0 L3.14 0 L3.14 6.28 L0 6.28 L0 0" stroke="none" stroke-width="0" fill="#669df6" fill-rule="evenodd"></path><path d="M0 0 C1.05 0, 2.11 0, 3.14 0 M0 0 C1 0, 2.01 0, 3.14 0 M3.14 0 C3.14 1.48, 3.14 2.97, 3.14 6.28 M3.14 0 C3.14 2.38, 3.14 4.76, 3.14 6.28 M3.14 6.28 C2.46 6.28, 1.77 6.28, 0 6.28 M3.14 6.28 C1.92 6.28, 0.7 6.28, 0 6.28 M0 6.28 C0 4.32, 0 2.37, 0 0 M0 6.28 C0 4.57, 0 2.87, 0 0 M0 0 C0 0, 0 0, 0 0 M0 0 C0 0, 0 0, 0 0" stroke="#00000000" stroke-width="1" fill="none"></path></g></g><g stroke-linecap="round"><g transform="translate(323.6813548146429 194.64934971867797) rotate(0 1.5695725168500303 3.1391464934057183)" fill-rule="evenodd"><path d="M0 0 L3.14 0 L3.14 6.28 L0 6.28 L0 0" stroke="none" stroke-width="0" fill="#669df6" fill-rule="evenodd"></path><path d="M0 0 C1.23 0, 2.46 0, 3.14 0 M0 0 C0.97 0, 1.93 0, 3.14 0 M3.14 0 C3.14 1.79, 3.14 3.58, 3.14 6.28 M3.14 0 C3.14 1.76, 3.14 3.51, 3.14 6.28 M3.14 6.28 C2.49 6.28, 1.85 6.28, 0 6.28 M3.14 6.28 C2.3 6.28, 1.46 6.28, 0 6.28 M0 6.28 C0 4.63, 0 2.98, 0 0 M0 6.28 C0 3.81, 0 1.33, 0 0 M0 0 C0 0, 0 0, 0 0 M0 0 C0 0, 0 0, 0 0" stroke="#00000000" stroke-width="1" fill="none"></path></g></g><g stroke-linecap="round"><g transform="translate(169.1836734693893 163.06122448979647) rotate(0 61.224489795918316 15.306122448979579)"><path d="M0 0 C19.37 0, 38.74 0, 48.98 0 M0 0 C16.82 0, 33.63 0, 48.98 0 M48.98 0 C48.98 10.73, 48.98 21.47, 48.98 30.61 M48.98 0 C48.98 8.62, 48.98 17.25, 48.98 30.61 M48.98 30.61 C68.35 30.61, 87.71 30.61, 122.45 30.61 M48.98 30.61 C67.7 30.61, 86.42 30.61, 122.45 30.61" stroke="#4c6ef5" stroke-width="2" fill="none"></path></g><g transform="translate(169.1836734693893 163.06122448979647) rotate(0 61.224489795918316 15.306122448979579)"><path d="M94.26 40.87 C105.41 36.81, 116.56 32.76, 122.45 30.61 M94.26 40.87 C103.94 37.35, 113.61 33.83, 122.45 30.61" stroke="#4c6ef5" stroke-width="2" fill="none"></path></g><g transform="translate(169.1836734693893 163.06122448979647) rotate(0 61.224489795918316 15.306122448979579)"><path d="M94.26 20.35 C105.41 24.41, 116.56 28.47, 122.45 30.61 M94.26 20.35 C103.94 23.87, 113.61 27.4, 122.45 30.61" stroke="#4c6ef5" stroke-width="2" fill="none"></path></g></g><g stroke-linecap="round"><g transform="translate(414.5649838882928 193.94775527625495) rotate(0 30.12889366272816 0.16430493437968607)"><path d="M0 0 C17.24 0.09, 34.48 0.19, 60.26 0.33 M0 0 C20.14 0.11, 40.28 0.22, 60.26 0.33" stroke="#4c6ef5" stroke-width="2" fill="none"></path></g><g transform="translate(414.5649838882928 193.94775527625495) rotate(0 30.12889366272816 0.16430493437968607)"><path d="M32.01 10.44 C40.09 7.54, 48.17 4.65, 60.26 0.33 M32.01 10.44 C41.45 7.06, 50.89 3.68, 60.26 0.33" stroke="#4c6ef5" stroke-width="2" fill="none"></path></g><g transform="translate(414.5649838882928 193.94775527625495) rotate(0 30.12889366272816 0.16430493437968607)"><path d="M32.12 -10.09 C40.17 -7.11, 48.22 -4.13, 60.26 0.33 M32.12 -10.09 C41.53 -6.6, 50.93 -3.12, 60.26 0.33" stroke="#4c6ef5" stroke-width="2" fill="none"></path></g></g><g stroke-linecap="round" transform="translate(475.30612244897975 163.06122448979647) rotate(0 61.224489795918316 27.551020408163254)"><path d="M13.78 0 L108.67 0 L114.7 0.86 L119.01 3.44 L121.59 7.75 L122.23 10.55 L122.45 41.33 L121.59 47.35 L120.51 49.72 L117.07 53.16 L114.7 54.24 L108.67 55.1 L13.78 55.1 L7.75 54.24 L3.44 51.66 L1.94 49.72 L0.22 44.56 L0.22 10.55 L0.86 7.75 L3.44 3.44 L7.75 0.86 L13.78 0" stroke="none" stroke-width="0" fill="#FFF"></path><path d="M13.78 0 M13.78 0 C51.24 0, 88.7 0, 108.67 0 M13.78 0 C40.08 0, 66.38 0, 108.67 0 M108.67 0 C117.86 0, 122.45 4.59, 122.45 13.78 M108.67 0 C117.86 0, 122.45 4.59, 122.45 13.78 M122.45 13.78 C122.45 23.97, 122.45 34.16, 122.45 41.33 M122.45 13.78 C122.45 22.5, 122.45 31.22, 122.45 41.33 M122.45 41.33 C122.45 50.51, 117.86 55.1, 108.67 55.1 M122.45 41.33 C122.45 50.51, 117.86 55.1, 108.67 55.1 M108.67 55.1 C71.02 55.1, 33.36 55.1, 13.78 55.1 M108.67 55.1 C86.32 55.1, 63.96 55.1, 13.78 55.1 M13.78 55.1 C4.59 55.1, 0 50.51, 0 41.33 M13.78 55.1 C4.59 55.1, 0 50.51, 0 41.33 M0 41.33 C0 33.16, 0 24.99, 0 13.78 M0 41.33 C0 35.69, 0 30.06, 0 13.78 M0 13.78 C0 4.59, 4.59 0, 13.78 0 M0 13.78 C0 4.59, 4.59 0, 13.78 0" stroke="#4285f4" stroke-width="2" fill="none"></path></g><g transform="translate(525.0510204081606 179.89795918367395) rotate(0 23.523093447905467 15.950590762620834)"><text x="0" y="8.633727175080558" font-family="Helvetica, Segoe UI Emoji" font-size="9.183673469387756px" fill="#000000" text-anchor="start" style="white-space: pre;" direction="ltr">Google </text><text x="0" y="19.267454350161117" font-family="Helvetica, Segoe UI Emoji" font-size="9.183673469387756px" fill="#000000" text-anchor="start" style="white-space: pre;" direction="ltr">Kubernetes</text><text x="0" y="29.901181525241675" font-family="Helvetica, Segoe UI Emoji" font-size="9.183673469387756px" fill="#000000" text-anchor="start" style="white-space: pre;" direction="ltr">Engine</text></g><g stroke-linecap="round"><g transform="translate(500.34613395223823 179.32116007926436) rotate(0 -0.006445421248145067 11.55209436404462)" fill-rule="evenodd"><path d="M0 0 L-10.18 5.78 L-10.18 17.32 L-0.02 23.1 L10.16 17.28 L10.16 5.67 L0 0" stroke="none" stroke-width="0" fill="#aecbfa" fill-rule="evenodd"></path><path d="M0 0 C-3.05 1.73, -6.1 3.47, -10.18 5.78 M0 0 C-3.18 1.81, -6.36 3.61, -10.18 5.78 M-10.18 5.78 C-10.18 9.55, -10.18 13.32, -10.18 17.32 M-10.18 5.78 C-10.18 9.13, -10.18 12.49, -10.18 17.32 M-10.18 17.32 C-7.59 18.79, -5 20.26, -0.02 23.1 M-10.18 17.32 C-6.67 19.32, -3.16 21.32, -0.02 23.1 M-0.02 23.1 C3.15 21.29, 6.33 19.47, 10.16 17.28 M-0.02 23.1 C3.77 20.93, 7.57 18.76, 10.16 17.28 M10.16 17.28 C10.16 13.98, 10.16 10.68, 10.16 5.67 M10.16 17.28 C10.16 13.51, 10.16 9.75, 10.16 5.67 M10.16 5.67 C7.78 4.34, 5.4 3.01, 0 0 M10.16 5.67 C6.16 3.44, 2.17 1.21, 0 0 M0 0 C0 0, 0 0, 0 0 M0 0 C0 0, 0 0, 0 0" stroke="#00000000" stroke-width="1" fill="none"></path></g></g><g stroke-linecap="round"><g transform="translate(500.3525785524007 181.83458671277924) rotate(0 -0.012889930180108422 9.035446388380876)" fill-rule="evenodd"><path d="M0 0 L-7.99 4.54 L-7.99 13.53 L-0.03 18.07 L7.97 13.5 L7.97 4.45 L0 0" stroke="none" stroke-width="0" fill="#fff" fill-rule="evenodd"></path><path d="M0 0 C-2.2 1.25, -4.41 2.51, -7.99 4.54 M0 0 C-3.14 1.78, -6.27 3.57, -7.99 4.54 M-7.99 4.54 C-7.99 6.92, -7.99 9.3, -7.99 13.53 M-7.99 4.54 C-7.99 7.41, -7.99 10.27, -7.99 13.53 M-7.99 13.53 C-6.02 14.65, -4.04 15.78, -0.03 18.07 M-7.99 13.53 C-5.86 14.75, -3.72 15.97, -0.03 18.07 M-0.03 18.07 C2.71 16.5, 5.46 14.93, 7.97 13.5 M-0.03 18.07 C2.27 16.75, 4.57 15.44, 7.97 13.5 M7.97 13.5 C7.97 11.6, 7.97 9.71, 7.97 4.45 M7.97 13.5 C7.97 10.6, 7.97 7.71, 7.97 4.45 M7.97 4.45 C6.18 3.45, 4.4 2.46, 0 0 M7.97 4.45 C5.42 3.02, 2.87 1.6, 0 0 M0 0 C0 0, 0 0, 0 0 M0 0 C0 0, 0 0, 0 0" stroke="#00000000" stroke-width="1" fill="none"></path></g></g><g stroke-linecap="round"><g transform="translate(500.8488186038262 191.1471540100722) rotate(0 2.258861551479413 1.3469393156012757)" fill-rule="evenodd"><path d="M0 0 L0 5.37 L4.52 2.72 L4.52 -2.67 L0 0" stroke="none" stroke-width="0" fill="#4285f4" fill-rule="evenodd"></path><path d="M0 0 C0 1.27, 0 2.54, 0 5.37 M0 0 C0 2.04, 0 4.07, 0 5.37 M0 5.37 C0.98 4.79, 1.97 4.21, 4.52 2.72 M0 5.37 C1.76 4.34, 3.51 3.31, 4.52 2.72 M4.52 2.72 C4.52 1.04, 4.52 -0.64, 4.52 -2.67 M4.52 2.72 C4.52 1.25, 4.52 -0.21, 4.52 -2.67 M4.52 -2.67 C2.97 -1.76, 1.41 -0.84, 0 0 M4.52 -2.67 C2.84 -1.68, 1.15 -0.68, 0 0 M0 0 C0 0, 0 0, 0 0 M0 0 C0 0, 0 0, 0 0" stroke="#00000000" stroke-width="1" fill="none"></path></g></g><g stroke-linecap="round"><g transform="translate(495.7188511867912 187.6025786691785) rotate(0 4.620838165283203 0.009666535319098557)" fill-rule="evenodd"><path d="M0 0 L4.58 2.66 L9.24 -0.01 L4.58 -2.64 L0 0" stroke="none" stroke-width="0" fill="#aecbfa" fill-rule="evenodd"></path><path d="M0 0 C1.31 0.76, 2.61 1.51, 4.58 2.66 M0 0 C1.28 0.74, 2.56 1.49, 4.58 2.66 M4.58 2.66 C5.54 2.11, 6.5 1.56, 9.24 -0.01 M4.58 2.66 C5.83 1.94, 7.07 1.23, 9.24 -0.01 M9.24 -0.01 C8.02 -0.7, 6.8 -1.39, 4.58 -2.64 M9.24 -0.01 C7.41 -1.04, 5.57 -2.08, 4.58 -2.64 M4.58 -2.64 C3.36 -1.93, 2.13 -1.23, 0 0 M4.58 -2.64 C3.13 -1.8, 1.67 -0.96, 0 0 M0 0 C0 0, 0 0, 0 0 M0 0 C0 0, 0 0, 0 0" stroke="#00000000" stroke-width="1" fill="none"></path></g></g><g stroke-linecap="round"><g transform="translate(495.28705713699947 188.4983890397208) rotate(0 2.226637820808037 4.008593486279864)" fill-rule="evenodd"><path d="M0 0 L4.49 2.68 L4.49 8.02 L-0.03 5.28 L0 0" stroke="none" stroke-width="0" fill="#669df6" fill-rule="evenodd"></path><path d="M0 0 C1.19 0.71, 2.37 1.42, 4.49 2.68 M0 0 C1.43 0.86, 2.87 1.71, 4.49 2.68 M4.49 2.68 C4.49 4.35, 4.49 6.01, 4.49 8.02 M4.49 2.68 C4.49 4.74, 4.49 6.79, 4.49 8.02 M4.49 8.02 C3.35 7.33, 2.21 6.64, -0.03 5.28 M4.49 8.02 C3.16 7.22, 1.83 6.41, -0.03 5.28 M-0.03 5.28 C-0.02 3.29, -0.01 1.3, 0 0 M-0.03 5.28 C-0.02 3.87, -0.01 2.45, 0 0 M0 0 C0 0, 0 0, 0 0 M0 0 C0 0, 0 0, 0 0" stroke="#00000000" stroke-width="1" fill="none"></path></g></g><g stroke-linecap="round"><g transform="translate(500.848818603833 185.6111709439029) rotate(0 -0.5187968818509034 -1.8882921155618249)" fill-rule="evenodd"><path d="M0 0 L0 -3.5 L-0.5 -3.78 L-1.04 -3.46 L-1.04 0 L0 0" stroke="none" stroke-width="0" fill="#aecbfa" fill-rule="evenodd"></path><path d="M0 0 C0 -0.76, 0 -1.51, 0 -3.5 M0 0 C0 -1.38, 0 -2.77, 0 -3.5 M0 -3.5 C-0.18 -3.6, -0.35 -3.7, -0.5 -3.78 M0 -3.5 C-0.11 -3.56, -0.22 -3.62, -0.5 -3.78 M-0.5 -3.78 C-0.65 -3.69, -0.8 -3.6, -1.04 -3.46 M-0.5 -3.78 C-0.66 -3.68, -0.83 -3.58, -1.04 -3.46 M-1.04 -3.46 C-1.04 -2.37, -1.04 -1.27, -1.04 0 M-1.04 -3.46 C-1.04 -2.09, -1.04 -0.73, -1.04 0 M-1.04 0 C-0.79 0, -0.55 0, 0 0 M-1.04 0 C-0.81 0, -0.57 0, 0 0 M0 0 C0 0, 0 0, 0 0 M0 0 C0 0, 0 0, 0 0" stroke="#00000000" stroke-width="1" fill="none"></path></g></g><g stroke-linecap="round"><g transform="translate(508.31820653408977 194.89795947561458) rotate(0 -2.0751882572562863 -0.6799140755011024)" fill-rule="evenodd"><path d="M0 0 L-3.67 -2.13 L-4.15 -1.3 L-0.59 0.77 L0 0.43 L0 0" stroke="none" stroke-width="0" fill="#4285f4" fill-rule="evenodd"></path><path d="M0 0 C-0.93 -0.54, -1.85 -1.08, -3.67 -2.13 M0 0 C-0.79 -0.46, -1.57 -0.91, -3.67 -2.13 M-3.67 -2.13 C-3.82 -1.87, -3.97 -1.62, -4.15 -1.3 M-3.67 -2.13 C-3.84 -1.84, -4.01 -1.54, -4.15 -1.3 M-4.15 -1.3 C-3.39 -0.86, -2.64 -0.42, -0.59 0.77 M-4.15 -1.3 C-2.84 -0.54, -1.54 0.22, -0.59 0.77 M-0.59 0.77 C-0.36 0.64, -0.13 0.51, 0 0.43 M-0.59 0.77 C-0.36 0.64, -0.12 0.5, 0 0.43 M0 0.43 C0 0.3, 0 0.17, 0 0 M0 0.43 C0 0.32, 0 0.21, 0 0 M0 0 C0 0, 0 0, 0 0 M0 0 C0 0, 0 0, 0 0" stroke="#00000000" stroke-width="1" fill="none"></path></g></g><g stroke-linecap="round"><g transform="translate(495.89285758076767 192.78410288752275) rotate(0 -1.5177234094971936 1.4532763130810906)" fill-rule="evenodd"><path d="M0 0 L-3.53 2.13 L-3.53 2.58 L-2.96 2.91 L0.5 0.83 L0 0" stroke="none" stroke-width="0" fill="#669df6" fill-rule="evenodd"></path><path d="M0 0 C-0.75 0.45, -1.49 0.9, -3.53 2.13 M0 0 C-0.89 0.54, -1.79 1.08, -3.53 2.13 M-3.53 2.13 C-3.53 2.24, -3.53 2.35, -3.53 2.58 M-3.53 2.13 C-3.53 2.23, -3.53 2.34, -3.53 2.58 M-3.53 2.58 C-3.36 2.68, -3.19 2.77, -2.96 2.91 M-3.53 2.58 C-3.41 2.65, -3.28 2.72, -2.96 2.91 M-2.96 2.91 C-2.02 2.34, -1.09 1.78, 0.5 0.83 M-2.96 2.91 C-1.99 2.33, -1.02 1.74, 0.5 0.83 M0.5 0.83 C0.39 0.65, 0.28 0.47, 0 0 M0.5 0.83 C0.36 0.6, 0.23 0.38, 0 0 M0 0 C0 0, 0 0, 0 0 M0 0 C0 0, 0 0, 0 0" stroke="#00000000" stroke-width="1" fill="none"></path></g></g><g transform="translate(524.2857142857115 169.18367346938783) rotate(0 20.969387755101934 4.897959183673464)"><text x="0" y="7.795918367346935" font-family="Helvetica, Segoe UI Emoji" font-size="8.571428571428559px" fill="#495057" text-anchor="start" style="white-space: pre;" direction="ltr">Application</text></g><g stroke-linecap="round"><g transform="translate(536.5306122449001 163.06122448979573) rotate(0 0 -24.48979591836735)"><path d="M0 0 C0 -19.33, 0 -38.66, 0 -48.98 M0 0 C0 -18.15, 0 -36.3, 0 -48.98" stroke="#4c6ef5" stroke-width="2" fill="none"></path></g></g><g stroke-linecap="round"><g transform="translate(536.5306122448974 114.0816326530612) rotate(0 61.07142857142867 0)"><path d="M0 0 C45 0, 90 0, 122.14 0 M0 0 C27.18 0, 54.37 0, 122.14 0" stroke="#4c6ef5" stroke-width="2" fill="none"></path></g><g transform="translate(536.5306122448974 114.0816326530612) rotate(0 61.07142857142867 0)"><path d="M93.95 10.26 C104.34 6.48, 114.72 2.7, 122.14 0 M93.95 10.26 C100.23 7.98, 106.5 5.69, 122.14 0" stroke="#4c6ef5" stroke-width="2" fill="none"></path></g><g transform="translate(536.5306122448974 114.0816326530612) rotate(0 61.07142857142867 0)"><path d="M93.95 -10.26 C104.34 -6.48, 114.72 -2.7, 122.14 0 M93.95 -10.26 C100.23 -7.98, 106.5 -5.69, 122.14 0" stroke="#4c6ef5" stroke-width="2" fill="none"></path></g></g><g stroke-linecap="round" transform="translate(658.9795918367336 163.06122448979647) rotate(0 61.224489795918316 27.551020408163254)"><path d="M13.78 0 L108.67 0 L114.7 0.86 L119.01 3.44 L121.59 7.75 L122.23 10.55 L122.45 41.33 L121.59 47.35 L120.51 49.72 L117.07 53.16 L114.7 54.24 L108.67 55.1 L13.78 55.1 L7.75 54.24 L3.44 51.66 L1.94 49.72 L0.22 44.56 L0.22 10.55 L0.86 7.75 L3.44 3.44 L7.75 0.86 L13.78 0" stroke="none" stroke-width="0" fill="#FFF"></path><path d="M13.78 0 M13.78 0 C40.73 0, 67.69 0, 108.67 0 M13.78 0 C34.6 0, 55.42 0, 108.67 0 M108.67 0 C117.86 0, 122.45 4.59, 122.45 13.78 M108.67 0 C117.86 0, 122.45 4.59, 122.45 13.78 M122.45 13.78 C122.45 20.24, 122.45 26.7, 122.45 41.33 M122.45 13.78 C122.45 23.64, 122.45 33.5, 122.45 41.33 M122.45 41.33 C122.45 50.51, 117.86 55.1, 108.67 55.1 M122.45 41.33 C122.45 50.51, 117.86 55.1, 108.67 55.1 M108.67 55.1 C87.73 55.1, 66.79 55.1, 13.78 55.1 M108.67 55.1 C86.62 55.1, 64.57 55.1, 13.78 55.1 M13.78 55.1 C4.59 55.1, 0 50.51, 0 41.33 M13.78 55.1 C4.59 55.1, 0 50.51, 0 41.33 M0 41.33 C0 35.43, 0 29.53, 0 13.78 M0 41.33 C0 32.99, 0 24.65, 0 13.78 M0 13.78 C0 4.59, 4.59 0, 13.78 0 M0 13.78 C0 4.59, 4.59 0, 13.78 0" stroke="#4285f4" stroke-width="2" fill="none"></path></g><g transform="translate(708.7244897959172 185.25510204081627) rotate(0 27.959183673469397 6.530612244897952)"><text x="0" y="11.06122448979591" font-family="Helvetica, Segoe UI Emoji" font-size="11.428571428571415px" fill="#000000" text-anchor="start" style="white-space: pre;" direction="ltr">Cloud SQL</text></g><g stroke-linecap="round"><g transform="translate(676.3724491790831 189.02040822165395) rotate(0 3.7397958186209053 3.525510856083457)" fill-rule="evenodd"><path d="M0 0 L0 3.07 L7.48 7.05 L7.48 3.98 L0 0 L0 0" stroke="none" stroke-width="0" fill="#aecbfa" fill-rule="evenodd"></path><path d="M0 0 C0 0.96, 0 1.91, 0 3.07 M0 0 C0 0.83, 0 1.67, 0 3.07 M0 3.07 C2.57 4.44, 5.14 5.81, 7.48 7.05 M0 3.07 C2.78 4.55, 5.57 6.03, 7.48 7.05 M7.48 7.05 C7.48 6.27, 7.48 5.49, 7.48 3.98 M7.48 7.05 C7.48 6.33, 7.48 5.6, 7.48 3.98 M7.48 3.98 C5.85 3.11, 4.22 2.25, 0 0 M7.48 3.98 C4.55 2.42, 1.61 0.86, 0 0 M0 0 C0 0, 0 0, 0 0 M0 0 C0 0, 0 0, 0 0 M0 0 C0 0, 0 0, 0 0 M0 0 C0 0, 0 0, 0 0" stroke="#00000000" stroke-width="1" fill="none"></path></g></g><g stroke-linecap="round"><g transform="translate(676.3724491790831 193.76530676471964) rotate(0 3.7397958186209053 3.525510126230671)" fill-rule="evenodd"><path d="M0 0 L0 3.07 L7.48 7.05 L7.48 3.98 L0 0 L0 0" stroke="none" stroke-width="0" fill="#aecbfa" fill-rule="evenodd"></path><path d="M0 0 C0 0.81, 0 1.61, 0 3.07 M0 0 C0 1.21, 0 2.42, 0 3.07 M0 3.07 C2 4.13, 4 5.2, 7.48 7.05 M0 3.07 C2.38 4.34, 4.76 5.6, 7.48 7.05 M7.48 7.05 C7.48 6.09, 7.48 5.12, 7.48 3.98 M7.48 7.05 C7.48 5.98, 7.48 4.91, 7.48 3.98 M7.48 3.98 C4.77 2.54, 2.07 1.1, 0 0 M7.48 3.98 C4.77 2.54, 2.06 1.1, 0 0 M0 0 C0 0, 0 0, 0 0 M0 0 C0 0, 0 0, 0 0 M0 0 C0 0, 0 0, 0 0 M0 0 C0 0, 0 0, 0 0" stroke="#00000000" stroke-width="1" fill="none"></path></g></g><g stroke-linecap="round"><g transform="translate(683.8520408163258 196.07142993382098) rotate(0 3.739796366010296 -3.525510856083457)" fill-rule="evenodd"><path d="M0 0 L7.48 -3.98 L7.48 -7.05 L0 -3.07 L0 0 L0 0" stroke="none" stroke-width="0" fill="#669df6" fill-rule="evenodd"></path><path d="M0 0 C1.89 -1, 3.77 -2.01, 7.48 -3.98 M0 0 C2.2 -1.17, 4.39 -2.34, 7.48 -3.98 M7.48 -3.98 C7.48 -5.14, 7.48 -6.3, 7.48 -7.05 M7.48 -3.98 C7.48 -4.8, 7.48 -5.63, 7.48 -7.05 M7.48 -7.05 C5.6 -6.05, 3.72 -5.05, 0 -3.07 M7.48 -7.05 C5.39 -5.94, 3.31 -4.83, 0 -3.07 M0 -3.07 C0 -2.38, 0 -1.69, 0 0 M0 -3.07 C0 -2.39, 0 -1.71, 0 0 M0 0 C0 0, 0 0, 0 0 M0 0 C0 0, 0 0, 0 0 M0 0 C0 0, 0 0, 0 0 M0 0 C0 0, 0 0, 0 0" stroke="#00000000" stroke-width="1" fill="none"></path></g></g><g stroke-linecap="round"><g transform="translate(683.8520408163258 200.81632701718087) rotate(0 3.739796366010296 -3.525510126230671)" fill-rule="evenodd"><path d="M0 0 L7.48 -3.98 L7.48 -7.05 L0 -3.07 L0 0 L0 0" stroke="none" stroke-width="0" fill="#669df6" fill-rule="evenodd"></path><path d="M0 0 C2.07 -1.1, 4.15 -2.21, 7.48 -3.98 M0 0 C2.31 -1.23, 4.61 -2.45, 7.48 -3.98 M7.48 -3.98 C7.48 -4.95, 7.48 -5.92, 7.48 -7.05 M7.48 -3.98 C7.48 -5.19, 7.48 -6.4, 7.48 -7.05 M7.48 -7.05 C5.72 -6.11, 3.96 -5.18, 0 -3.07 M7.48 -7.05 C5.8 -6.16, 4.13 -5.27, 0 -3.07 M0 -3.07 C0 -2.44, 0 -1.82, 0 0 M0 -3.07 C0 -2.25, 0 -1.43, 0 0 M0 0 C0 0, 0 0, 0 0 M0 0 C0 0, 0 0, 0 0 M0 0 C0 0, 0 0, 0 0 M0 0 C0 0, 0 0, 0 0" stroke="#00000000" stroke-width="1" fill="none"></path></g></g><g stroke-linecap="round"><g transform="translate(691.3316335483478 187.45918376105107) rotate(0 -3.739796366010296 -3.525510217462255)" fill-rule="evenodd"><path d="M0 0 L0 -3.07 L-7.48 -7.05 L-7.48 -3.98 L0 0 L0 0" stroke="none" stroke-width="0" fill="#4285f4" fill-rule="evenodd"></path><path d="M0 0 C0 -0.65, 0 -1.3, 0 -3.07 M0 0 C0 -1.13, 0 -2.26, 0 -3.07 M0 -3.07 C-2.93 -4.63, -5.86 -6.19, -7.48 -7.05 M0 -3.07 C-2.95 -4.64, -5.91 -6.21, -7.48 -7.05 M-7.48 -7.05 C-7.48 -6.13, -7.48 -5.2, -7.48 -3.98 M-7.48 -7.05 C-7.48 -6.25, -7.48 -5.46, -7.48 -3.98 M-7.48 -3.98 C-4.93 -2.62, -2.38 -1.27, 0 0 M-7.48 -3.98 C-5.55 -2.95, -3.63 -1.93, 0 0 M0 0 C0 0, 0 0, 0 0 M0 0 C0 0, 0 0, 0 0 M0 0 C0 0, 0 0, 0 0 M0 0 C0 0, 0 0, 0 0" stroke="#00000000" stroke-width="1" fill="none"></path></g></g><g stroke-linecap="round"><g transform="translate(683.852040816329 180.40816332612656) rotate(0 -3.7397958186209053 3.525510217462255)" fill-rule="evenodd"><path d="M0 0 L-7.48 3.98 L-7.48 7.05 L0 3.07 L0 0 L0 0" stroke="none" stroke-width="0" fill="#669df6" fill-rule="evenodd"></path><path d="M0 0 C-2.23 1.19, -4.47 2.38, -7.48 3.98 M0 0 C-1.63 0.87, -3.25 1.73, -7.48 3.98 M-7.48 3.98 C-7.48 4.81, -7.48 5.64, -7.48 7.05 M-7.48 3.98 C-7.48 4.84, -7.48 5.7, -7.48 7.05 M-7.48 7.05 C-5.84 6.18, -4.2 5.3, 0 3.07 M-7.48 7.05 C-5.44 5.97, -3.4 4.88, 0 3.07 M0 3.07 C0 1.97, 0 0.87, 0 0 M0 3.07 C0 2.07, 0 1.07, 0 0 M0 0 C0 0, 0 0, 0 0 M0 0 C0 0, 0 0, 0 0 M0 0 C0 0, 0 0, 0 0 M0 0 C0 0, 0 0, 0 0" stroke="#00000000" stroke-width="1" fill="none"></path></g></g><g stroke-linecap="round"><g transform="translate(676.3724491790831 184.35714298365087) rotate(0 3.7397958186209053 3.5306121621813134)" fill-rule="evenodd"><path d="M0 0 L0 3.08 L7.48 7.06 L7.48 3.98 L0 0 L0 0" stroke="none" stroke-width="0" fill="#aecbfa" fill-rule="evenodd"></path><path d="M0 0 C0 0.71, 0 1.43, 0 3.08 M0 0 C0 0.65, 0 1.3, 0 3.08 M0 3.08 C2.15 4.23, 4.31 5.37, 7.48 7.06 M0 3.08 C2.47 4.39, 4.93 5.71, 7.48 7.06 M7.48 7.06 C7.48 5.91, 7.48 4.75, 7.48 3.98 M7.48 7.06 C7.48 6.11, 7.48 5.15, 7.48 3.98 M7.48 3.98 C5.92 3.15, 4.36 2.32, 0 0 M7.48 3.98 C5.41 2.88, 3.34 1.78, 0 0 M0 0 C0 0, 0 0, 0 0 M0 0 C0 0, 0 0, 0 0 M0 0 C0 0, 0 0, 0 0 M0 0 C0 0, 0 0, 0 0" stroke="#00000000" stroke-width="1" fill="none"></path></g></g><g stroke-linecap="round"><g transform="translate(683.8520408163258 191.41836730801384) rotate(0 3.739796366010296 -3.5306121621813134)" fill-rule="evenodd"><path d="M0 0 L7.48 -3.98 L7.48 -7.06 L0 -3.08 L0 0 L0 0" stroke="none" stroke-width="0" fill="#669df6" fill-rule="evenodd"></path><path d="M0 0 C2.07 -1.1, 4.13 -2.2, 7.48 -3.98 M0 0 C2.77 -1.47, 5.53 -2.94, 7.48 -3.98 M7.48 -3.98 C7.48 -5, 7.48 -6.03, 7.48 -7.06 M7.48 -3.98 C7.48 -5.2, 7.48 -6.43, 7.48 -7.06 M7.48 -7.06 C5.86 -6.2, 4.25 -5.34, 0 -3.08 M7.48 -7.06 C5.26 -5.88, 3.04 -4.7, 0 -3.08 M0 -3.08 C0 -2.42, 0 -1.76, 0 0 M0 -3.08 C0 -2.07, 0 -1.06, 0 0 M0 0 C0 0, 0 0, 0 0 M0 0 C0 0, 0 0, 0 0 M0 0 C0 0, 0 0, 0 0 M0 0 C0 0, 0 0, 0 0" stroke="#00000000" stroke-width="1" fill="none"></path></g></g><g transform="translate(707.9591836734699 169.18367346938783) rotate(0 23.418367346938794 4.897959183673464)"><text x="0" y="7.795918367346935" font-family="Helvetica, Segoe UI Emoji" font-size="8.571428571428568px" fill="#495057" text-anchor="start" style="white-space: pre;" direction="ltr">PostgreSQL</text></g><g stroke-linecap="round"><g transform="translate(598.1847475832465 193.0987660614877) rotate(0 30.21031842278512 -0.24175240126976405)"><path d="M0 0 C16.93 -0.14, 33.86 -0.27, 60.42 -0.48 M0 0 C13.26 -0.11, 26.52 -0.21, 60.42 -0.48" stroke="#4c6ef5" stroke-width="2" fill="none"></path></g><g transform="translate(598.1847475832465 193.0987660614877) rotate(0 30.21031842278512 -0.24175240126976405)"><path d="M32.31 10 C40.19 7.06, 48.07 4.13, 60.42 -0.48 M32.31 10 C38.48 7.7, 44.65 5.4, 60.42 -0.48" stroke="#4c6ef5" stroke-width="2" fill="none"></path></g><g transform="translate(598.1847475832465 193.0987660614877) rotate(0 30.21031842278512 -0.24175240126976405)"><path d="M32.15 -10.52 C40.07 -7.71, 47.99 -4.89, 60.42 -0.48 M32.15 -10.52 C38.35 -8.32, 44.56 -6.11, 60.42 -0.48" stroke="#4c6ef5" stroke-width="2" fill="none"></path></g></g><g stroke-linecap="round" transform="translate(291.63265306122275 86.83673469387804) rotate(0 61.224489795918316 27.551020408163254)"><path d="M13.78 0 L108.67 0 L114.7 0.86 L119.01 3.44 L120.51 5.38 L122.23 10.55 L122.45 41.33 L121.59 47.35 L119.01 51.66 L117.07 53.16 L114.7 54.24 L108.67 55.1 L13.78 55.1 L7.75 54.24 L3.44 51.66 L0.86 47.35 L0.22 44.56 L0.22 10.55 L1.94 5.38 L5.38 1.94 L10.55 0.22 L13.78 0" stroke="none" stroke-width="0" fill="#FFF"></path><path d="M13.78 0 M13.78 0 C40.21 0, 66.64 0, 108.67 0 M13.78 0 C44.33 0, 74.89 0, 108.67 0 M108.67 0 C117.86 0, 122.45 4.59, 122.45 13.78 M108.67 0 C117.86 0, 122.45 4.59, 122.45 13.78 M122.45 13.78 C122.45 22.49, 122.45 31.2, 122.45 41.33 M122.45 13.78 C122.45 24.72, 122.45 35.67, 122.45 41.33 M122.45 41.33 C122.45 50.51, 117.86 55.1, 108.67 55.1 M122.45 41.33 C122.45 50.51, 117.86 55.1, 108.67 55.1 M108.67 55.1 C76.72 55.1, 44.76 55.1, 13.78 55.1 M108.67 55.1 C87.65 55.1, 66.62 55.1, 13.78 55.1 M13.78 55.1 C4.59 55.1, 0 50.51, 0 41.33 M13.78 55.1 C4.59 55.1, 0 50.51, 0 41.33 M0 41.33 C0 32.79, 0 24.25, 0 13.78 M0 41.33 C0 33.57, 0 25.82, 0 13.78 M0 13.78 C0 4.59, 4.59 0, 13.78 0 M0 13.78 C0 4.59, 4.59 0, 13.78 0" stroke="#4285f4" stroke-width="2" fill="none"></path></g><g transform="translate(341.3775510204068 103.67346938775552) rotate(0 32.525510204081684 10.714285714285722)"><text x="0" y="8.714285714285712" font-family="Helvetica, Segoe UI Emoji" font-size="9.183673469387758px" fill="#000000" text-anchor="start" style="white-space: pre;" direction="ltr">Maps JavaScript</text><text x="0" y="19.428571428571423" font-family="Helvetica, Segoe UI Emoji" font-size="9.183673469387758px" fill="#000000" text-anchor="start" style="white-space: pre;" direction="ltr">API</text></g><g stroke-linecap="round"><g transform="translate(320.22105746749594 102.66009843471136) rotate(0 -4.565446170008954 2.823417027461886)" fill-rule="evenodd"><path d="M0 0 L0 0 L-2.51 -0.4 L-4.97 -0.06 L-7.23 0.97 L-9.13 2.65 L-5.09 6.05 L0 0" stroke="none" stroke-width="0" fill="#1a73e8" fill-rule="evenodd"></path><path d="M0 0 C0 0, 0 0, 0 0 M0 0 C0 0, 0 0, 0 0 M0 0 C-0.54 -0.09, -1.08 -0.17, -2.51 -0.4 M0 0 C-0.8 -0.13, -1.6 -0.26, -2.51 -0.4 M-2.51 -0.4 C-3.17 -0.31, -3.83 -0.22, -4.97 -0.06 M-2.51 -0.4 C-3.15 -0.31, -3.79 -0.23, -4.97 -0.06 M-4.97 -0.06 C-5.46 0.16, -5.94 0.38, -7.23 0.97 M-4.97 -0.06 C-5.58 0.21, -6.19 0.49, -7.23 0.97 M-7.23 0.97 C-7.77 1.44, -8.3 1.92, -9.13 2.65 M-7.23 0.97 C-7.74 1.42, -8.24 1.86, -9.13 2.65 M-9.13 2.65 C-7.88 3.7, -6.63 4.75, -5.09 6.05 M-9.13 2.65 C-7.66 3.89, -6.18 5.13, -5.09 6.05 M-5.09 6.05 C-3.66 4.36, -2.24 2.66, 0 0 M-5.09 6.05 C-3.78 4.49, -2.46 2.93, 0 0 M0 0 C0 0, 0 0, 0 0 M0 0 C0 0, 0 0, 0 0" stroke="#00000000" stroke-width="1" fill="none"></path></g></g><g stroke-linecap="round"><g transform="translate(311.0901651274771 105.30964097198171) rotate(0 1.0239266771443454 4.781843326529668)" fill-rule="evenodd"><path d="M0 0 L0 0 L-0.86 1.22 L-1.48 2.57 L-1.87 4 L-2 5.49 L-1.8 7.57 L-1.15 9.56 L4.04 3.4 L0 0" stroke="none" stroke-width="0" fill="#ea4335" fill-rule="evenodd"></path><path d="M0 0 C0 0, 0 0, 0 0 M0 0 C0 0, 0 0, 0 0 M0 0 C-0.31 0.44, -0.61 0.88, -0.86 1.22 M0 0 C-0.29 0.41, -0.58 0.82, -0.86 1.22 M-0.86 1.22 C-1.09 1.71, -1.31 2.21, -1.48 2.57 M-0.86 1.22 C-1.06 1.66, -1.26 2.09, -1.48 2.57 M-1.48 2.57 C-1.6 3, -1.71 3.43, -1.87 4 M-1.48 2.57 C-1.62 3.09, -1.76 3.6, -1.87 4 M-1.87 4 C-1.9 4.36, -1.93 4.73, -2 5.49 M-1.87 4 C-1.89 4.32, -1.92 4.64, -2 5.49 M-2 5.49 C-1.92 6.23, -1.85 6.97, -1.8 7.57 M-2 5.49 C-1.95 5.93, -1.91 6.36, -1.8 7.57 M-1.8 7.57 C-1.64 8.06, -1.48 8.55, -1.15 9.56 M-1.8 7.57 C-1.58 8.26, -1.35 8.94, -1.15 9.56 M-1.15 9.56 C0.79 7.26, 2.73 4.96, 4.04 3.4 M-1.15 9.56 C-0.05 8.25, 1.06 6.94, 4.04 3.4 M4.04 3.4 C3.18 2.68, 2.32 1.95, 0 0 M4.04 3.4 C2.72 2.29, 1.4 1.18, 0 0 M0 0 C0 0, 0 0, 0 0 M0 0 C0 0, 0 0, 0 0" stroke="#00000000" stroke-width="1" fill="none"></path></g></g><g stroke-linecap="round"><g transform="translate(317.6348510994603 107.5369455133162) rotate(0 2.538705723626208 0.23750849068164825)" fill-rule="evenodd"><path d="M0 0 L0 0 L1.27 0.25 L2.31 0.95 L3.01 1.99 L3.27 3.26 L3.07 4.39 L2.49 5.37 L7.58 -0.68 L7.58 -0.68 L6.66 -2.09 L5.5 -3.28 L4.13 -4.23 L2.59 -4.9 L-2.5 1.17 L-2.5 1.17 L-1.38 0.31 L0 0 L0 0" stroke="none" stroke-width="0" fill="#4285f4" fill-rule="evenodd"></path><path d="M0 0 C0 0, 0 0, 0 0 M0 0 C0 0, 0 0, 0 0 M0 0 C0.44 0.09, 0.87 0.17, 1.27 0.25 M0 0 C0.35 0.07, 0.7 0.14, 1.27 0.25 M1.27 0.25 C1.63 0.49, 1.99 0.73, 2.31 0.95 M1.27 0.25 C1.62 0.49, 1.97 0.72, 2.31 0.95 M2.31 0.95 C2.58 1.35, 2.86 1.75, 3.01 1.99 M2.31 0.95 C2.58 1.35, 2.85 1.74, 3.01 1.99 M3.01 1.99 C3.09 2.34, 3.16 2.69, 3.27 3.26 M3.01 1.99 C3.12 2.5, 3.22 3, 3.27 3.26 M3.27 3.26 C3.19 3.71, 3.11 4.16, 3.07 4.39 M3.27 3.26 C3.21 3.6, 3.15 3.95, 3.07 4.39 M3.07 4.39 C2.94 4.62, 2.8 4.85, 2.49 5.37 M3.07 4.39 C2.87 4.72, 2.68 5.06, 2.49 5.37 M2.49 5.37 C3.87 3.73, 5.25 2.09, 7.58 -0.68 M2.49 5.37 C3.76 3.87, 5.02 2.36, 7.58 -0.68 M7.58 -0.68 C7.58 -0.68, 7.58 -0.68, 7.58 -0.68 M7.58 -0.68 C7.58 -0.68, 7.58 -0.68, 7.58 -0.68 M7.58 -0.68 C7.29 -1.13, 6.99 -1.58, 6.66 -2.09 M7.58 -0.68 C7.35 -1.03, 7.12 -1.39, 6.66 -2.09 M6.66 -2.09 C6.37 -2.39, 6.07 -2.7, 5.5 -3.28 M6.66 -2.09 C6.23 -2.53, 5.8 -2.98, 5.5 -3.28 M5.5 -3.28 C5.11 -3.55, 4.72 -3.82, 4.13 -4.23 M5.5 -3.28 C4.98 -3.64, 4.46 -4, 4.13 -4.23 M4.13 -4.23 C3.59 -4.46, 3.06 -4.69, 2.59 -4.9 M4.13 -4.23 C3.76 -4.39, 3.39 -4.55, 2.59 -4.9 M2.59 -4.9 C0.96 -2.96, -0.66 -1.03, -2.5 1.17 M2.59 -4.9 C0.97 -2.96, -0.65 -1.03, -2.5 1.17 M-2.5 1.17 C-2.5 1.17, -2.5 1.17, -2.5 1.17 M-2.5 1.17 C-2.5 1.17, -2.5 1.17, -2.5 1.17 M-2.5 1.17 C-2.27 0.99, -2.03 0.81, -1.38 0.31 M-2.5 1.17 C-2.06 0.83, -1.62 0.49, -1.38 0.31 M-1.38 0.31 C-0.87 0.19, -0.37 0.08, 0 0 M-1.38 0.31 C-0.99 0.22, -0.6 0.13, 0 0 M0 0 C0 0, 0 0, 0 0 M0 0 C0 0, 0 0, 0 0 M0 0 C0 0, 0 0, 0 0 M0 0 C0 0, 0 0, 0 0" stroke="#00000000" stroke-width="1" fill="none"></path></g></g><g stroke-linecap="round"><g transform="translate(317.63485109946123 114.07107635420192) rotate(0 -2.5914844809744864 0.48029495745288386)" fill-rule="evenodd"><path d="M0 0 L0 0 L-1.27 -0.26 L-2.31 -0.96 L-3.02 -2 L-3.27 -3.27 L-3.08 -4.4 L-2.5 -5.38 L-7.7 0.8 L-7.7 0.8 L-5.91 3.68 L-3.82 6.34 L2.51 -1.16 L2.51 -1.16 L1.39 -0.3 L0 0 L0 0" stroke="none" stroke-width="0" fill="#fbbc04" fill-rule="evenodd"></path><path d="M0 0 C0 0, 0 0, 0 0 M0 0 C0 0, 0 0, 0 0 M0 0 C-0.33 -0.07, -0.66 -0.13, -1.27 -0.26 M0 0 C-0.47 -0.09, -0.94 -0.19, -1.27 -0.26 M-1.27 -0.26 C-1.65 -0.51, -2.03 -0.77, -2.31 -0.96 M-1.27 -0.26 C-1.49 -0.4, -1.71 -0.55, -2.31 -0.96 M-2.31 -0.96 C-2.51 -1.25, -2.7 -1.53, -3.02 -2 M-2.31 -0.96 C-2.54 -1.29, -2.77 -1.63, -3.02 -2 M-3.02 -2 C-3.11 -2.48, -3.21 -2.97, -3.27 -3.27 M-3.02 -2 C-3.09 -2.35, -3.16 -2.7, -3.27 -3.27 M-3.27 -3.27 C-3.22 -3.59, -3.16 -3.91, -3.08 -4.4 M-3.27 -3.27 C-3.2 -3.66, -3.14 -4.05, -3.08 -4.4 M-3.08 -4.4 C-2.85 -4.79, -2.62 -5.18, -2.5 -5.38 M-3.08 -4.4 C-2.94 -4.63, -2.8 -4.87, -2.5 -5.38 M-2.5 -5.38 C-4.08 -3.5, -5.66 -1.62, -7.7 0.8 M-2.5 -5.38 C-3.67 -4, -4.83 -2.61, -7.7 0.8 M-7.7 0.8 C-7.7 0.8, -7.7 0.8, -7.7 0.8 M-7.7 0.8 C-7.7 0.8, -7.7 0.8, -7.7 0.8 M-7.7 0.8 C-7.18 1.63, -6.67 2.45, -5.91 3.68 M-7.7 0.8 C-7.03 1.88, -6.37 2.95, -5.91 3.68 M-5.91 3.68 C-5.31 4.45, -4.71 5.22, -3.82 6.34 M-5.91 3.68 C-5.31 4.45, -4.71 5.21, -3.82 6.34 M-3.82 6.34 C-1.86 4.02, 0.1 1.7, 2.51 -1.16 M-3.82 6.34 C-2.4 4.66, -0.97 2.97, 2.51 -1.16 M2.51 -1.16 C2.51 -1.16, 2.51 -1.16, 2.51 -1.16 M2.51 -1.16 C2.51 -1.16, 2.51 -1.16, 2.51 -1.16 M2.51 -1.16 C2.09 -0.84, 1.66 -0.51, 1.39 -0.3 M2.51 -1.16 C2.25 -0.96, 1.98 -0.75, 1.39 -0.3 M1.39 -0.3 C1.02 -0.22, 0.65 -0.14, 0 0 M1.39 -0.3 C1.08 -0.23, 0.77 -0.17, 0 0 M0 0 C0 0, 0 0, 0 0 M0 0 C0 0, 0 0, 0 0 M0 0 C0 0, 0 0, 0 0 M0 0 C0 0, 0 0, 0 0" stroke="#00000000" stroke-width="1" fill="none"></path></g></g><g stroke-linecap="round"><g transform="translate(320.00993878883764 122.46305368384503) rotate(0 -0.015833608958018885 -5.631597978728166)" fill-rule="evenodd"><path d="M0 0 L0 0 L2.17 -2.97 L4.15 -5.55 L4.97 -6.86 L5.6 -8.26 L6.02 -9.82 L6.16 -11.61 L5.92 -13.64 L5.2 -15.55 L-6.2 -2.05 L-6.2 -2.05 L-4.75 0 L-4.19 0.95 L-3.8 1.8 L-3.33 3.15 L-2.97 3.99 L-2.38 4.29 L-1.78 3.99 L-1.42 3.15 L-0.95 1.8 L-0.56 0.95 L0 0 L0 0" stroke="none" stroke-width="0" fill="#34a853" fill-rule="evenodd"></path><path d="M0 0 C0 0, 0 0, 0 0 M0 0 C0 0, 0 0, 0 0 M0 0 C0.82 -1.13, 1.65 -2.26, 2.17 -2.97 M0 0 C0.66 -0.91, 1.32 -1.81, 2.17 -2.97 M2.17 -2.97 C2.75 -3.73, 3.33 -4.48, 4.15 -5.55 M2.17 -2.97 C2.62 -3.56, 3.07 -4.15, 4.15 -5.55 M4.15 -5.55 C4.41 -5.97, 4.67 -6.39, 4.97 -6.86 M4.15 -5.55 C4.37 -5.9, 4.59 -6.26, 4.97 -6.86 M4.97 -6.86 C5.17 -7.31, 5.38 -7.76, 5.6 -8.26 M4.97 -6.86 C5.16 -7.28, 5.35 -7.71, 5.6 -8.26 M5.6 -8.26 C5.73 -8.73, 5.85 -9.19, 6.02 -9.82 M5.6 -8.26 C5.72 -8.7, 5.84 -9.15, 6.02 -9.82 M6.02 -9.82 C6.06 -10.34, 6.1 -10.87, 6.16 -11.61 M6.02 -9.82 C6.05 -10.24, 6.09 -10.67, 6.16 -11.61 M6.16 -11.61 C6.09 -12.26, 6.01 -12.9, 5.92 -13.64 M6.16 -11.61 C6.11 -12.07, 6.06 -12.52, 5.92 -13.64 M5.92 -13.64 C5.72 -14.18, 5.51 -14.73, 5.2 -15.55 M5.92 -13.64 C5.68 -14.29, 5.43 -14.94, 5.2 -15.55 M5.2 -15.55 C1.74 -11.45, -1.72 -7.35, -6.2 -2.05 M5.2 -15.55 C1.88 -11.62, -1.44 -7.68, -6.2 -2.05 M-6.2 -2.05 C-6.2 -2.05, -6.2 -2.05, -6.2 -2.05 M-6.2 -2.05 C-6.2 -2.05, -6.2 -2.05, -6.2 -2.05 M-6.2 -2.05 C-5.76 -1.44, -5.33 -0.82, -4.75 0 M-6.2 -2.05 C-5.88 -1.6, -5.57 -1.16, -4.75 0 M-4.75 0 C-4.63 0.2, -4.52 0.4, -4.19 0.95 M-4.75 0 C-4.6 0.26, -4.45 0.51, -4.19 0.95 M-4.19 0.95 C-4.09 1.18, -3.98 1.41, -3.8 1.8 M-4.19 0.95 C-4.09 1.17, -3.99 1.39, -3.8 1.8 M-3.8 1.8 C-3.7 2.1, -3.59 2.39, -3.33 3.15 M-3.8 1.8 C-3.68 2.14, -3.56 2.49, -3.33 3.15 M-3.33 3.15 C-3.22 3.41, -3.11 3.67, -2.97 3.99 M-3.33 3.15 C-3.26 3.32, -3.18 3.5, -2.97 3.99 M-2.97 3.99 C-2.84 4.06, -2.7 4.12, -2.38 4.29 M-2.97 3.99 C-2.76 4.1, -2.55 4.2, -2.38 4.29 M-2.38 4.29 C-2.24 4.22, -2.11 4.16, -1.78 3.99 M-2.38 4.29 C-2.15 4.18, -1.93 4.07, -1.78 3.99 M-1.78 3.99 C-1.7 3.81, -1.62 3.62, -1.42 3.15 M-1.78 3.99 C-1.7 3.82, -1.63 3.64, -1.42 3.15 M-1.42 3.15 C-1.26 2.69, -1.1 2.22, -0.95 1.8 M-1.42 3.15 C-1.33 2.88, -1.23 2.6, -0.95 1.8 M-0.95 1.8 C-0.86 1.61, -0.77 1.42, -0.56 0.95 M-0.95 1.8 C-0.83 1.54, -0.71 1.28, -0.56 0.95 M-0.56 0.95 C-0.37 0.64, -0.19 0.33, 0 0 M-0.56 0.95 C-0.41 0.7, -0.26 0.45, 0 0 M0 0 C0 0, 0 0, 0 0 M0 0 C0 0, 0 0, 0 0 M0 0 C0 0, 0 0, 0 0 M0 0 C0 0, 0 0, 0 0" stroke="#00000000" stroke-width="1" fill="none"></path></g></g><g transform="translate(285.9693877551017 22.244897959183675) rotate(0 146.4795918367347 12.857142857142847)"><text x="0" y="20.714285714285698" font-family="Helvetica, Segoe UI Emoji" font-size="22.233804908547818px" fill="#000000" text-anchor="start" style="white-space: pre;" direction="ltr">Petsera App in Google Cloud </text></g><g stroke-linecap="round" transform="translate(46.7346938775504 123.26530612244869) rotate(0 61.224489795918316 27.551020408163254)"><path d="M13.78 0 L108.67 0 L114.7 0.86 L119.01 3.44 L121.59 7.75 L122.23 10.55 L122.45 41.33 L121.59 47.35 L120.51 49.72 L117.07 53.16 L114.7 54.24 L108.67 55.1 L13.78 55.1 L7.75 54.24 L3.44 51.66 L1.94 49.72 L0.22 44.56 L0.22 10.55 L0.86 7.75 L3.44 3.44 L7.75 0.86 L13.78 0" stroke="none" stroke-width="0" fill="#DEDEDE"></path><path d="M13.78 0 M13.78 0 C39.24 0, 64.71 0, 108.67 0 M13.78 0 C48.39 0, 83 0, 108.67 0 M108.67 0 C117.86 0, 122.45 4.59, 122.45 13.78 M108.67 0 C117.86 0, 122.45 4.59, 122.45 13.78 M122.45 13.78 C122.45 24.37, 122.45 34.97, 122.45 41.33 M122.45 13.78 C122.45 21.15, 122.45 28.53, 122.45 41.33 M122.45 41.33 C122.45 50.51, 117.86 55.1, 108.67 55.1 M122.45 41.33 C122.45 50.51, 117.86 55.1, 108.67 55.1 M108.67 55.1 C78.33 55.1, 47.99 55.1, 13.78 55.1 M108.67 55.1 C81.52 55.1, 54.37 55.1, 13.78 55.1 M13.78 55.1 C4.59 55.1, 0 50.51, 0 41.33 M13.78 55.1 C4.59 55.1, 0 50.51, 0 41.33 M0 41.33 C0 31.1, 0 20.87, 0 13.78 M0 41.33 C0 34.05, 0 26.78, 0 13.78 M0 13.78 C0 4.59, 4.59 0, 13.78 0 M0 13.78 C0 4.59, 4.59 0, 13.78 0" stroke="#000" stroke-width="2" fill="none"></path></g><g transform="translate(96.47959183673129 145.45918367346928) rotate(0 16.836734693877588 6.428571428571416)"><text x="0" y="9.857142857142849" font-family="Helvetica, Segoe UI Emoji" font-size="11.020408163265303px" fill="#000000" text-anchor="start" style="white-space: pre;" direction="ltr">Device</text></g><g stroke-linecap="round"><g transform="translate(59.36224489796268 138.57142857142878) rotate(0 12.244897959183618 12.244897959183675)" fill-rule="evenodd"><path d="M0 0 L24.49 0 L24.49 24.49 L0 24.49 L0 0" stroke="none" stroke-width="0" fill="#00000000" fill-rule="evenodd"></path><path d="M0 0 C8.91 0, 17.83 0, 24.49 0 M0 0 C9.12 0, 18.24 0, 24.49 0 M24.49 0 C24.49 5.42, 24.49 10.84, 24.49 24.49 M24.49 0 C24.49 8.38, 24.49 16.75, 24.49 24.49 M24.49 24.49 C18.03 24.49, 11.57 24.49, 0 24.49 M24.49 24.49 C18.83 24.49, 13.16 24.49, 0 24.49 M0 24.49 C0 15.85, 0 7.2, 0 0 M0 24.49 C0 19.42, 0 14.36, 0 0 M0 0 C0 0, 0 0, 0 0 M0 0 C0 0, 0 0, 0 0" stroke="#00000000" stroke-width="1" fill="none"></path></g></g><g stroke-linecap="round"><g transform="translate(63.44387767266289 144.6938775510202) rotate(0 7.142857264499298 6.122449526981427)" fill-rule="evenodd"><path d="M0 0 L18.37 0 L18.37 -2.04 L0 -2.04 L0 -2.04 L-0.79 -1.88 L-1.44 -1.44 L-1.88 -0.79 L-2.04 0 L-2.04 11.22 L-4.08 11.22 L-4.08 14.29 L10.2 14.29 L10.2 11.22 L0 11.22 L0 0 L0 0" stroke="none" stroke-width="0" fill="#000" fill-rule="evenodd"></path><path d="M0 0 C4.36 0, 8.71 0, 18.37 0 M0 0 C4.76 0, 9.53 0, 18.37 0 M18.37 0 C18.37 -0.69, 18.37 -1.39, 18.37 -2.04 M18.37 0 C18.37 -0.61, 18.37 -1.22, 18.37 -2.04 M18.37 -2.04 C14.08 -2.04, 9.79 -2.04, 0 -2.04 M18.37 -2.04 C12.8 -2.04, 7.23 -2.04, 0 -2.04 M0 -2.04 C0 -2.04, 0 -2.04, 0 -2.04 M0 -2.04 C0 -2.04, 0 -2.04, 0 -2.04 M0 -2.04 C-0.25 -1.99, -0.5 -1.94, -0.79 -1.88 M0 -2.04 C-0.18 -2, -0.36 -1.97, -0.79 -1.88 M-0.79 -1.88 C-0.98 -1.76, -1.16 -1.63, -1.44 -1.44 M-0.79 -1.88 C-0.94 -1.78, -1.09 -1.68, -1.44 -1.44 M-1.44 -1.44 C-1.54 -1.29, -1.64 -1.14, -1.88 -0.79 M-1.44 -1.44 C-1.59 -1.23, -1.73 -1.02, -1.88 -0.79 M-1.88 -0.79 C-1.93 -0.55, -1.98 -0.31, -2.04 0 M-1.88 -0.79 C-1.94 -0.51, -1.99 -0.23, -2.04 0 M-2.04 0 C-2.04 3.9, -2.04 7.8, -2.04 11.22 M-2.04 0 C-2.04 3.88, -2.04 7.76, -2.04 11.22 M-2.04 11.22 C-2.56 11.22, -3.07 11.22, -4.08 11.22 M-2.04 11.22 C-2.68 11.22, -3.32 11.22, -4.08 11.22 M-4.08 11.22 C-4.08 12.01, -4.08 12.79, -4.08 14.29 M-4.08 11.22 C-4.08 11.95, -4.08 12.68, -4.08 14.29 M-4.08 14.29 C-0.34 14.29, 3.39 14.29, 10.2 14.29 M-4.08 14.29 C-0.55 14.29, 2.98 14.29, 10.2 14.29 M10.2 14.29 C10.2 13.16, 10.2 12.04, 10.2 11.22 M10.2 14.29 C10.2 13.08, 10.2 11.88, 10.2 11.22 M10.2 11.22 C6.37 11.22, 2.53 11.22, 0 11.22 M10.2 11.22 C7.79 11.22, 5.37 11.22, 0 11.22 M0 11.22 C0 7.66, 0 4.1, 0 0 M0 11.22 C0 8.66, 0 6.1, 0 0 M0 0 C0 0, 0 0, 0 0 M0 0 C0 0, 0 0, 0 0 M0 0 C0 0, 0 0, 0 0 M0 0 C0 0, 0 0, 0 0" stroke="#00000000" stroke-width="1" fill="none"></path></g></g><g stroke-linecap="round"><g transform="translate(82.83163362619507 146.73469412083466) rotate(0 -3.0612252196488043 6.12244934451823)" fill-rule="evenodd"><path d="M0 0 L-6.12 0 L-6.12 0 L-6.84 0.3 L-7.14 1.02 L-7.14 11.22 L-7.14 11.22 L-6.84 11.95 L-6.12 12.24 L0 12.24 L0 12.24 L0.72 11.95 L1.02 11.22 L1.02 1.02 L1.02 1.02 L0.72 0.3 L0 0 L0 0" stroke="none" stroke-width="0" fill="#000" fill-rule="evenodd"></path><path d="M0 0 C-1.33 0, -2.65 0, -6.12 0 M0 0 C-2.36 0, -4.73 0, -6.12 0 M-6.12 0 C-6.12 0, -6.12 0, -6.12 0 M-6.12 0 C-6.12 0, -6.12 0, -6.12 0 M-6.12 0 C-6.34 0.09, -6.56 0.18, -6.84 0.3 M-6.12 0 C-6.35 0.09, -6.58 0.19, -6.84 0.3 M-6.84 0.3 C-6.91 0.45, -6.97 0.61, -7.14 1.02 M-6.84 0.3 C-6.93 0.5, -7.01 0.69, -7.14 1.02 M-7.14 1.02 C-7.14 4.02, -7.14 7.02, -7.14 11.22 M-7.14 1.02 C-7.14 3.14, -7.14 5.27, -7.14 11.22 M-7.14 11.22 C-7.14 11.22, -7.14 11.22, -7.14 11.22 M-7.14 11.22 C-7.14 11.22, -7.14 11.22, -7.14 11.22 M-7.14 11.22 C-7.08 11.37, -7.02 11.52, -6.84 11.95 M-7.14 11.22 C-7.05 11.45, -6.96 11.67, -6.84 11.95 M-6.84 11.95 C-6.61 12.04, -6.37 12.14, -6.12 12.24 M-6.84 11.95 C-6.64 12.03, -6.44 12.11, -6.12 12.24 M-6.12 12.24 C-3.8 12.24, -1.48 12.24, 0 12.24 M-6.12 12.24 C-4.41 12.24, -2.69 12.24, 0 12.24 M0 12.24 C0 12.24, 0 12.24, 0 12.24 M0 12.24 C0 12.24, 0 12.24, 0 12.24 M0 12.24 C0.21 12.16, 0.43 12.07, 0.72 11.95 M0 12.24 C0.15 12.18, 0.31 12.12, 0.72 11.95 M0.72 11.95 C0.83 11.68, 0.94 11.41, 1.02 11.22 M0.72 11.95 C0.81 11.72, 0.91 11.49, 1.02 11.22 M1.02 11.22 C1.02 7.6, 1.02 3.97, 1.02 1.02 M1.02 11.22 C1.02 9.05, 1.02 6.88, 1.02 1.02 M1.02 1.02 C1.02 1.02, 1.02 1.02, 1.02 1.02 M1.02 1.02 C1.02 1.02, 1.02 1.02, 1.02 1.02 M1.02 1.02 C0.93 0.81, 0.85 0.6, 0.72 0.3 M1.02 1.02 C0.96 0.87, 0.89 0.71, 0.72 0.3 M0.72 0.3 C0.46 0.19, 0.2 0.08, 0 0 M0.72 0.3 C0.55 0.23, 0.37 0.15, 0 0 M0 0 C0 0, 0 0, 0 0 M0 0 C0 0, 0 0, 0 0 M0 0 C0 0, 0 0, 0 0 M0 0 C0 0, 0 0, 0 0" stroke="#00000000" stroke-width="1" fill="none"></path></g></g><g stroke-linecap="round"><g transform="translate(81.81122497636579 155.9183683200759) rotate(0 -2.0408165698149787 -3.5714288147128457)" fill-rule="evenodd"><path d="M0 0 L-4.08 0 L-4.08 -7.14 L0 -7.14 L0 0" stroke="none" stroke-width="0" fill="#DEDEDE" fill-rule="evenodd"></path><path d="M0 0 C-1.12 0, -2.23 0, -4.08 0 M0 0 C-1.58 0, -3.16 0, -4.08 0 M-4.08 0 C-4.08 -1.97, -4.08 -3.93, -4.08 -7.14 M-4.08 0 C-4.08 -1.47, -4.08 -2.95, -4.08 -7.14 M-4.08 -7.14 C-2.93 -7.14, -1.78 -7.14, 0 -7.14 M-4.08 -7.14 C-2.71 -7.14, -1.34 -7.14, 0 -7.14 M0 -7.14 C0 -5.68, 0 -4.21, 0 0 M0 -7.14 C0 -4.87, 0 -2.59, 0 0 M0 0 C0 0, 0 0, 0 0 M0 0 C0 0, 0 0, 0 0" stroke="#00000000" stroke-width="1" fill="none"></path></g></g><g stroke-linecap="round"><g transform="translate(169.1836734693893 144.69387755102036) rotate(0 61.224489795918316 -15.306122448979579)"><path d="M0 0 C12.19 0, 24.38 0, 48.98 0 M0 0 C18.25 0, 36.49 0, 48.98 0 M48.98 0 C48.98 -12.24, 48.98 -24.47, 48.98 -30.61 M48.98 0 C48.98 -9.61, 48.98 -19.22, 48.98 -30.61 M48.98 -30.61 C70.29 -30.61, 91.59 -30.61, 122.45 -30.61 M48.98 -30.61 C68.44 -30.61, 87.9 -30.61, 122.45 -30.61" stroke="#4c6ef5" stroke-width="2" fill="none"></path></g><g transform="translate(169.1836734693893 144.69387755102036) rotate(0 61.224489795918316 -15.306122448979579)"><path d="M94.26 -20.35 C101.27 -22.91, 108.29 -25.46, 122.45 -30.61 M94.26 -20.35 C104.76 -24.17, 115.26 -28, 122.45 -30.61" stroke="#4c6ef5" stroke-width="2" fill="none"></path></g><g transform="translate(169.1836734693893 144.69387755102036) rotate(0 61.224489795918316 -15.306122448979579)"><path d="M94.26 -40.87 C101.27 -38.32, 108.29 -35.77, 122.45 -30.61 M94.26 -40.87 C104.76 -37.05, 115.26 -33.23, 122.45 -30.61" stroke="#4c6ef5" stroke-width="2" fill="none"></path></g></g></svg>