<svg version="1.1" xmlns="http://www.w3.org/2000/svg" viewBox="0 0 2780 1000" width="5560" height="2000">
  <!-- svg-source:excalidraw -->
  
  <defs>
    <style>
      @font-face {
        font-family: "Virgil";
        src: url("https://excalidraw.com/Virgil.woff2");
      }
      @font-face {
        font-family: "Cascadia";
        src: url("https://excalidraw.com/Cascadia.woff2");
      }
    </style>
  </defs>
  <rect x="0" y="0" width="2780" height="1000" fill="transparent"></rect><g stroke-linecap="round" transform="translate(10 10) rotate(0 1380 490)"><path d="M0 0 L2760 0 L2760 980 L0 980" stroke="none" stroke-width="0" fill="#f5f5f5"></path><path d="M0 0 C572.5 0, 1144.99 0, 2760 0 M0 0 C915.11 0, 1830.22 0, 2760 0 M2760 0 C2760 343.74, 2760 687.49, 2760 980 M2760 0 C2760 380.26, 2760 760.52, 2760 980 M2760 980 C1898.54 980, 1037.07 980, 0 980 M2760 980 C1742.73 980, 725.46 980, 0 980 M0 980 C0 602.74, 0 225.49, 0 0 M0 980 C0 768.48, 0 556.97, 0 0" stroke="#000000" stroke-width="2" fill="none"></path></g><g stroke-linecap="round" transform="translate(790 190) rotate(0 920 340)"><path d="M0 0 L1840 0 L1840 680 L0 680" stroke="none" stroke-width="0" fill="#d3e3fa"></path><path d="M0 0 C527.22 0, 1054.43 0, 1840 0 M0 0 C706.73 0, 1413.46 0, 1840 0 M1840 0 C1840 159.37, 1840 318.73, 1840 680 M1840 0 C1840 263.07, 1840 526.13, 1840 680 M1840 680 C1134.61 680, 429.21 680, 0 680 M1840 680 C1246.87 680, 653.74 680, 0 680 M0 680 C0 459.14, 0 238.29, 0 0 M0 680 C0 508.4, 0 336.8, 0 0" stroke="#000000" stroke-width="2" fill="none"></path></g><g stroke-linecap="round" transform="translate(2130 250) rotate(0 200 90)"><path d="M45 0 L355 0 L365.55 0.7 L374.69 2.81 L382.42 6.33 L388.75 11.25 L393.67 17.58 L397.19 25.31 L399.3 34.45 L400 45 L400 135 L399.3 145.55 L397.19 154.69 L393.67 162.42 L388.75 168.75 L382.42 173.67 L374.69 177.19 L365.55 179.3 L355 180 L45 180 L34.45 179.3 L25.31 177.19 L17.58 173.67 L11.25 168.75 L6.33 162.42 L2.81 154.69 L0.7 145.55 L0 135 L0 45 L0.7 34.45 L2.81 25.31 L6.33 17.58 L11.25 11.25 L17.58 6.33 L25.31 2.81 L34.45 0.7 L45 0" stroke="none" stroke-width="0" fill="#FFF"></path><path d="M45 0 M45 0 C141.91 0, 238.81 0, 355 0 M45 0 C123.4 0, 201.81 0, 355 0 M355 0 C385 0, 400 15, 400 45 M355 0 C385 0, 400 15, 400 45 M400 45 C400 71.16, 400 97.31, 400 135 M400 45 C400 66.29, 400 87.57, 400 135 M400 135 C400 165, 385 180, 355 180 M400 135 C400 165, 385 180, 355 180 M355 180 C247.85 180, 140.71 180, 45 180 M355 180 C287.56 180, 220.13 180, 45 180 M45 180 C15 180, 0 165, 0 135 M45 180 C15 180, 0 165, 0 135 M0 135 C0 101.47, 0 67.93, 0 45 M0 135 C0 109.78, 0 84.56, 0 45 M0 45 C0 15, 15 0, 45 0 M0 45 C0 15, 15 0, 45 0" stroke="#4285f4" stroke-width="2" fill="none"></path></g><g transform="translate(2290 330) rotate(0 96 35)"><text x="0" y="28" font-family="Helvetica, Segoe UI Emoji" font-size="30.000000000000007px" fill="#000000" text-anchor="start" style="white-space: pre;" direction="ltr">Cloud Storage</text><text x="0" y="63" font-family="Helvetica, Segoe UI Emoji" font-size="30.000000000000007px" fill="#000000" text-anchor="start" style="white-space: pre;" direction="ltr"></text></g><g stroke-linecap="round" transform="translate(2177.9166668653497 313.33333373069763) rotate(0 33.33333492279053 11.666667461395264)"><path d="M0 0 L66.67 0 L66.67 23.33 L0 23.33" stroke="none" stroke-width="0" fill="#aecbfa"></path><path d="M0 0 C22.1 0, 44.21 0, 66.67 0 M0 0 C23.38 0, 46.77 0, 66.67 0 M66.67 0 C66.67 9.05, 66.67 18.11, 66.67 23.33 M66.67 0 C66.67 7.28, 66.67 14.57, 66.67 23.33 M66.67 23.33 C42.09 23.33, 17.52 23.33, 0 23.33 M66.67 23.33 C41 23.33, 15.34 23.33, 0 23.33 M0 23.33 C0 18.3, 0 13.26, 0 0 M0 23.33 C0 14.11, 0 4.89, 0 0" stroke="transparent" stroke-width="1" fill="none"></path></g><g stroke-linecap="round" transform="translate(2237.916669845582 313.33333373069763) rotate(0 3.333333432674408 11.666667461395264)"><path d="M0 0 L6.67 0 L6.67 23.33 L0 23.33" stroke="none" stroke-width="0" fill="#669df6"></path><path d="M0 0 C2.56 0, 5.12 0, 6.67 0 M0 0 C1.56 0, 3.12 0, 6.67 0 M6.67 0 C6.67 9.03, 6.67 18.05, 6.67 23.33 M6.67 0 C6.67 8.95, 6.67 17.89, 6.67 23.33 M6.67 23.33 C4.52 23.33, 2.37 23.33, 0 23.33 M6.67 23.33 C4.5 23.33, 2.34 23.33, 0 23.33 M0 23.33 C0 17.45, 0 11.56, 0 0 M0 23.33 C0 18.34, 0 13.34, 0 0" stroke="transparent" stroke-width="1" fill="none"></path></g><g stroke-linecap="round"><g transform="translate(2244.5833349227914 313.33333373069763) rotate(0 -3.3333325386047363 11.666666865348816)" fill-rule="evenodd"><path d="M0 0 L-6.67 0 L-6.67 23.33 L0 0 L0 0" stroke="none" stroke-width="0" fill="#4285f4" fill-rule="evenodd"></path><path d="M0 0 C-2.09 0, -4.17 0, -6.67 0 M0 0 C-1.39 0, -2.78 0, -6.67 0 M-6.67 0 C-6.67 5.29, -6.67 10.58, -6.67 23.33 M-6.67 0 C-6.67 5.78, -6.67 11.56, -6.67 23.33 M-6.67 23.33 C-4.64 16.24, -2.62 9.15, 0 0 M-6.67 23.33 C-5.15 18.02, -3.63 12.71, 0 0 M0 0 C0 0, 0 0, 0 0 M0 0 C0 0, 0 0, 0 0 M0 0 C0 0, 0 0, 0 0 M0 0 C0 0, 0 0, 0 0" stroke="#00000000" stroke-width="1" fill="none"></path></g></g><g stroke-linecap="round" transform="translate(2177.9166668653497 313.33333373069763) rotate(0 3.333333432674408 11.666667461395264)"><path d="M0 0 L6.67 0 L6.67 23.33 L0 23.33" stroke="none" stroke-width="0" fill="#669df6"></path><path d="M0 0 C2.55 0, 5.09 0, 6.67 0 M0 0 C2.48 0, 4.95 0, 6.67 0 M6.67 0 C6.67 5.59, 6.67 11.19, 6.67 23.33 M6.67 0 C6.67 7.43, 6.67 14.86, 6.67 23.33 M6.67 23.33 C4.72 23.33, 2.78 23.33, 0 23.33 M6.67 23.33 C4.76 23.33, 2.85 23.33, 0 23.33 M0 23.33 C0 15.53, 0 7.74, 0 0 M0 23.33 C0 15.37, 0 7.4, 0 0" stroke="transparent" stroke-width="1" fill="none"></path></g><g stroke-linecap="round" transform="translate(2191.25 323.3333349227905) rotate(0 10 1.666666716337204)"><path d="M0 0 L20 0 L20 3.33 L0 3.33" stroke="none" stroke-width="0" fill="#fff"></path><path d="M0 0 C5.97 0, 11.94 0, 20 0 M0 0 C6.06 0, 12.12 0, 20 0 M20 0 C20 1.08, 20 2.15, 20 3.33 M20 0 C20 0.87, 20 1.73, 20 3.33 M20 3.33 C13.04 3.33, 6.09 3.33, 0 3.33 M20 3.33 C12.04 3.33, 4.09 3.33, 0 3.33 M0 3.33 C0 2.02, 0 0.7, 0 0 M0 3.33 C0 2.1, 0 0.86, 0 0" stroke="transparent" stroke-width="1" fill="none"></path></g><g stroke-linecap="round" transform="translate(2221.249999999999 320) rotate(0 5 5)"><path d="M2.5 0 L9.38 0.63 L10 2.5 L9.38 9.38 L7.5 10 L0.63 9.38 L0 2.5 L0.63 0.63 L2.5 0" stroke="none" stroke-width="0" fill="#fff"></path><path d="M2.5 0 M2.5 0 C4.43 0, 6.37 0, 7.5 0 M2.5 0 C4.13 0, 5.76 0, 7.5 0 M7.5 0 C9.17 0, 10 0.83, 10 2.5 M7.5 0 C9.17 0, 10 0.83, 10 2.5 M10 2.5 C10 4.11, 10 5.72, 10 7.5 M10 2.5 C10 4.1, 10 5.7, 10 7.5 M10 7.5 C10 9.17, 9.17 10, 7.5 10 M10 7.5 C10 9.17, 9.17 10, 7.5 10 M7.5 10 C6.24 10, 4.98 10, 2.5 10 M7.5 10 C5.6 10, 3.71 10, 2.5 10 M2.5 10 C0.83 10, 0 9.17, 0 7.5 M2.5 10 C0.83 10, 0 9.17, 0 7.5 M0 7.5 C0 5.96, 0 4.41, 0 2.5 M0 7.5 C0 5.56, 0 3.61, 0 2.5 M0 2.5 C0 0.83, 0.83 0, 2.5 0 M0 2.5 C0 0.83, 0.83 0, 2.5 0" stroke="transparent" stroke-width="1" fill="none"></path></g><g stroke-linecap="round" transform="translate(2177.9166668653497 343.3333349227905) rotate(0 33.33333492279053 11.666667461395264)"><path d="M0 0 L66.67 0 L66.67 23.33 L0 23.33" stroke="none" stroke-width="0" fill="#aecbfa"></path><path d="M0 0 C23.66 0, 47.32 0, 66.67 0 M0 0 C20.61 0, 41.21 0, 66.67 0 M66.67 0 C66.67 4.91, 66.67 9.81, 66.67 23.33 M66.67 0 C66.67 8.96, 66.67 17.91, 66.67 23.33 M66.67 23.33 C40.44 23.33, 14.21 23.33, 0 23.33 M66.67 23.33 C46.67 23.33, 26.68 23.33, 0 23.33 M0 23.33 C0 16.04, 0 8.75, 0 0 M0 23.33 C0 15.7, 0 8.08, 0 0" stroke="transparent" stroke-width="1" fill="none"></path></g><g stroke-linecap="round" transform="translate(2237.916669845582 343.3333349227905) rotate(0 3.333333432674408 11.666667461395264)"><path d="M0 0 L6.67 0 L6.67 23.33 L0 23.33" stroke="none" stroke-width="0" fill="#669df6"></path><path d="M0 0 C1.44 0, 2.88 0, 6.67 0 M0 0 C1.43 0, 2.85 0, 6.67 0 M6.67 0 C6.67 8.97, 6.67 17.95, 6.67 23.33 M6.67 0 C6.67 7.47, 6.67 14.94, 6.67 23.33 M6.67 23.33 C5.21 23.33, 3.75 23.33, 0 23.33 M6.67 23.33 C4.83 23.33, 2.99 23.33, 0 23.33 M0 23.33 C0 14.18, 0 5.02, 0 0 M0 23.33 C0 17.15, 0 10.97, 0 0" stroke="transparent" stroke-width="1" fill="none"></path></g><g stroke-linecap="round"><g transform="translate(2244.5833349227914 343.3333349227905) rotate(0 -3.3333325386047363 11.666667461395264)" fill-rule="evenodd"><path d="M0 0 L-6.67 0 L-6.67 23.33 L0 0 L0 0" stroke="none" stroke-width="0" fill="#4285f4" fill-rule="evenodd"></path><path d="M0 0 C-2.48 0, -4.97 0, -6.67 0 M0 0 C-2.41 0, -4.82 0, -6.67 0 M-6.67 0 C-6.67 7.61, -6.67 15.23, -6.67 23.33 M-6.67 0 C-6.67 7.84, -6.67 15.68, -6.67 23.33 M-6.67 23.33 C-4.53 15.87, -2.4 8.41, 0 0 M-6.67 23.33 C-5.09 17.81, -3.51 12.3, 0 0 M0 0 C0 0, 0 0, 0 0 M0 0 C0 0, 0 0, 0 0 M0 0 C0 0, 0 0, 0 0 M0 0 C0 0, 0 0, 0 0" stroke="#00000000" stroke-width="1" fill="none"></path></g></g><g stroke-linecap="round" transform="translate(2177.9166668653497 343.3333349227905) rotate(0 3.333333432674408 11.666667461395264)"><path d="M0 0 L6.67 0 L6.67 23.33 L0 23.33" stroke="none" stroke-width="0" fill="#669df6"></path><path d="M0 0 C1.74 0, 3.47 0, 6.67 0 M0 0 C2.24 0, 4.47 0, 6.67 0 M6.67 0 C6.67 5.59, 6.67 11.19, 6.67 23.33 M6.67 0 C6.67 9.13, 6.67 18.26, 6.67 23.33 M6.67 23.33 C4.62 23.33, 2.57 23.33, 0 23.33 M6.67 23.33 C4.77 23.33, 2.87 23.33, 0 23.33 M0 23.33 C0 16.81, 0 10.28, 0 0 M0 23.33 C0 18.54, 0 13.74, 0 0" stroke="transparent" stroke-width="1" fill="none"></path></g><g stroke-linecap="round" transform="translate(2191.25 353.3333349227905) rotate(0 10 1.666666716337204)"><path d="M0 0 L20 0 L20 3.33 L0 3.33" stroke="none" stroke-width="0" fill="#fff"></path><path d="M0 0 C6.19 0, 12.38 0, 20 0 M0 0 C6.25 0, 12.5 0, 20 0 M20 0 C20 0.86, 20 1.72, 20 3.33 M20 0 C20 1.23, 20 2.45, 20 3.33 M20 3.33 C15.28 3.33, 10.56 3.33, 0 3.33 M20 3.33 C14.71 3.33, 9.41 3.33, 0 3.33 M0 3.33 C0 2.27, 0 1.2, 0 0 M0 3.33 C0 2.29, 0 1.25, 0 0" stroke="transparent" stroke-width="1" fill="none"></path></g><g stroke-linecap="round" transform="translate(2221.249999999999 350) rotate(0 5 5)"><path d="M2.5 0 L9.38 0.63 L10 2.5 L9.38 9.38 L7.5 10 L0.63 9.38 L0 2.5 L0.63 0.63 L2.5 0" stroke="none" stroke-width="0" fill="#fff"></path><path d="M2.5 0 M2.5 0 C4.42 0, 6.35 0, 7.5 0 M2.5 0 C4.09 0, 5.68 0, 7.5 0 M7.5 0 C9.17 0, 10 0.83, 10 2.5 M7.5 0 C9.17 0, 10 0.83, 10 2.5 M10 2.5 C10 3.59, 10 4.69, 10 7.5 M10 2.5 C10 3.93, 10 5.36, 10 7.5 M10 7.5 C10 9.17, 9.17 10, 7.5 10 M10 7.5 C10 9.17, 9.17 10, 7.5 10 M7.5 10 C5.54 10, 3.58 10, 2.5 10 M7.5 10 C5.79 10, 4.09 10, 2.5 10 M2.5 10 C0.83 10, 0 9.17, 0 7.5 M2.5 10 C0.83 10, 0 9.17, 0 7.5 M0 7.5 C0 5.91, 0 4.31, 0 2.5 M0 7.5 C0 6.3, 0 5.09, 0 2.5 M0 2.5 C0 0.83, 0.83 0, 2.5 0 M0 2.5 C0 0.83, 0.83 0, 2.5 0" stroke="transparent" stroke-width="1" fill="none"></path></g><g transform="translate(2290 290) rotate(0 43.5 16)"><text x="0" y="26" font-family="Helvetica, Segoe UI Emoji" font-size="28px" fill="#495057" text-anchor="start" style="white-space: pre;" direction="ltr">Photos</text></g><g transform="translate(950 750) rotate(0 160 30.163934426229503)"><text x="0" y="48.32786885245902" font-family="Helvetica, Segoe UI Emoji" font-size="52.459016393442624px" fill="#000000" text-anchor="start" style="white-space: pre;" direction="ltr">Google Cloud</text></g><g stroke-linecap="round" transform="translate(930 510) rotate(0 200 90)"><path d="M45 0 L355 0 L365.55 0.7 L374.69 2.81 L382.42 6.33 L388.75 11.25 L393.67 17.58 L397.19 25.31 L399.3 34.45 L400 45 L400 135 L399.3 145.55 L397.19 154.69 L393.67 162.42 L388.75 168.75 L382.42 173.67 L374.69 177.19 L365.55 179.3 L355 180 L45 180 L34.45 179.3 L25.31 177.19 L17.58 173.67 L11.25 168.75 L6.33 162.42 L2.81 154.69 L0.7 145.55 L0 135 L0 45 L0.7 34.45 L2.81 25.31 L6.33 17.58 L11.25 11.25 L17.58 6.33 L25.31 2.81 L34.45 0.7 L45 0" stroke="none" stroke-width="0" fill="#FFF"></path><path d="M45 0 M45 0 C123.94 0, 202.88 0, 355 0 M45 0 C137.6 0, 230.2 0, 355 0 M355 0 C385 0, 400 15, 400 45 M355 0 C385 0, 400 15, 400 45 M400 45 C400 73.05, 400 101.09, 400 135 M400 45 C400 69.36, 400 93.71, 400 135 M400 135 C400 165, 385 180, 355 180 M400 135 C400 165, 385 180, 355 180 M355 180 C266.94 180, 178.88 180, 45 180 M355 180 C286.98 180, 218.96 180, 45 180 M45 180 C15 180, 0 165, 0 135 M45 180 C15 180, 0 165, 0 135 M0 135 C0 113.89, 0 92.79, 0 45 M0 135 C0 102.78, 0 70.56, 0 45 M0 45 C0 15, 15 0, 45 0 M0 45 C0 15, 15 0, 45 0" stroke="#4285f4" stroke-width="2" fill="none"></path></g><g transform="translate(1092.500000000001 565) rotate(0 106.25 35)"><text x="0" y="28" font-family="Helvetica, Segoe UI Emoji" font-size="29.999999999999993px" fill="#000000" text-anchor="start" style="white-space: pre;" direction="ltr">Cloud Load</text><text x="0" y="63" font-family="Helvetica, Segoe UI Emoji" font-size="29.999999999999993px" fill="#000000" text-anchor="start" style="white-space: pre;" direction="ltr">Balancing</text></g><g stroke-linecap="round"><g transform="translate(1014.1833353042603 596.0969662666319) rotate(0 -3.418184518814087 -6.836361885070801)" fill-rule="evenodd"><path d="M0 0 L-6.84 0 L-6.84 -13.67 L0 -13.67 L0 0" stroke="none" stroke-width="0" fill="#4285f4" fill-rule="evenodd"></path><path d="M0 0 C-2.13 0, -4.27 0, -6.84 0 M0 0 C-2.52 0, -5.04 0, -6.84 0 M-6.84 0 C-6.84 -5.26, -6.84 -10.53, -6.84 -13.67 M-6.84 0 C-6.84 -2.95, -6.84 -5.9, -6.84 -13.67 M-6.84 -13.67 C-4.13 -13.67, -1.43 -13.67, 0 -13.67 M-6.84 -13.67 C-4.41 -13.67, -1.98 -13.67, 0 -13.67 M0 -13.67 C0 -10.66, 0 -7.64, 0 0 M0 -13.67 C0 -9.88, 0 -6.09, 0 0 M0 0 C0 0, 0 0, 0 0 M0 0 C0 0, 0 0, 0 0" stroke="#00000000" stroke-width="1" fill="none"></path></g></g><g stroke-linecap="round"><g transform="translate(983.4196972846976 596.0969662666323) rotate(0 27.34545111656189 8.545454740524292)" fill-rule="evenodd"><path d="M0 0 L0 17.09 L6.84 17.09 L6.84 6.84 L23.93 6.84 L23.93 17.09 L30.76 17.09 L30.76 6.84 L47.85 6.84 L47.85 17.09 L54.69 17.09 L54.69 0 L0 0" stroke="none" stroke-width="0" fill="#669df6" fill-rule="evenodd"></path><path d="M0 0 C0 6.55, 0 13.1, 0 17.09 M0 0 C0 5.51, 0 11.02, 0 17.09 M0 17.09 C2.22 17.09, 4.44 17.09, 6.84 17.09 M0 17.09 C1.73 17.09, 3.45 17.09, 6.84 17.09 M6.84 17.09 C6.84 14.9, 6.84 12.7, 6.84 6.84 M6.84 17.09 C6.84 13.92, 6.84 10.76, 6.84 6.84 M6.84 6.84 C12.86 6.84, 18.88 6.84, 23.93 6.84 M6.84 6.84 C10.47 6.84, 14.09 6.84, 23.93 6.84 M23.93 6.84 C23.93 10.6, 23.93 14.37, 23.93 17.09 M23.93 6.84 C23.93 10.85, 23.93 14.87, 23.93 17.09 M23.93 17.09 C26.63 17.09, 29.32 17.09, 30.76 17.09 M23.93 17.09 C25.98 17.09, 28.04 17.09, 30.76 17.09 M30.76 17.09 C30.76 14.43, 30.76 11.77, 30.76 6.84 M30.76 17.09 C30.76 13.6, 30.76 10.1, 30.76 6.84 M30.76 6.84 C35.17 6.84, 39.57 6.84, 47.85 6.84 M30.76 6.84 C37.16 6.84, 43.56 6.84, 47.85 6.84 M47.85 6.84 C47.85 10.28, 47.85 13.72, 47.85 17.09 M47.85 6.84 C47.85 9.38, 47.85 11.93, 47.85 17.09 M47.85 17.09 C49.73 17.09, 51.61 17.09, 54.69 17.09 M47.85 17.09 C49.97 17.09, 52.09 17.09, 54.69 17.09 M54.69 17.09 C54.69 12.5, 54.69 7.9, 54.69 0 M54.69 17.09 C54.69 11.49, 54.69 5.89, 54.69 0 M54.69 0 C37.84 0, 20.99 0, 0 0 M54.69 0 C43.31 0, 31.93 0, 0 0 M0 0 C0 0, 0 0, 0 0 M0 0 C0 0, 0 0, 0 0" stroke="#00000000" stroke-width="1" fill="none"></path></g></g><g stroke-linecap="round"><g transform="translate(990.2560603618604 565.3333330154421) rotate(0 20.509091019630432 8.545454740524292)" fill-rule="evenodd"><path d="M0 0 L41.02 0 L41.02 17.09 L0 17.09 L0 0" stroke="none" stroke-width="0" fill="#aecbfa" fill-rule="evenodd"></path><path d="M0 0 C10.16 0, 20.33 0, 41.02 0 M0 0 C12.46 0, 24.93 0, 41.02 0 M41.02 0 C41.02 3.89, 41.02 7.78, 41.02 17.09 M41.02 0 C41.02 3.61, 41.02 7.22, 41.02 17.09 M41.02 17.09 C30.64 17.09, 20.27 17.09, 0 17.09 M41.02 17.09 C31.07 17.09, 21.12 17.09, 0 17.09 M0 17.09 C0 13.05, 0 9.01, 0 0 M0 17.09 C0 11.99, 0 6.88, 0 0 M0 0 C0 0, 0 0, 0 0 M0 0 C0 0, 0 0, 0 0" stroke="#00000000" stroke-width="1" fill="none"></path></g></g><g stroke-linecap="round"><g transform="translate(1010.7651495933542 565.3333330154421) rotate(0 10.254546403884888 8.545454740524292)" fill-rule="evenodd"><path d="M0 0 L20.51 0 L20.51 17.09 L0 17.09 L0 0" stroke="none" stroke-width="0" fill="#669df6" fill-rule="evenodd"></path><path d="M0 0 C6.53 0, 13.06 0, 20.51 0 M0 0 C5.98 0, 11.96 0, 20.51 0 M20.51 0 C20.51 4.89, 20.51 9.78, 20.51 17.09 M20.51 0 C20.51 5.71, 20.51 11.42, 20.51 17.09 M20.51 17.09 C13.51 17.09, 6.51 17.09, 0 17.09 M20.51 17.09 C12.48 17.09, 4.45 17.09, 0 17.09 M0 17.09 C0 12.98, 0 8.87, 0 0 M0 17.09 C0 13.13, 0 9.17, 0 0 M0 0 C0 0, 0 0, 0 0 M0 0 C0 0, 0 0, 0 0" stroke="#00000000" stroke-width="1" fill="none"></path></g></g><g stroke-linecap="round"><g transform="translate(1024.4378757476807 613.1878757476804) rotate(0 10.254545211791992 10.254545211791992)" fill-rule="evenodd"><path d="M0 0 L20.51 0 L20.51 20.51 L0 20.51 L0 0" stroke="none" stroke-width="0" fill="#aecbfa" fill-rule="evenodd"></path><path d="M0 0 C5.32 0, 10.65 0, 20.51 0 M0 0 C7.13 0, 14.27 0, 20.51 0 M20.51 0 C20.51 8.16, 20.51 16.32, 20.51 20.51 M20.51 0 C20.51 8.09, 20.51 16.19, 20.51 20.51 M20.51 20.51 C12.91 20.51, 5.31 20.51, 0 20.51 M20.51 20.51 C15.26 20.51, 10 20.51, 0 20.51 M0 20.51 C0 12.41, 0 4.32, 0 0 M0 20.51 C0 14.84, 0 9.17, 0 0 M0 0 C0 0, 0 0, 0 0 M0 0 C0 0, 0 0, 0 0" stroke="#00000000" stroke-width="1" fill="none"></path></g></g><g stroke-linecap="round"><g transform="translate(976.5833330154428 613.1878757476804) rotate(0 10.254545211791992 10.254545211791992)" fill-rule="evenodd"><path d="M0 0 L20.51 0 L20.51 20.51 L0 20.51 L0 0" stroke="none" stroke-width="0" fill="#aecbfa" fill-rule="evenodd"></path><path d="M0 0 C7.34 0, 14.68 0, 20.51 0 M0 0 C5.56 0, 11.13 0, 20.51 0 M20.51 0 C20.51 7.82, 20.51 15.63, 20.51 20.51 M20.51 0 C20.51 7.56, 20.51 15.11, 20.51 20.51 M20.51 20.51 C15.94 20.51, 11.38 20.51, 0 20.51 M20.51 20.51 C14.63 20.51, 8.75 20.51, 0 20.51 M0 20.51 C0 13.84, 0 7.17, 0 0 M0 20.51 C0 14.12, 0 7.74, 0 0 M0 0 C0 0, 0 0, 0 0 M0 0 C0 0, 0 0, 0 0" stroke="#00000000" stroke-width="1" fill="none"></path></g></g><g stroke-linecap="round"><g transform="translate(986.8378794193277 613.1878757476804) rotate(0 5.127272009849548 10.254545211791992)" fill-rule="evenodd"><path d="M0 0 L10.25 0 L10.25 20.51 L0 20.51 L0 0" stroke="none" stroke-width="0" fill="#669df6" fill-rule="evenodd"></path><path d="M0 0 C3.94 0, 7.87 0, 10.25 0 M0 0 C4.03 0, 8.07 0, 10.25 0 M10.25 0 C10.25 6.15, 10.25 12.3, 10.25 20.51 M10.25 0 C10.25 6.41, 10.25 12.82, 10.25 20.51 M10.25 20.51 C6.9 20.51, 3.55 20.51, 0 20.51 M10.25 20.51 C7.27 20.51, 4.29 20.51, 0 20.51 M0 20.51 C0 15.29, 0 10.06, 0 0 M0 20.51 C0 13.42, 0 6.33, 0 0 M0 0 C0 0, 0 0, 0 0 M0 0 C0 0, 0 0, 0 0" stroke="#00000000" stroke-width="1" fill="none"></path></g></g><g stroke-linecap="round"><g transform="translate(1000.5106043815604 613.1878757476804) rotate(0 10.254546403884888 10.254545211791992)" fill-rule="evenodd"><path d="M0 0 L20.51 0 L20.51 20.51 L0 20.51 L0 0" stroke="none" stroke-width="0" fill="#aecbfa" fill-rule="evenodd"></path><path d="M0 0 C6.56 0, 13.13 0, 20.51 0 M0 0 C4.48 0, 8.97 0, 20.51 0 M20.51 0 C20.51 5.66, 20.51 11.31, 20.51 20.51 M20.51 0 C20.51 8.05, 20.51 16.1, 20.51 20.51 M20.51 20.51 C15.08 20.51, 9.64 20.51, 0 20.51 M20.51 20.51 C13.97 20.51, 7.43 20.51, 0 20.51 M0 20.51 C0 15.42, 0 10.34, 0 0 M0 20.51 C0 15.01, 0 9.5, 0 0 M0 0 C0 0, 0 0, 0 0 M0 0 C0 0, 0 0, 0 0" stroke="#00000000" stroke-width="1" fill="none"></path></g></g><g stroke-linecap="round"><g transform="translate(1010.7651495933542 613.1878757476804) rotate(0 5.127273797988892 10.254545211791992)" fill-rule="evenodd"><path d="M0 0 L10.25 0 L10.25 20.51 L0 20.51 L0 0" stroke="none" stroke-width="0" fill="#669df6" fill-rule="evenodd"></path><path d="M0 0 C3.45 0, 6.89 0, 10.25 0 M0 0 C3.28 0, 6.56 0, 10.25 0 M10.25 0 C10.25 4.85, 10.25 9.7, 10.25 20.51 M10.25 0 C10.25 7.78, 10.25 15.55, 10.25 20.51 M10.25 20.51 C8.02 20.51, 5.79 20.51, 0 20.51 M10.25 20.51 C6.27 20.51, 2.28 20.51, 0 20.51 M0 20.51 C0 14.12, 0 7.74, 0 0 M0 20.51 C0 14.94, 0 9.36, 0 0 M0 0 C0 0, 0 0, 0 0 M0 0 C0 0, 0 0, 0 0" stroke="#00000000" stroke-width="1" fill="none"></path></g></g><g stroke-linecap="round"><g transform="translate(1034.6924257278451 613.1878757476804) rotate(0 5.127270221710205 10.254545211791992)" fill-rule="evenodd"><path d="M0 0 L10.25 0 L10.25 20.51 L0 20.51 L0 0" stroke="none" stroke-width="0" fill="#669df6" fill-rule="evenodd"></path><path d="M0 0 C4.01 0, 8.03 0, 10.25 0 M0 0 C3.15 0, 6.31 0, 10.25 0 M10.25 0 C10.25 5.85, 10.25 11.69, 10.25 20.51 M10.25 0 C10.25 5.74, 10.25 11.47, 10.25 20.51 M10.25 20.51 C8.15 20.51, 6.04 20.51, 0 20.51 M10.25 20.51 C7.52 20.51, 4.78 20.51, 0 20.51 M0 20.51 C0 15.12, 0 9.74, 0 0 M0 20.51 C0 12.43, 0 4.35, 0 0 M0 0 C0 0, 0 0, 0 0 M0 0 C0 0, 0 0, 0 0" stroke="#00000000" stroke-width="1" fill="none"></path></g></g><g stroke-linecap="round"><g transform="translate(530 510) rotate(0 200 50)"><path d="M0 0 C63.28 0, 126.56 0, 160 0 M0 0 C54.93 0, 109.86 0, 160 0 M160 0 C160 35.06, 160 70.12, 160 100 M160 0 C160 28.17, 160 56.35, 160 100 M160 100 C223.26 100, 286.53 100, 400 100 M160 100 C221.15 100, 282.3 100, 400 100" stroke="#4c6ef5" stroke-width="4" fill="none"></path></g><g transform="translate(530 510) rotate(0 200 50)"><path d="M371.81 110.26 C382.96 106.2, 394.11 102.14, 400 100 M371.81 110.26 C381.49 106.74, 391.17 103.22, 400 100" stroke="#4c6ef5" stroke-width="4" fill="none"></path></g><g transform="translate(530 510) rotate(0 200 50)"><path d="M371.81 89.74 C382.96 93.8, 394.11 97.86, 400 100 M371.81 89.74 C381.49 93.26, 391.17 96.78, 400 100" stroke="#4c6ef5" stroke-width="4" fill="none"></path></g></g><g stroke-linecap="round"><g transform="translate(1331.5789473684213 610.8960005691004) rotate(0 98.42105263157896 0.5367294523069859)"><path d="M0 0 C56.31 0.31, 112.62 0.61, 196.84 1.07 M0 0 C65.79 0.36, 131.58 0.72, 196.84 1.07" stroke="#4c6ef5" stroke-width="4" fill="none"></path></g><g transform="translate(1331.5789473684213 610.8960005691004) rotate(0 98.42105263157896 0.5367294523069859)"><path d="M168.6 11.18 C176.68 8.29, 184.76 5.4, 196.84 1.07 M168.6 11.18 C178.04 7.8, 187.48 4.42, 196.84 1.07" stroke="#4c6ef5" stroke-width="4" fill="none"></path></g><g transform="translate(1331.5789473684213 610.8960005691004) rotate(0 98.42105263157896 0.5367294523069859)"><path d="M168.71 -9.34 C176.76 -6.36, 184.8 -3.38, 196.84 1.07 M168.71 -9.34 C178.11 -5.86, 187.51 -2.38, 196.84 1.07" stroke="#4c6ef5" stroke-width="4" fill="none"></path></g></g><g stroke-linecap="round" transform="translate(1530 510) rotate(0 200 90)"><path d="M45 0 L355 0 L365.55 0.7 L374.69 2.81 L382.42 6.33 L388.75 11.25 L393.67 17.58 L397.19 25.31 L399.3 34.45 L400 45 L400 135 L399.3 145.55 L397.19 154.69 L393.67 162.42 L388.75 168.75 L382.42 173.67 L374.69 177.19 L365.55 179.3 L355 180 L45 180 L34.45 179.3 L25.31 177.19 L17.58 173.67 L11.25 168.75 L6.33 162.42 L2.81 154.69 L0.7 145.55 L0 135 L0 45 L0.7 34.45 L2.81 25.31 L6.33 17.58 L11.25 11.25 L17.58 6.33 L25.31 2.81 L34.45 0.7 L45 0" stroke="none" stroke-width="0" fill="#FFF"></path><path d="M45 0 M45 0 C166.36 0, 287.73 0, 355 0 M45 0 C160.41 0, 275.82 0, 355 0 M355 0 C385 0, 400 15, 400 45 M355 0 C385 0, 400 15, 400 45 M400 45 C400 72.09, 400 99.18, 400 135 M400 45 C400 66.26, 400 87.51, 400 135 M400 135 C400 165, 385 180, 355 180 M400 135 C400 165, 385 180, 355 180 M355 180 C249.4 180, 143.8 180, 45 180 M355 180 C233.45 180, 111.9 180, 45 180 M45 180 C15 180, 0 165, 0 135 M45 180 C15 180, 0 165, 0 135 M0 135 C0 101.32, 0 67.63, 0 45 M0 135 C0 105.03, 0 75.05, 0 45 M0 45 C0 15, 15 0, 45 0 M0 45 C0 15, 15 0, 45 0" stroke="#4285f4" stroke-width="2" fill="none"></path></g><g transform="translate(1692.5 565) rotate(0 76.84210526315792 52.10526315789474)"><text x="0" y="27.736842105263158" font-family="Helvetica, Segoe UI Emoji" font-size="30px" fill="#000000" text-anchor="start" style="white-space: pre;" direction="ltr">Google </text><text x="0" y="62.473684210526315" font-family="Helvetica, Segoe UI Emoji" font-size="30px" fill="#000000" text-anchor="start" style="white-space: pre;" direction="ltr">Kubernetes</text><text x="0" y="97.21052631578948" font-family="Helvetica, Segoe UI Emoji" font-size="30px" fill="#000000" text-anchor="start" style="white-space: pre;" direction="ltr">Engine</text></g><g stroke-linecap="round"><g transform="translate(1610.135265558958 563.1157895922661) rotate(0 1.6410503089427948 37.73684158921242)" fill-rule="evenodd"><path d="M1.66 0 L-31.58 18.88 L-31.58 56.57 L1.6 75.47 L34.86 56.44 L34.86 18.53 L1.66 0" stroke="none" stroke-width="0" fill="#aecbfa" fill-rule="evenodd"></path><path d="M1.66 0 C-8.31 5.66, -18.28 11.33, -31.58 18.88 M1.66 0 C-8.73 5.9, -19.12 11.81, -31.58 18.88 M-31.58 18.88 C-31.58 31.2, -31.58 43.52, -31.58 56.57 M-31.58 18.88 C-31.58 29.84, -31.58 40.79, -31.58 56.57 M-31.58 56.57 C-23.13 61.38, -14.68 66.2, 1.6 75.47 M-31.58 56.57 C-20.11 63.1, -8.64 69.64, 1.6 75.47 M1.6 75.47 C11.96 69.54, 22.33 63.61, 34.86 56.44 M1.6 75.47 C13.99 68.38, 26.39 61.29, 34.86 56.44 M34.86 56.44 C34.86 45.67, 34.86 34.9, 34.86 18.53 M34.86 56.44 C34.86 44.14, 34.86 31.84, 34.86 18.53 M34.86 18.53 C27.08 14.18, 19.29 9.84, 1.66 0 M34.86 18.53 C21.8 11.24, 8.74 3.95, 1.66 0 M1.66 0 C1.66 0, 1.66 0, 1.66 0 M1.66 0 C1.66 0, 1.66 0, 1.66 0" stroke="#00000000" stroke-width="1" fill="none"></path></g></g><g stroke-linecap="round"><g transform="translate(1610.5131599903107 571.3263165950775) rotate(0 1.2631561756134033 29.515791535377502)" fill-rule="evenodd"><path d="M1.31 0 L-24.8 14.84 L-24.8 44.19 L1.2 59.03 L27.33 44.08 L27.33 14.53 L1.31 0" stroke="none" stroke-width="0" fill="#fff" fill-rule="evenodd"></path><path d="M1.31 0 C-5.9 4.09, -13.1 8.19, -24.8 14.84 M1.31 0 C-8.94 5.82, -19.18 11.65, -24.8 14.84 M-24.8 14.84 C-24.8 22.62, -24.8 30.39, -24.8 44.19 M-24.8 14.84 C-24.8 24.2, -24.8 33.55, -24.8 44.19 M-24.8 44.19 C-18.35 47.87, -11.91 51.55, 1.2 59.03 M-24.8 44.19 C-17.82 48.17, -10.85 52.16, 1.2 59.03 M1.2 59.03 C10.17 53.9, 19.15 48.76, 27.33 44.08 M1.2 59.03 C8.72 54.73, 16.25 50.42, 27.33 44.08 M27.33 44.08 C27.33 37.9, 27.33 31.71, 27.33 14.53 M27.33 44.08 C27.33 34.63, 27.33 25.18, 27.33 14.53 M27.33 14.53 C21.5 11.27, 15.67 8.02, 1.31 0 M27.33 14.53 C19 9.88, 10.68 5.24, 1.31 0 M1.31 0 C1.31 0, 1.31 0, 1.31 0 M1.31 0 C1.31 0, 1.31 0, 1.31 0" stroke="#00000000" stroke-width="1" fill="none"></path></g></g><g stroke-linecap="round"><g transform="translate(1613.439474105835 601.3105276823044) rotate(0 7.378947734832764 4.836843848228455)" fill-rule="evenodd"><path d="M0 0.44 L0 17.97 L14.76 9.32 L14.76 -8.3 L0 0.44" stroke="none" stroke-width="0" fill="#4285f4" fill-rule="evenodd"></path><path d="M0 0.44 C0 4.58, 0 8.73, 0 17.97 M0 0.44 C0 7.09, 0 13.74, 0 17.97 M0 17.97 C3.21 16.09, 6.43 14.2, 14.76 9.32 M0 17.97 C5.74 14.61, 11.47 11.25, 14.76 9.32 M14.76 9.32 C14.76 3.83, 14.76 -1.65, 14.76 -8.3 M14.76 9.32 C14.76 4.53, 14.76 -0.25, 14.76 -8.3 M14.76 -8.3 C9.69 -5.3, 4.62 -2.3, 0 0.44 M14.76 -8.3 C9.26 -5.05, 3.77 -1.79, 0 0.44 M0 0.44 C0 0.44, 0 0.44, 0 0.44 M0 0.44 C0 0.44, 0 0.44, 0 0.44" stroke="#00000000" stroke-width="1" fill="none"></path></g></g><g stroke-linecap="round"><g transform="translate(1596.681580543518 589.7378972768784) rotate(0 15.094738006591797 0.4621037244796753)" fill-rule="evenodd"><path d="M0 0.43 L14.97 9.1 L30.19 0.41 L14.97 -8.18 L0 0.43" stroke="none" stroke-width="0" fill="#aecbfa" fill-rule="evenodd"></path><path d="M0 0.43 C4.27 2.9, 8.53 5.38, 14.97 9.1 M0 0.43 C4.19 2.86, 8.37 5.28, 14.97 9.1 M14.97 9.1 C18.1 7.32, 21.23 5.53, 30.19 0.41 M14.97 9.1 C19.03 6.78, 23.09 4.46, 30.19 0.41 M30.19 0.41 C26.19 -1.85, 22.2 -4.1, 14.97 -8.18 M30.19 0.41 C24.19 -2.97, 18.2 -6.36, 14.97 -8.18 M14.97 -8.18 C10.97 -5.88, 6.97 -3.58, 0 0.43 M14.97 -8.18 C10.21 -5.44, 5.45 -2.7, 0 0.43 M0 0.43 C0 0.43, 0 0.43, 0 0.43 M0 0.43 C0 0.43, 0 0.43, 0 0.43" stroke="#00000000" stroke-width="1" fill="none"></path></g></g><g stroke-linecap="round"><g transform="translate(1595.265790104866 593.0947375297546) rotate(0 7.278946757316589 13.094738721847534)" fill-rule="evenodd"><path d="M0.01 0 L14.66 8.76 L14.66 26.19 L-0.1 17.26 L0.01 0" stroke="none" stroke-width="0" fill="#669df6" fill-rule="evenodd"></path><path d="M0.01 0 C3.88 2.32, 7.76 4.64, 14.66 8.76 M0.01 0 C4.69 2.8, 9.37 5.6, 14.66 8.76 M14.66 8.76 C14.66 14.2, 14.66 19.65, 14.66 26.19 M14.66 8.76 C14.66 15.48, 14.66 22.2, 14.66 26.19 M14.66 26.19 C10.94 23.94, 7.22 21.69, -0.1 17.26 M14.66 26.19 C10.33 23.57, 6 20.95, -0.1 17.26 M-0.1 17.26 C-0.06 10.75, -0.02 4.23, 0.01 0 M-0.1 17.26 C-0.07 12.64, -0.04 8.01, 0.01 0 M0.01 0 C0.01 0, 0.01 0, 0.01 0 M0.01 0 C0.01 0, 0.01 0, 0.01 0" stroke="#00000000" stroke-width="1" fill="none"></path></g></g><g stroke-linecap="round"><g transform="translate(1613.2700004577637 583.0463163256645) rotate(0 -1.5252628326416016 -5.5515788197517395)" fill-rule="evenodd"><path d="M0.17 0.62 L0.17 -10.81 L-1.45 -11.72 L-3.22 -10.69 L-3.22 0.62 L0.17 0.62" stroke="none" stroke-width="0" fill="#aecbfa" fill-rule="evenodd"></path><path d="M0.17 0.62 C0.17 -1.85, 0.17 -4.32, 0.17 -10.81 M0.17 0.62 C0.17 -3.9, 0.17 -8.42, 0.17 -10.81 M0.17 -10.81 C-0.41 -11.14, -0.98 -11.46, -1.45 -11.72 M0.17 -10.81 C-0.19 -11.01, -0.55 -11.21, -1.45 -11.72 M-1.45 -11.72 C-1.94 -11.43, -2.43 -11.15, -3.22 -10.69 M-1.45 -11.72 C-2 -11.4, -2.54 -11.08, -3.22 -10.69 M-3.22 -10.69 C-3.22 -7.11, -3.22 -3.53, -3.22 0.62 M-3.22 -10.69 C-3.22 -6.23, -3.22 -1.76, -3.22 0.62 M-3.22 0.62 C-2.42 0.62, -1.62 0.62, 0.17 0.62 M-3.22 0.62 C-2.46 0.62, -1.7 0.62, 0.17 0.62 M0.17 0.62 C0.17 0.62, 0.17 0.62, 0.17 0.62 M0.17 0.62 C0.17 0.62, 0.17 0.62, 0.17 0.62" stroke="#00000000" stroke-width="1" fill="none"></path></g></g><g stroke-linecap="round"><g transform="translate(1637.1615798473358 613.6515798568726) rotate(0 -6.101053476333618 -1.872631549835205)" fill-rule="evenodd"><path d="M0.68 0.35 L-11.3 -6.62 L-12.88 -3.88 L-1.26 2.87 L0.68 1.76 L0.68 0.35" stroke="none" stroke-width="0" fill="#4285f4" fill-rule="evenodd"></path><path d="M0.68 0.35 C-2.34 -1.41, -5.37 -3.17, -11.3 -6.62 M0.68 0.35 C-1.89 -1.14, -4.45 -2.64, -11.3 -6.62 M-11.3 -6.62 C-11.79 -5.77, -12.28 -4.93, -12.88 -3.88 M-11.3 -6.62 C-11.86 -5.66, -12.41 -4.69, -12.88 -3.88 M-12.88 -3.88 C-10.41 -2.45, -7.94 -1.01, -1.26 2.87 M-12.88 -3.88 C-8.61 -1.4, -4.34 1.08, -1.26 2.87 M-1.26 2.87 C-0.5 2.44, 0.26 2, 0.68 1.76 M-1.26 2.87 C-0.49 2.43, 0.27 1.99, 0.68 1.76 M0.68 1.76 C0.68 1.33, 0.68 0.91, 0.68 0.35 M0.68 1.76 C0.68 1.39, 0.68 1.03, 0.68 0.35 M0.68 0.35 C0.68 0.35, 0.68 0.35, 0.68 0.35 M0.68 0.35 C0.68 0.35, 0.68 0.35, 0.68 0.35" stroke="#00000000" stroke-width="1" fill="none"></path></g></g><g stroke-linecap="round"><g transform="translate(1596.6731592416763 607.0947360992432) rotate(0 -4.3810542821884155 4.747369289398193)" fill-rule="evenodd"><path d="M0.58 0 L-10.96 6.95 L-10.96 8.42 L-9.09 9.49 L2.2 2.72 L0.58 0" stroke="none" stroke-width="0" fill="#669df6" fill-rule="evenodd"></path><path d="M0.58 0 C-1.86 1.47, -4.3 2.94, -10.96 6.95 M0.58 0 C-2.34 1.76, -5.26 3.51, -10.96 6.95 M-10.96 6.95 C-10.96 7.3, -10.96 7.66, -10.96 8.42 M-10.96 6.95 C-10.96 7.3, -10.96 7.64, -10.96 8.42 M-10.96 8.42 C-10.4 8.74, -9.84 9.06, -9.09 9.49 M-10.96 8.42 C-10.55 8.65, -10.14 8.89, -9.09 9.49 M-9.09 9.49 C-6.03 7.66, -2.98 5.83, 2.2 2.72 M-9.09 9.49 C-5.92 7.6, -2.76 5.7, 2.2 2.72 M2.2 2.72 C1.84 2.12, 1.49 1.52, 0.58 0 M2.2 2.72 C1.76 1.98, 1.31 1.23, 0.58 0 M0.58 0 C0.58 0, 0.58 0, 0.58 0 M0.58 0 C0.58 0, 0.58 0, 0.58 0" stroke="#00000000" stroke-width="1" fill="none"></path></g></g><g transform="translate(1690 530) rotate(0 68.5 16)"><text x="0" y="26" font-family="Helvetica, Segoe UI Emoji" font-size="28px" fill="#495057" text-anchor="start" style="white-space: pre;" direction="ltr">Application</text></g><g stroke-linecap="round"><g transform="translate(1730 510) rotate(0 0 -80)"><path d="M0 0 C0 -63.15, 0 -126.3, 0 -160 M0 0 C0 -59.29, 0 -118.57, 0 -160" stroke="#4c6ef5" stroke-width="4" fill="none"></path></g></g><g stroke-linecap="round"><g transform="translate(1730 350) rotate(0 199.5 0)"><path d="M0 0 C146.99 0, 293.99 0, 399 0 M0 0 C88.8 0, 177.61 0, 399 0" stroke="#4c6ef5" stroke-width="4" fill="none"></path></g><g transform="translate(1730 350) rotate(0 199.5 0)"><path d="M370.81 10.26 C381.19 6.48, 391.58 2.7, 399 0 M370.81 10.26 C377.08 7.98, 383.36 5.69, 399 0" stroke="#4c6ef5" stroke-width="4" fill="none"></path></g><g transform="translate(1730 350) rotate(0 199.5 0)"><path d="M370.81 -10.26 C381.19 -6.48, 391.58 -2.7, 399 0 M370.81 -10.26 C377.08 -7.98, 383.36 -5.69, 399 0" stroke="#4c6ef5" stroke-width="4" fill="none"></path></g></g><g stroke-linecap="round" transform="translate(2130 510) rotate(0 200 90)"><path d="M45 0 L355 0 L365.55 0.7 L374.69 2.81 L382.42 6.33 L388.75 11.25 L393.67 17.58 L397.19 25.31 L399.3 34.45 L400 45 L400 135 L399.3 145.55 L397.19 154.69 L393.67 162.42 L388.75 168.75 L382.42 173.67 L374.69 177.19 L365.55 179.3 L355 180 L45 180 L34.45 179.3 L25.31 177.19 L17.58 173.67 L11.25 168.75 L6.33 162.42 L2.81 154.69 L0.7 145.55 L0 135 L0 45 L0.7 34.45 L2.81 25.31 L6.33 17.58 L11.25 11.25 L17.58 6.33 L25.31 2.81 L34.45 0.7 L45 0" stroke="none" stroke-width="0" fill="#FFF"></path><path d="M45 0 M45 0 C109.61 0, 174.23 0, 355 0 M45 0 C113.89 0, 182.79 0, 355 0 M355 0 C385 0, 400 15, 400 45 M355 0 C385 0, 400 15, 400 45 M400 45 C400 74.35, 400 103.7, 400 135 M400 45 C400 72.27, 400 99.54, 400 135 M400 135 C400 165, 385 180, 355 180 M400 135 C400 165, 385 180, 355 180 M355 180 C292.06 180, 229.12 180, 45 180 M355 180 C288.42 180, 221.84 180, 45 180 M45 180 C15 180, 0 165, 0 135 M45 180 C15 180, 0 165, 0 135 M0 135 C0 101.5, 0 67.99, 0 45 M0 135 C0 106.03, 0 77.06, 0 45 M0 45 C0 15, 15 0, 45 0 M0 45 C0 15, 15 0, 45 0" stroke="#4285f4" stroke-width="2" fill="none"></path></g><g transform="translate(2292.5 582.4999999999999) rotate(0 91.33333333333326 21.333333333333314)"><text x="0" y="33.666666666666664" font-family="Helvetica, Segoe UI Emoji" font-size="37.33333333333331px" fill="#000000" text-anchor="start" style="white-space: pre;" direction="ltr">Cloud SQL</text></g><g stroke-linecap="round"><g transform="translate(2186.816667318344 594.800000190735) rotate(0 12.216666340827942 11.516668796539307)" fill-rule="evenodd"><path d="M0 0 L0 10.03 L24.43 23.03 L24.43 13 L0 0 L0 0" stroke="none" stroke-width="0" fill="#aecbfa" fill-rule="evenodd"></path><path d="M0 0 C0 3.12, 0 6.25, 0 10.03 M0 0 C0 2.73, 0 5.45, 0 10.03 M0 10.03 C8.39 14.5, 16.79 18.97, 24.43 23.03 M0 10.03 C9.1 14.87, 18.19 19.71, 24.43 23.03 M24.43 23.03 C24.43 20.48, 24.43 17.92, 24.43 13 M24.43 23.03 C24.43 20.66, 24.43 18.29, 24.43 13 M24.43 13 C19.11 10.17, 13.79 7.34, 0 0 M24.43 13 C14.85 7.9, 5.27 2.81, 0 0 M0 0 C0 0, 0 0, 0 0 M0 0 C0 0, 0 0, 0 0 M0 0 C0 0, 0 0, 0 0 M0 0 C0 0, 0 0, 0 0" stroke="#00000000" stroke-width="1" fill="none"></path></g></g><g stroke-linecap="round"><g transform="translate(2186.816667318344 610.3000020980834) rotate(0 12.216666340827942 11.516666412353516)" fill-rule="evenodd"><path d="M0 0 L0 10.03 L24.43 23.03 L24.43 13 L0 0 L0 0" stroke="none" stroke-width="0" fill="#aecbfa" fill-rule="evenodd"></path><path d="M0 0 C0 2.63, 0 5.27, 0 10.03 M0 0 C0 3.95, 0 7.9, 0 10.03 M0 10.03 C6.53 13.51, 13.06 16.98, 24.43 23.03 M0 10.03 C7.77 14.17, 15.54 18.3, 24.43 23.03 M24.43 23.03 C24.43 19.88, 24.43 16.73, 24.43 13 M24.43 23.03 C24.43 19.54, 24.43 16.05, 24.43 13 M24.43 13 C15.6 8.3, 6.76 3.6, 0 0 M24.43 13 C15.59 8.29, 6.74 3.58, 0 0 M0 0 C0 0, 0 0, 0 0 M0 0 C0 0, 0 0, 0 0 M0 0 C0 0, 0 0, 0 0 M0 0 C0 0, 0 0, 0 0" stroke="#00000000" stroke-width="1" fill="none"></path></g></g><g stroke-linecap="round"><g transform="translate(2211.249999999999 612.0750033855439) rotate(0 12.216668128967285 -5.758334398269653)" fill-rule="evenodd"><path d="M0 5.76 L24.43 -7.24 L24.43 -17.28 L0 -4.28 L0 5.76 L0 5.76" stroke="none" stroke-width="0" fill="#669df6" fill-rule="evenodd"></path><path d="M0 5.76 C6.16 2.48, 12.32 -0.8, 24.43 -7.24 M0 5.76 C7.17 1.94, 14.34 -1.87, 24.43 -7.24 M24.43 -7.24 C24.43 -11.03, 24.43 -14.81, 24.43 -17.28 M24.43 -7.24 C24.43 -9.93, 24.43 -12.62, 24.43 -17.28 M24.43 -17.28 C18.3 -14.01, 12.17 -10.75, 0 -4.28 M24.43 -17.28 C17.62 -13.65, 10.81 -10.03, 0 -4.28 M0 -4.28 C0 -2.02, 0 0.24, 0 5.76 M0 -4.28 C0 -2.05, 0 0.18, 0 5.76 M0 5.76 C0 5.76, 0 5.76, 0 5.76 M0 5.76 C0 5.76, 0 5.76, 0 5.76 M0 5.76 C0 5.76, 0 5.76, 0 5.76 M0 5.76 C0 5.76, 0 5.76, 0 5.76" stroke="#00000000" stroke-width="1" fill="none"></path></g></g><g stroke-linecap="round"><g transform="translate(2211.249999999999 627.5750017166137) rotate(0 12.216668128967285 -5.758333206176758)" fill-rule="evenodd"><path d="M0 5.76 L24.43 -7.24 L24.43 -17.27 L0 -4.28 L0 5.76 L0 5.76" stroke="none" stroke-width="0" fill="#669df6" fill-rule="evenodd"></path><path d="M0 5.76 C6.77 2.16, 13.54 -1.45, 24.43 -7.24 M0 5.76 C7.53 1.75, 15.06 -2.26, 24.43 -7.24 M24.43 -7.24 C24.43 -10.42, 24.43 -13.59, 24.43 -17.27 M24.43 -7.24 C24.43 -11.2, 24.43 -15.16, 24.43 -17.27 M24.43 -17.27 C18.68 -14.21, 12.92 -11.15, 0 -4.28 M24.43 -17.27 C18.96 -14.36, 13.48 -11.45, 0 -4.28 M0 -4.28 C0 -2.22, 0 -0.17, 0 5.76 M0 -4.28 C0 -1.6, 0 1.08, 0 5.76 M0 5.76 C0 5.76, 0 5.76, 0 5.76 M0 5.76 C0 5.76, 0 5.76, 0 5.76 M0 5.76 C0 5.76, 0 5.76, 0 5.76 M0 5.76 C0 5.76, 0 5.76, 0 5.76" stroke="#00000000" stroke-width="1" fill="none"></path></g></g><g stroke-linecap="round"><g transform="translate(2229.57500219345 583.9416669309138) rotate(0 -6.108334064483643 -5.75833335518837)" fill-rule="evenodd"><path d="M6.11 5.76 L6.11 -4.27 L-18.33 -17.28 L-18.33 -7.24 L6.11 5.76 L6.11 5.76" stroke="none" stroke-width="0" fill="#4285f4" fill-rule="evenodd"></path><path d="M6.11 5.76 C6.11 3.63, 6.11 1.5, 6.11 -4.27 M6.11 5.76 C6.11 2.07, 6.11 -1.61, 6.11 -4.27 M6.11 -4.27 C-3.46 -9.36, -13.02 -14.45, -18.33 -17.28 M6.11 -4.27 C-3.54 -9.41, -13.18 -14.54, -18.33 -17.28 M-18.33 -17.28 C-18.33 -14.26, -18.33 -11.24, -18.33 -7.24 M-18.33 -17.28 C-18.33 -14.67, -18.33 -12.06, -18.33 -7.24 M-18.33 -7.24 C-10 -2.81, -1.68 1.62, 6.11 5.76 M-18.33 -7.24 C-12.03 -3.89, -5.74 -0.54, 6.11 5.76 M6.11 5.76 C6.11 5.76, 6.11 5.76, 6.11 5.76 M6.11 5.76 C6.11 5.76, 6.11 5.76, 6.11 5.76 M6.11 5.76 C6.11 5.76, 6.11 5.76, 6.11 5.76 M6.11 5.76 C6.11 5.76, 6.11 5.76, 6.11 5.76" stroke="#00000000" stroke-width="1" fill="none"></path></g></g><g stroke-linecap="round"><g transform="translate(2205.141666829586 566.6666668653487) rotate(0 -6.108333170413971 11.51666671037674)" fill-rule="evenodd"><path d="M6.11 0 L-18.32 13 L-18.32 23.03 L6.11 10.03 L6.11 0 L6.11 0" stroke="none" stroke-width="0" fill="#669df6" fill-rule="evenodd"></path><path d="M6.11 0 C-1.19 3.88, -8.49 7.77, -18.32 13 M6.11 0 C0.79 2.83, -4.52 5.66, -18.32 13 M-18.32 13 C-18.32 15.72, -18.32 18.43, -18.32 23.03 M-18.32 13 C-18.32 15.81, -18.32 18.62, -18.32 23.03 M-18.32 23.03 C-12.96 20.18, -7.6 17.33, 6.11 10.03 M-18.32 23.03 C-11.66 19.49, -5 15.94, 6.11 10.03 M6.11 10.03 C6.11 6.44, 6.11 2.85, 6.11 0 M6.11 10.03 C6.11 6.77, 6.11 3.5, 6.11 0 M6.11 0 C6.11 0, 6.11 0, 6.11 0 M6.11 0 C6.11 0, 6.11 0, 6.11 0 M6.11 0 C6.11 0, 6.11 0, 6.11 0 M6.11 0 C6.11 0, 6.11 0, 6.11 0" stroke="#00000000" stroke-width="1" fill="none"></path></g></g><g stroke-linecap="round"><g transform="translate(2186.816667318344 579.5666670799253) rotate(0 12.216666340827942 11.53333306312561)" fill-rule="evenodd"><path d="M0 0 L0 10.07 L24.43 23.07 L24.43 13 L0 0 L0 0" stroke="none" stroke-width="0" fill="#aecbfa" fill-rule="evenodd"></path><path d="M0 0 C0 2.33, 0 4.67, 0 10.07 M0 0 C0 2.12, 0 4.24, 0 10.07 M0 10.07 C7.03 13.81, 14.07 17.55, 24.43 23.07 M0 10.07 C8.06 14.36, 16.12 18.64, 24.43 23.07 M24.43 23.07 C24.43 19.3, 24.43 15.53, 24.43 13 M24.43 23.07 C24.43 19.95, 24.43 16.83, 24.43 13 M24.43 13 C19.34 10.29, 14.25 7.58, 0 0 M24.43 13 C17.67 9.4, 10.91 5.81, 0 0 M0 0 C0 0, 0 0, 0 0 M0 0 C0 0, 0 0, 0 0 M0 0 C0 0, 0 0, 0 0 M0 0 C0 0, 0 0, 0 0" stroke="#00000000" stroke-width="1" fill="none"></path></g></g><g stroke-linecap="round"><g transform="translate(2211.249999999999 596.8666666746137) rotate(0 12.216668128967285 -5.766666531562805)" fill-rule="evenodd"><path d="M0 5.77 L24.43 -7.23 L24.43 -17.3 L0 -4.3 L0 5.77 L0 5.77" stroke="none" stroke-width="0" fill="#669df6" fill-rule="evenodd"></path><path d="M0 5.77 C6.75 2.17, 13.51 -1.42, 24.43 -7.23 M0 5.77 C9.04 0.96, 18.08 -3.85, 24.43 -7.23 M24.43 -7.23 C24.43 -10.58, 24.43 -13.93, 24.43 -17.3 M24.43 -7.23 C24.43 -11.23, 24.43 -15.22, 24.43 -17.3 M24.43 -17.3 C19.15 -14.49, 13.88 -11.68, 0 -4.3 M24.43 -17.3 C17.19 -13.45, 9.95 -9.59, 0 -4.3 M0 -4.3 C0 -2.15, 0 0.01, 0 5.77 M0 -4.3 C0 -0.99, 0 2.32, 0 5.77 M0 5.77 C0 5.77, 0 5.77, 0 5.77 M0 5.77 C0 5.77, 0 5.77, 0 5.77 M0 5.77 C0 5.77, 0 5.77, 0 5.77 M0 5.77 C0 5.77, 0 5.77, 0 5.77" stroke="#00000000" stroke-width="1" fill="none"></path></g></g><g transform="translate(2290 530) rotate(0 76.5 16)"><text x="0" y="26" font-family="Helvetica, Segoe UI Emoji" font-size="28px" fill="#495057" text-anchor="start" style="white-space: pre;" direction="ltr">PostgreSQL</text></g><g stroke-linecap="round"><g transform="translate(1931.4035087719303 608.1226358008595) rotate(0 98.68704018109793 -0.7897245108145512)"><path d="M0 0 C55.31 -0.44, 110.61 -0.89, 197.37 -1.58 M0 0 C43.31 -0.35, 86.62 -0.69, 197.37 -1.58" stroke="#4c6ef5" stroke-width="4" fill="none"></path></g><g transform="translate(1931.4035087719303 608.1226358008595) rotate(0 98.68704018109793 -0.7897245108145512)"><path d="M169.27 8.91 C177.14 5.97, 185.02 3.03, 197.37 -1.58 M169.27 8.91 C175.43 6.61, 181.6 4.3, 197.37 -1.58" stroke="#4c6ef5" stroke-width="4" fill="none"></path></g><g transform="translate(1931.4035087719303 608.1226358008595) rotate(0 98.68704018109793 -0.7897245108145512)"><path d="M169.1 -11.61 C177.02 -8.8, 184.95 -5.99, 197.37 -1.58 M169.1 -11.61 C175.31 -9.41, 181.51 -7.21, 197.37 -1.58" stroke="#4c6ef5" stroke-width="4" fill="none"></path></g></g><g stroke-linecap="round" transform="translate(930 261) rotate(0 200 90)"><path d="M45 0 L355 0 L365.55 0.7 L374.69 2.81 L382.42 6.33 L388.75 11.25 L393.67 17.58 L397.19 25.31 L399.3 34.45 L400 45 L400 135 L399.3 145.55 L397.19 154.69 L393.67 162.42 L388.75 168.75 L382.42 173.67 L374.69 177.19 L365.55 179.3 L355 180 L45 180 L34.45 179.3 L25.31 177.19 L17.58 173.67 L11.25 168.75 L6.33 162.42 L2.81 154.69 L0.7 145.55 L0 135 L0 45 L0.7 34.45 L2.81 25.31 L6.33 17.58 L11.25 11.25 L17.58 6.33 L25.31 2.81 L34.45 0.7 L45 0" stroke="none" stroke-width="0" fill="#FFF"></path><path d="M45 0 M45 0 C112.23 0, 179.46 0, 355 0 M45 0 C163.19 0, 281.38 0, 355 0 M355 0 C385 0, 400 15, 400 45 M355 0 C385 0, 400 15, 400 45 M400 45 C400 76.95, 400 108.9, 400 135 M400 45 C400 80.79, 400 116.57, 400 135 M400 135 C400 165, 385 180, 355 180 M400 135 C400 165, 385 180, 355 180 M355 180 C268.49 180, 181.98 180, 45 180 M355 180 C260.91 180, 166.83 180, 45 180 M45 180 C15 180, 0 165, 0 135 M45 180 C15 180, 0 165, 0 135 M0 135 C0 110.65, 0 86.29, 0 45 M0 135 C0 104.42, 0 73.85, 0 45 M0 45 C0 15, 15 0, 45 0 M0 45 C0 15, 15 0, 45 0" stroke="#4285f4" stroke-width="2" fill="none"></path></g><g transform="translate(1092.5 316) rotate(0 106.25 35)"><text x="0" y="28" font-family="Helvetica, Segoe UI Emoji" font-size="29.999999999999993px" fill="#000000" text-anchor="start" style="white-space: pre;" direction="ltr">Maps JavaScript</text><text x="0" y="63" font-family="Helvetica, Segoe UI Emoji" font-size="29.999999999999993px" fill="#000000" text-anchor="start" style="white-space: pre;" direction="ltr">API</text></g><g stroke-linecap="round"><g transform="translate(1005.4922387407178 311.9022769406438) rotate(0 2.9827581644058228 10.01054023578763)" fill-rule="evenodd"><path d="M17.9 0.79 L17.9 0.79 L9.71 -0.52 L1.67 0.58 L-5.72 3.95 L-11.93 9.44 L1.28 20.55 L17.9 0.79" stroke="none" stroke-width="0" fill="#1a73e8" fill-rule="evenodd"></path><path d="M17.9 0.79 C17.9 0.79, 17.9 0.79, 17.9 0.79 M17.9 0.79 C17.9 0.79, 17.9 0.79, 17.9 0.79 M17.9 0.79 C16.13 0.5, 14.35 0.22, 9.71 -0.52 M17.9 0.79 C15.29 0.37, 12.68 -0.05, 9.71 -0.52 M9.71 -0.52 C7.55 -0.23, 5.4 0.07, 1.67 0.58 M9.71 -0.52 C7.62 -0.24, 5.52 0.05, 1.67 0.58 M1.67 0.58 C0.07 1.31, -1.52 2.04, -5.72 3.95 M1.67 0.58 C-0.32 1.49, -2.32 2.4, -5.72 3.95 M-5.72 3.95 C-7.47 5.5, -9.22 7.05, -11.93 9.44 M-5.72 3.95 C-7.37 5.41, -9.03 6.88, -11.93 9.44 M-11.93 9.44 C-7.85 12.88, -3.76 16.31, 1.28 20.55 M-11.93 9.44 C-7.11 13.5, -2.29 17.55, 1.28 20.55 M1.28 20.55 C5.93 15.02, 10.58 9.49, 17.9 0.79 M1.28 20.55 C5.56 15.45, 9.85 10.35, 17.9 0.79 M17.9 0.79 C17.9 0.79, 17.9 0.79, 17.9 0.79 M17.9 0.79 C17.9 0.79, 17.9 0.79, 17.9 0.79" stroke="#00000000" stroke-width="1" fill="none"></path></g></g><g stroke-linecap="round"><g transform="translate(989.650861303603 321.3448271751404) rotate(0 7.255171924829483 15.620688199996948)" fill-rule="evenodd"><path d="M3.91 0 L3.91 0 L1.11 4 L-0.93 8.39 L-2.19 13.07 L-2.61 17.93 L-1.96 24.74 L0.15 31.24 L17.12 11.1 L3.91 0" stroke="none" stroke-width="0" fill="#ea4335" fill-rule="evenodd"></path><path d="M3.91 0 C3.91 0, 3.91 0, 3.91 0 M3.91 0 C3.91 0, 3.91 0, 3.91 0 M3.91 0 C2.91 1.43, 1.91 2.86, 1.11 4 M3.91 0 C2.97 1.35, 2.03 2.69, 1.11 4 M1.11 4 C0.36 5.6, -0.38 7.21, -0.93 8.39 M1.11 4 C0.45 5.42, -0.21 6.84, -0.93 8.39 M-0.93 8.39 C-1.31 9.8, -1.69 11.2, -2.19 13.07 M-0.93 8.39 C-1.39 10.08, -1.84 11.77, -2.19 13.07 M-2.19 13.07 C-2.29 14.26, -2.39 15.44, -2.61 17.93 M-2.19 13.07 C-2.28 14.12, -2.37 15.16, -2.61 17.93 M-2.61 17.93 C-2.38 20.34, -2.15 22.75, -1.96 24.74 M-2.61 17.93 C-2.47 19.36, -2.34 20.78, -1.96 24.74 M-1.96 24.74 C-1.44 26.34, -0.92 27.93, 0.15 31.24 M-1.96 24.74 C-1.24 26.97, -0.51 29.2, 0.15 31.24 M0.15 31.24 C6.49 23.72, 12.82 16.2, 17.12 11.1 M0.15 31.24 C3.76 26.96, 7.37 22.67, 17.12 11.1 M17.12 11.1 C14.31 8.74, 11.5 6.38, 3.91 0 M17.12 11.1 C12.8 7.48, 8.49 3.85, 3.91 0 M3.91 0 C3.91 0, 3.91 0, 3.91 0 M3.91 0 C3.91 0, 3.91 0, 3.91 0" stroke="#00000000" stroke-width="1" fill="none"></path></g></g><g stroke-linecap="round"><g transform="translate(1010.0370664403786 319.02068915963173) rotate(0 13.196552515029907 10.375860586762428)" fill-rule="evenodd"><path d="M4.9 9.6 L4.9 9.6 L9.06 10.43 L12.46 12.71 L14.75 16.1 L15.59 20.26 L14.94 23.93 L13.04 27.15 L29.66 7.39 L29.66 7.39 L26.67 2.78 L22.87 -1.12 L18.39 -4.21 L13.35 -6.4 L-3.27 13.43 L-3.27 13.43 L0.39 10.6 L4.9 9.6 L4.9 9.6" stroke="none" stroke-width="0" fill="#4285f4" fill-rule="evenodd"></path><path d="M4.9 9.6 C4.9 9.6, 4.9 9.6, 4.9 9.6 M4.9 9.6 C4.9 9.6, 4.9 9.6, 4.9 9.6 M4.9 9.6 C6.33 9.88, 7.75 10.17, 9.06 10.43 M4.9 9.6 C6.05 9.83, 7.19 10.05, 9.06 10.43 M9.06 10.43 C10.23 11.21, 11.4 12, 12.46 12.71 M9.06 10.43 C10.2 11.19, 11.33 11.95, 12.46 12.71 M12.46 12.71 C13.35 14.02, 14.23 15.33, 14.75 16.1 M12.46 12.71 C13.33 14, 14.21 15.29, 14.75 16.1 M14.75 16.1 C14.98 17.25, 15.22 18.4, 15.59 20.26 M14.75 16.1 C15.09 17.75, 15.42 19.4, 15.59 20.26 M15.59 20.26 C15.33 21.72, 15.07 23.18, 14.94 23.93 M15.59 20.26 C15.39 21.37, 15.2 22.49, 14.94 23.93 M14.94 23.93 C14.5 24.68, 14.06 25.43, 13.04 27.15 M14.94 23.93 C14.29 25.03, 13.65 26.12, 13.04 27.15 M13.04 27.15 C17.55 21.79, 22.05 16.44, 29.66 7.39 M13.04 27.15 C17.18 22.23, 21.32 17.32, 29.66 7.39 M29.66 7.39 C29.66 7.39, 29.66 7.39, 29.66 7.39 M29.66 7.39 C29.66 7.39, 29.66 7.39, 29.66 7.39 M29.66 7.39 C28.7 5.92, 27.74 4.44, 26.67 2.78 M29.66 7.39 C28.91 6.23, 28.15 5.06, 26.67 2.78 M26.67 2.78 C25.7 1.79, 24.73 0.79, 22.87 -1.12 M26.67 2.78 C25.25 1.33, 23.84 -0.13, 22.87 -1.12 M22.87 -1.12 C21.6 -2, 20.34 -2.87, 18.39 -4.21 M22.87 -1.12 C21.18 -2.29, 19.48 -3.46, 18.39 -4.21 M18.39 -4.21 C16.64 -4.97, 14.89 -5.73, 13.35 -6.4 M18.39 -4.21 C17.18 -4.74, 15.97 -5.27, 13.35 -6.4 M13.35 -6.4 C8.05 -0.08, 2.75 6.25, -3.27 13.43 M13.35 -6.4 C8.06 -0.09, 2.76 6.23, -3.27 13.43 M-3.27 13.43 C-3.27 13.43, -3.27 13.43, -3.27 13.43 M-3.27 13.43 C-3.27 13.43, -3.27 13.43, -3.27 13.43 M-3.27 13.43 C-2.51 12.84, -1.74 12.25, 0.39 10.6 M-3.27 13.43 C-1.84 12.32, -0.4 11.21, 0.39 10.6 M0.39 10.6 C2.05 10.23, 3.71 9.86, 4.9 9.6 M0.39 10.6 C1.67 10.32, 2.95 10.03, 4.9 9.6 M4.9 9.6 C4.9 9.6, 4.9 9.6, 4.9 9.6 M4.9 9.6 C4.9 9.6, 4.9 9.6, 4.9 9.6 M4.9 9.6 C4.9 9.6, 4.9 9.6, 4.9 9.6 M4.9 9.6 C4.9 9.6, 4.9 9.6, 4.9 9.6" stroke="#00000000" stroke-width="1" fill="none"></path></g></g><g stroke-linecap="round"><g transform="translate(999.8577563569897 339.41379165649414) rotate(0 6.617241263389587 12.12068796157837)" fill-rule="evenodd"><path d="M15.08 10.55 L15.08 10.55 L10.92 9.71 L7.52 7.42 L5.23 4.02 L4.39 -0.14 L5.03 -3.81 L6.91 -7.03 L-10.06 13.17 L-10.06 13.17 L-4.23 22.58 L2.6 31.28 L23.29 6.76 L23.29 6.76 L19.61 9.58 L15.08 10.55 L15.08 10.55" stroke="none" stroke-width="0" fill="#fbbc04" fill-rule="evenodd"></path><path d="M15.08 10.55 C15.08 10.55, 15.08 10.55, 15.08 10.55 M15.08 10.55 C15.08 10.55, 15.08 10.55, 15.08 10.55 M15.08 10.55 C14 10.33, 12.92 10.12, 10.92 9.71 M15.08 10.55 C13.55 10.24, 12.02 9.93, 10.92 9.71 M10.92 9.71 C9.68 8.88, 8.45 8.04, 7.52 7.42 M10.92 9.71 C10.21 9.23, 9.51 8.76, 7.52 7.42 M7.52 7.42 C6.89 6.48, 6.26 5.55, 5.23 4.02 M7.52 7.42 C6.78 6.32, 6.04 5.23, 5.23 4.02 M5.23 4.02 C4.91 2.44, 4.59 0.86, 4.39 -0.14 M5.23 4.02 C5 2.87, 4.77 1.73, 4.39 -0.14 M4.39 -0.14 C4.58 -1.18, 4.76 -2.22, 5.03 -3.81 M4.39 -0.14 C4.61 -1.4, 4.84 -2.67, 5.03 -3.81 M5.03 -3.81 C5.77 -5.08, 6.51 -6.35, 6.91 -7.03 M5.03 -3.81 C5.49 -4.59, 5.94 -5.36, 6.91 -7.03 M6.91 -7.03 C1.75 -0.89, -3.41 5.26, -10.06 13.17 M6.91 -7.03 C3.11 -2.51, -0.69 2.02, -10.06 13.17 M-10.06 13.17 C-10.06 13.17, -10.06 13.17, -10.06 13.17 M-10.06 13.17 C-10.06 13.17, -10.06 13.17, -10.06 13.17 M-10.06 13.17 C-8.39 15.87, -6.72 18.57, -4.23 22.58 M-10.06 13.17 C-7.89 16.68, -5.72 20.18, -4.23 22.58 M-4.23 22.58 C-2.26 25.09, -0.29 27.6, 2.6 31.28 M-4.23 22.58 C-2.27 25.07, -0.31 27.57, 2.6 31.28 M2.6 31.28 C9 23.69, 15.4 16.11, 23.29 6.76 M2.6 31.28 C7.26 25.76, 11.91 20.24, 23.29 6.76 M23.29 6.76 C23.29 6.76, 23.29 6.76, 23.29 6.76 M23.29 6.76 C23.29 6.76, 23.29 6.76, 23.29 6.76 M23.29 6.76 C21.9 7.82, 20.52 8.88, 19.61 9.58 M23.29 6.76 C22.42 7.43, 21.55 8.09, 19.61 9.58 M19.61 9.58 C18.4 9.84, 17.19 10.1, 15.08 10.55 M19.61 9.58 C18.61 9.79, 17.61 10.01, 15.08 10.55 M15.08 10.55 C15.08 10.55, 15.08 10.55, 15.08 10.55 M15.08 10.55 C15.08 10.55, 15.08 10.55, 15.08 10.55 M15.08 10.55 C15.08 10.55, 15.08 10.55, 15.08 10.55 M15.08 10.55 C15.08 10.55, 15.08 10.55, 15.08 10.55" stroke="#00000000" stroke-width="1" fill="none"></path></g></g><g stroke-linecap="round"><g transform="translate(1010.5543076799268 346.9034469127655) rotate(0 12.09310257434845 12.07930839061737)" fill-rule="evenodd"><path d="M12.14 30.48 L12.14 30.48 L19.22 20.77 L25.71 12.34 L28.37 8.07 L30.45 3.5 L31.8 -1.61 L32.28 -7.46 L31.49 -14.07 L29.14 -20.32 L-8.1 23.79 L-8.1 23.79 L-3.37 30.48 L-1.56 33.59 L-0.27 36.36 L1.27 40.76 L2.43 43.52 L4.39 44.48 L6.34 43.52 L7.5 40.76 L9.05 36.36 L10.33 33.59 L12.14 30.48 L12.14 30.48" stroke="none" stroke-width="0" fill="#34a853" fill-rule="evenodd"></path><path d="M12.14 30.48 C12.14 30.48, 12.14 30.48, 12.14 30.48 M12.14 30.48 C12.14 30.48, 12.14 30.48, 12.14 30.48 M12.14 30.48 C14.84 26.78, 17.53 23.09, 19.22 20.77 M12.14 30.48 C14.3 27.51, 16.46 24.55, 19.22 20.77 M19.22 20.77 C21.12 18.3, 23.02 15.83, 25.71 12.34 M19.22 20.77 C20.7 18.84, 22.18 16.92, 25.71 12.34 M25.71 12.34 C26.55 10.98, 27.4 9.61, 28.37 8.07 M25.71 12.34 C26.42 11.19, 27.14 10.04, 28.37 8.07 M28.37 8.07 C29.04 6.6, 29.71 5.12, 30.45 3.5 M28.37 8.07 C28.99 6.69, 29.62 5.31, 30.45 3.5 M30.45 3.5 C30.85 1.97, 31.25 0.45, 31.8 -1.61 M30.45 3.5 C30.83 2.04, 31.21 0.59, 31.8 -1.61 M31.8 -1.61 C31.94 -3.31, 32.08 -5.02, 32.28 -7.46 M31.8 -1.61 C31.91 -2.99, 32.03 -4.37, 32.28 -7.46 M32.28 -7.46 C32.03 -9.56, 31.78 -11.67, 31.49 -14.07 M32.28 -7.46 C32.1 -8.94, 31.93 -10.42, 31.49 -14.07 M31.49 -14.07 C30.82 -15.86, 30.15 -17.64, 29.14 -20.32 M31.49 -14.07 C30.69 -16.21, 29.89 -18.34, 29.14 -20.32 M29.14 -20.32 C17.83 -6.92, 6.52 6.48, -8.1 23.79 M29.14 -20.32 C18.29 -7.47, 7.45 5.38, -8.1 23.79 M-8.1 23.79 C-8.1 23.79, -8.1 23.79, -8.1 23.79 M-8.1 23.79 C-8.1 23.79, -8.1 23.79, -8.1 23.79 M-8.1 23.79 C-6.69 25.78, -5.28 27.78, -3.37 30.48 M-8.1 23.79 C-7.07 25.24, -6.04 26.69, -3.37 30.48 M-3.37 30.48 C-3 31.12, -2.62 31.77, -1.56 33.59 M-3.37 30.48 C-2.89 31.31, -2.4 32.14, -1.56 33.59 M-1.56 33.59 C-1.21 34.34, -0.86 35.09, -0.27 36.36 M-1.56 33.59 C-1.22 34.31, -0.89 35.03, -0.27 36.36 M-0.27 36.36 C0.06 37.32, 0.4 38.29, 1.27 40.76 M-0.27 36.36 C0.12 37.48, 0.51 38.6, 1.27 40.76 M1.27 40.76 C1.63 41.61, 1.98 42.46, 2.43 43.52 M1.27 40.76 C1.51 41.33, 1.75 41.9, 2.43 43.52 M2.43 43.52 C2.87 43.73, 3.31 43.95, 4.39 44.48 M2.43 43.52 C3.12 43.85, 3.8 44.19, 4.39 44.48 M4.39 44.48 C4.82 44.26, 5.25 44.05, 6.34 43.52 M4.39 44.48 C5.12 44.12, 5.85 43.76, 6.34 43.52 M6.34 43.52 C6.6 42.91, 6.85 42.31, 7.5 40.76 M6.34 43.52 C6.58 42.95, 6.82 42.37, 7.5 40.76 M7.5 40.76 C8.03 39.25, 8.56 37.74, 9.05 36.36 M7.5 40.76 C7.82 39.87, 8.13 38.98, 9.05 36.36 M9.05 36.36 C9.33 35.74, 9.62 35.12, 10.33 33.59 M9.05 36.36 C9.44 35.5, 9.84 34.64, 10.33 33.59 M10.33 33.59 C10.92 32.57, 11.52 31.55, 12.14 30.48 M10.33 33.59 C10.81 32.77, 11.29 31.94, 12.14 30.48 M12.14 30.48 C12.14 30.48, 12.14 30.48, 12.14 30.48 M12.14 30.48 C12.14 30.48, 12.14 30.48, 12.14 30.48 M12.14 30.48 C12.14 30.48, 12.14 30.48, 12.14 30.48 M12.14 30.48 C12.14 30.48, 12.14 30.48, 12.14 30.48" stroke="#00000000" stroke-width="1" fill="none"></path></g></g><g transform="translate(911.5 50) rotate(0 478.5 42)"><text x="0" y="67" font-family="Helvetica, Segoe UI Emoji" font-size="72.63042936792289px" fill="#000000" text-anchor="start" style="white-space: pre;" direction="ltr">Petsera App in Google Cloud </text></g><g stroke-linecap="round" transform="translate(130 380) rotate(0 200 90)"><path d="M45 0 L355 0 L365.55 0.7 L374.69 2.81 L382.42 6.33 L388.75 11.25 L393.67 17.58 L397.19 25.31 L399.3 34.45 L400 45 L400 135 L399.3 145.55 L397.19 154.69 L393.67 162.42 L388.75 168.75 L382.42 173.67 L374.69 177.19 L365.55 179.3 L355 180 L45 180 L34.45 179.3 L25.31 177.19 L17.58 173.67 L11.25 168.75 L6.33 162.42 L2.81 154.69 L0.7 145.55 L0 135 L0 45 L0.7 34.45 L2.81 25.31 L6.33 17.58 L11.25 11.25 L17.58 6.33 L25.31 2.81 L34.45 0.7 L45 0" stroke="none" stroke-width="0" fill="#DEDEDE"></path><path d="M45 0 M45 0 C137.77 0, 230.54 0, 355 0 M45 0 C130.01 0, 215.02 0, 355 0 M355 0 C385 0, 400 15, 400 45 M355 0 C385 0, 400 15, 400 45 M400 45 C400 64.82, 400 84.64, 400 135 M400 45 C400 63.73, 400 82.45, 400 135 M400 135 C400 165, 385 180, 355 180 M400 135 C400 165, 385 180, 355 180 M355 180 C289.01 180, 223.02 180, 45 180 M355 180 C249.53 180, 144.05 180, 45 180 M45 180 C15 180, 0 165, 0 135 M45 180 C15 180, 0 165, 0 135 M0 135 C0 111.05, 0 87.1, 0 45 M0 135 C0 107.29, 0 79.58, 0 45 M0 45 C0 15, 15 0, 45 0 M0 45 C0 15, 15 0, 45 0" stroke="#000" stroke-width="2" fill="none"></path></g><g transform="translate(292.4999999999959 452.5) rotate(0 55 21)"><text x="0" y="33" font-family="Helvetica, Segoe UI Emoji" font-size="36px" fill="#000000" text-anchor="start" style="white-space: pre;" direction="ltr">Device</text></g><g stroke-linecap="round"><g transform="translate(171.25000000000273 430) rotate(0 40 40)" fill-rule="evenodd"><path d="M0 0 L80 0 L80 80 L0 80 L0 0" stroke="none" stroke-width="0" fill="#00000000" fill-rule="evenodd"></path><path d="M0 0 C29.12 0, 58.24 0, 80 0 M0 0 C29.8 0, 59.6 0, 80 0 M80 0 C80 17.7, 80 35.4, 80 80 M80 0 C80 27.36, 80 54.72, 80 80 M80 80 C58.9 80, 37.81 80, 0 80 M80 80 C61.5 80, 43 80, 0 80 M0 80 C0 51.77, 0 23.54, 0 0 M0 80 C0 63.45, 0 46.91, 0 0 M0 0 C0 0, 0 0, 0 0 M0 0 C0 0, 0 0, 0 0" stroke="#00000000" stroke-width="1" fill="none"></path></g></g><g stroke-linecap="round"><g transform="translate(176.58333349228042 446.0000002384186) rotate(0 31.33333396911621 24.000001549720764)" fill-rule="evenodd"><path d="M8 4 L68 4 L68 -2.67 L8 -2.67 L8 -2.67 L5.41 -2.14 L3.29 -0.71 L1.86 1.41 L1.33 4 L1.33 40.67 L-5.33 40.67 L-5.33 50.67 L41.33 50.67 L41.33 40.67 L8 40.67 L8 4 L8 4" stroke="none" stroke-width="0" fill="#000" fill-rule="evenodd"></path><path d="M8 4 C22.23 4, 36.46 4, 68 4 M8 4 C23.57 4, 39.13 4, 68 4 M68 4 C68 1.73, 68 -0.53, 68 -2.67 M68 4 C68 2, 68 0, 68 -2.67 M68 -2.67 C53.99 -2.67, 39.98 -2.67, 8 -2.67 M68 -2.67 C49.8 -2.67, 31.61 -2.67, 8 -2.67 M8 -2.67 C8 -2.67, 8 -2.67, 8 -2.67 M8 -2.67 C8 -2.67, 8 -2.67, 8 -2.67 M8 -2.67 C7.18 -2.5, 6.36 -2.33, 5.41 -2.14 M8 -2.67 C7.42 -2.55, 6.84 -2.43, 5.41 -2.14 M5.41 -2.14 C4.81 -1.74, 4.22 -1.33, 3.29 -0.71 M5.41 -2.14 C4.93 -1.81, 4.44 -1.49, 3.29 -0.71 M3.29 -0.71 C2.96 -0.22, 2.63 0.27, 1.86 1.41 M3.29 -0.71 C2.82 -0.01, 2.35 0.68, 1.86 1.41 M1.86 1.41 C1.7 2.19, 1.54 2.97, 1.33 4 M1.86 1.41 C1.67 2.33, 1.48 3.26, 1.33 4 M1.33 4 C1.33 16.74, 1.33 29.48, 1.33 40.67 M1.33 4 C1.33 16.68, 1.33 29.36, 1.33 40.67 M1.33 40.67 C-0.35 40.67, -2.04 40.67, -5.33 40.67 M1.33 40.67 C-0.75 40.67, -2.84 40.67, -5.33 40.67 M-5.33 40.67 C-5.33 43.22, -5.33 45.78, -5.33 50.67 M-5.33 40.67 C-5.33 43.05, -5.33 45.43, -5.33 50.67 M-5.33 50.67 C6.88 50.67, 19.09 50.67, 41.33 50.67 M-5.33 50.67 C6.2 50.67, 17.74 50.67, 41.33 50.67 M41.33 50.67 C41.33 46.99, 41.33 43.32, 41.33 40.67 M41.33 50.67 C41.33 46.73, 41.33 42.8, 41.33 40.67 M41.33 40.67 C28.8 40.67, 16.27 40.67, 8 40.67 M41.33 40.67 C33.44 40.67, 25.54 40.67, 8 40.67 M8 40.67 C8 29.03, 8 17.4, 8 4 M8 40.67 C8 32.3, 8 23.94, 8 4 M8 4 C8 4, 8 4, 8 4 M8 4 C8 4, 8 4, 8 4 M8 4 C8 4, 8 4, 8 4 M8 4 C8 4, 8 4, 8 4" stroke="#00000000" stroke-width="1" fill="none"></path></g></g><g stroke-linecap="round"><g transform="translate(233.91666889190583 456.66666746139526) rotate(0 3.9999985694885254 20.000001192092896)" fill-rule="evenodd"><path d="M14 0 L-6 0 L-6 0 L-8.35 0.98 L-9.33 3.33 L-9.33 36.67 L-9.33 36.67 L-8.35 39.02 L-6 40 L14 40 L14 40 L16.35 39.02 L17.33 36.67 L17.33 3.33 L17.33 3.33 L16.35 0.98 L14 0 L14 0" stroke="none" stroke-width="0" fill="#000" fill-rule="evenodd"></path><path d="M14 0 C9.67 0, 5.34 0, -6 0 M14 0 C6.27 0, -1.45 0, -6 0 M-6 0 C-6 0, -6 0, -6 0 M-6 0 C-6 0, -6 0, -6 0 M-6 0 C-6.72 0.3, -7.43 0.6, -8.35 0.98 M-6 0 C-6.74 0.31, -7.48 0.62, -8.35 0.98 M-8.35 0.98 C-8.56 1.48, -8.77 1.98, -9.33 3.33 M-8.35 0.98 C-8.62 1.62, -8.89 2.27, -9.33 3.33 M-9.33 3.33 C-9.33 13.13, -9.33 22.93, -9.33 36.67 M-9.33 3.33 C-9.33 10.27, -9.33 17.2, -9.33 36.67 M-9.33 36.67 C-9.33 36.67, -9.33 36.67, -9.33 36.67 M-9.33 36.67 C-9.33 36.67, -9.33 36.67, -9.33 36.67 M-9.33 36.67 C-9.13 37.15, -8.93 37.62, -8.35 39.02 M-9.33 36.67 C-9.03 37.39, -8.73 38.12, -8.35 39.02 M-8.35 39.02 C-7.58 39.34, -6.81 39.66, -6 40 M-8.35 39.02 C-7.69 39.3, -7.03 39.57, -6 40 M-6 40 C1.58 40, 9.17 40, 14 40 M-6 40 C-0.4 40, 5.21 40, 14 40 M14 40 C14 40, 14 40, 14 40 M14 40 C14 40, 14 40, 14 40 M14 40 C14.7 39.71, 15.39 39.42, 16.35 39.02 M14 40 C14.5 39.79, 15 39.58, 16.35 39.02 M16.35 39.02 C16.72 38.15, 17.08 37.28, 17.33 36.67 M16.35 39.02 C16.66 38.28, 16.97 37.55, 17.33 36.67 M17.33 36.67 C17.33 24.82, 17.33 12.98, 17.33 3.33 M17.33 36.67 C17.33 29.56, 17.33 22.46, 17.33 3.33 M17.33 3.33 C17.33 3.33, 17.33 3.33, 17.33 3.33 M17.33 3.33 C17.33 3.33, 17.33 3.33, 17.33 3.33 M17.33 3.33 C17.05 2.65, 16.77 1.97, 16.35 0.98 M17.33 3.33 C17.12 2.83, 16.91 2.33, 16.35 0.98 M16.35 0.98 C15.5 0.62, 14.65 0.27, 14 0 M16.35 0.98 C15.78 0.74, 15.21 0.5, 14 0 M14 0 C14 0, 14 0, 14 0 M14 0 C14 0, 14 0, 14 0 M14 0 C14 0, 14 0, 14 0 M14 0 C14 0, 14 0, 14 0" stroke="#00000000" stroke-width="1" fill="none"></path></g></g><g stroke-linecap="round"><g transform="translate(236.58333396912076 472.66666889190674) rotate(0 1.3333334922790527 2.3333334922790527)" fill-rule="evenodd"><path d="M8 14 L-5.33 14 L-5.33 -9.33 L8 -9.33 L8 14" stroke="none" stroke-width="0" fill="#DEDEDE" fill-rule="evenodd"></path><path d="M8 14 C4.35 14, 0.7 14, -5.33 14 M8 14 C2.84 14, -2.33 14, -5.33 14 M-5.33 14 C-5.33 7.58, -5.33 1.15, -5.33 -9.33 M-5.33 14 C-5.33 9.19, -5.33 4.38, -5.33 -9.33 M-5.33 -9.33 C-1.58 -9.33, 2.18 -9.33, 8 -9.33 M-5.33 -9.33 C-0.85 -9.33, 3.63 -9.33, 8 -9.33 M8 -9.33 C8 -4.55, 8 0.23, 8 14 M8 -9.33 C8 -1.89, 8 5.54, 8 14 M8 14 C8 14, 8 14, 8 14 M8 14 C8 14, 8 14, 8 14" stroke="#00000000" stroke-width="1" fill="none"></path></g></g><g stroke-linecap="round"><g transform="translate(530 450) rotate(0 200 -50)"><path d="M0 0 C39.82 0, 79.64 0, 160 0 M0 0 C59.6 0, 119.21 0, 160 0 M160 0 C160 -39.98, 160 -79.95, 160 -100 M160 0 C160 -31.4, 160 -62.79, 160 -100 M160 -100 C229.6 -100, 299.21 -100, 400 -100 M160 -100 C223.57 -100, 287.15 -100, 400 -100" stroke="#4c6ef5" stroke-width="4" fill="none"></path></g><g transform="translate(530 450) rotate(0 200 -50)"><path d="M371.81 -89.74 C378.82 -92.29, 385.84 -94.85, 400 -100 M371.81 -89.74 C382.31 -93.56, 392.81 -97.38, 400 -100" stroke="#4c6ef5" stroke-width="4" fill="none"></path></g><g transform="translate(530 450) rotate(0 200 -50)"><path d="M371.81 -110.26 C378.82 -107.71, 385.84 -105.15, 400 -100 M371.81 -110.26 C382.31 -106.44, 392.81 -102.62, 400 -100" stroke="#4c6ef5" stroke-width="4" fill="none"></path></g></g></svg>